<svg width="45" height="45" viewBox="0 0 45 45" fill="none" xmlns="http://www.w3.org/2000/svg">
<path d="M4.82227 10.8481C4.82227 9.24967 5.45723 7.71674 6.58747 6.58649C7.71771 5.45625 9.25065 4.82129 10.8491 4.82129H34.1526C35.751 4.82129 37.284 5.45625 38.4142 6.58649C39.5444 7.71674 40.1794 9.24967 40.1794 10.8481V34.1516C40.1794 35.75 39.5444 37.283 38.4142 38.4132C37.284 39.5435 35.751 40.1784 34.1526 40.1784H10.8491C9.25065 40.1784 7.71771 39.5435 6.58747 38.4132C5.45723 37.283 4.82227 35.75 4.82227 34.1516V10.8481ZM10.8491 7.232C9.89001 7.232 8.97025 7.61298 8.2921 8.29113C7.61396 8.96927 7.23298 9.88903 7.23298 10.8481V34.1516C7.23298 35.1107 7.61396 36.0305 8.2921 36.7086C8.97025 37.3867 9.89001 37.7677 10.8491 37.7677H25.7151V7.232H10.8491ZM34.1526 37.7677C35.1117 37.7677 36.0314 37.3867 36.7096 36.7086C37.3877 36.0305 37.7687 35.1107 37.7687 34.1516V29.732H28.1258V37.7677H34.1526ZM37.7687 27.3213V17.6784H28.1258V27.3213H37.7687ZM37.7687 15.2677V10.8481C37.7687 9.88903 37.3877 8.96927 36.7096 8.29113C36.0314 7.61298 35.1117 7.232 34.1526 7.232H28.1258V15.2677H37.7687ZM12.4562 12.0534C11.3473 12.0534 10.4473 12.9534 10.4473 14.0624V19.6874C10.4473 20.7963 11.3473 21.6963 12.4562 21.6963H20.4919C21.6008 21.6963 22.5008 20.7963 22.5008 19.6874V14.0624C22.5008 12.9534 21.6008 12.0534 20.4919 12.0534H12.4562ZM12.858 19.2856V14.4641H20.0901V19.2856H12.858ZM10.4473 26.1159C10.4473 25.7963 10.5743 25.4897 10.8003 25.2636C11.0264 25.0376 11.3329 24.9106 11.6526 24.9106H21.2955C21.6152 24.9106 21.9217 25.0376 22.1478 25.2636C22.3738 25.4897 22.5008 25.7963 22.5008 26.1159C22.5008 26.4356 22.3738 26.7422 22.1478 26.9683C21.9217 27.1943 21.6152 27.3213 21.2955 27.3213H11.6526C11.3329 27.3213 11.0264 27.1943 10.8003 26.9683C10.5743 26.7422 10.4473 26.4356 10.4473 26.1159ZM11.6526 30.5356C11.3329 30.5356 11.0264 30.6626 10.8003 30.8886C10.5743 31.1147 10.4473 31.4213 10.4473 31.7409C10.4473 32.0606 10.5743 32.3672 10.8003 32.5933C11.0264 32.8193 11.3329 32.9463 11.6526 32.9463H21.2955C21.6152 32.9463 21.9217 32.8193 22.1478 32.5933C22.3738 32.3672 22.5008 32.0606 22.5008 31.7409C22.5008 31.4213 22.3738 31.1147 22.1478 30.8886C21.9217 30.6626 21.6152 30.5356 21.2955 30.5356H11.6526Z" fill="white"/>
</svg>
