<svg width="45" height="45" viewBox="0 0 45 45" fill="none" xmlns="http://www.w3.org/2000/svg">
<path d="M6.74911 24.7501C6.74456 20.9054 8.14648 17.1918 10.6906 14.3093C13.2348 11.4267 16.7454 9.57431 20.5609 9.10118C24.3764 8.62805 28.2332 9.56687 31.4043 11.7407C34.5755 13.9145 36.842 17.1732 37.7766 20.9026C38.8476 21.4156 39.7611 22.1986 40.4316 23.1661C40.1762 20.2852 39.2303 17.5083 37.674 15.0704C36.1178 12.6326 33.997 10.6057 31.4913 9.16127C28.9856 7.71688 26.1687 6.89754 23.2792 6.77265C20.3897 6.64776 17.5127 7.22099 14.8917 8.4438C12.2707 9.66661 9.98291 11.503 8.22213 13.7975C6.46135 16.0919 5.27939 18.7769 4.77633 21.625C4.27327 24.4731 4.46392 27.4005 5.33215 30.1594C6.20038 32.9182 7.72061 35.4272 9.76411 37.4739C9.97629 37.6788 10.2605 37.7922 10.5554 37.7896C10.8504 37.7871 11.1326 37.6687 11.3412 37.4602C11.5497 37.2516 11.6681 36.9694 11.6706 36.6744C11.6732 36.3795 11.5598 36.0953 11.3549 35.8831C9.89174 34.4222 8.73166 32.6867 7.94126 30.7761C7.15086 28.8656 6.74572 26.8177 6.74911 24.7501V24.7501ZM32.9324 20.5336C31.9513 18.1156 30.1604 16.1136 27.8661 14.8702C25.5719 13.6268 22.9168 13.2193 20.3553 13.7174C17.7938 14.2156 15.4849 15.5883 13.8238 17.6008C12.1627 19.6134 11.2526 22.1406 11.2491 24.7501C11.2491 27.8506 12.5046 30.6609 14.5341 32.6949C14.746 32.9001 15.03 33.0139 15.325 33.0118C15.62 33.0096 15.9023 32.8917 16.1112 32.6834C16.3201 32.4751 16.4388 32.1931 16.4418 31.8981C16.4448 31.6032 16.3318 31.3188 16.1271 31.1064C15.1816 30.1566 14.4601 29.0078 14.0153 27.7436C13.5705 26.4794 13.4136 25.1318 13.5561 23.7993C13.6987 22.4668 14.137 21.1829 14.8391 20.0413C15.5412 18.8998 16.4894 17.9295 17.6144 17.2013C18.7394 16.473 20.0128 16.0052 21.3417 15.832C22.6706 15.6587 24.0214 15.7845 25.2955 16.2C26.5696 16.6155 27.7349 17.3103 28.7061 18.2336C29.6774 19.157 30.4302 20.2856 30.9096 21.5371C31.5225 21.091 32.2064 20.7518 32.9324 20.5336V20.5336ZM17.9991 24.7501C17.9991 23.5566 18.4732 22.412 19.3171 21.5681C20.161 20.7242 21.3056 20.2501 22.4991 20.2501C23.6926 20.2501 24.8372 20.7242 25.6811 21.5681C26.525 22.412 26.9991 23.5566 26.9991 24.7501C26.9991 25.9436 26.525 27.0882 25.6811 27.9321C24.8372 28.776 23.6926 29.2501 22.4991 29.2501C21.3056 29.2501 20.161 28.776 19.3171 27.9321C18.4732 27.0882 17.9991 25.9436 17.9991 24.7501ZM22.4991 22.5001C21.9024 22.5001 21.3301 22.7372 20.9081 23.1591C20.4862 23.5811 20.2491 24.1534 20.2491 24.7501C20.2491 25.3468 20.4862 25.9191 20.9081 26.3411C21.3301 26.7631 21.9024 27.0001 22.4991 27.0001C23.0959 27.0001 23.6681 26.7631 24.0901 26.3411C24.5121 25.9191 24.7491 25.3468 24.7491 24.7501C24.7491 24.1534 24.5121 23.5811 24.0901 23.1591C23.6681 22.7372 23.0959 22.5001 22.4991 22.5001ZM39.3741 27.0001C39.3741 28.1936 38.9 29.3382 38.0561 30.1821C37.2122 31.026 36.0676 31.5001 34.8741 31.5001C33.6806 31.5001 32.536 31.026 31.6921 30.1821C30.8482 29.3382 30.3741 28.1936 30.3741 27.0001C30.3741 25.8066 30.8482 24.662 31.6921 23.8181C32.536 22.9742 33.6806 22.5001 34.8741 22.5001C36.0676 22.5001 37.2122 22.9742 38.0561 23.8181C38.9 24.662 39.3741 25.8066 39.3741 27.0001ZM42.7491 37.1251C42.7491 39.9264 40.4991 42.7501 34.8741 42.7501C29.2491 42.7501 26.9991 39.9376 26.9991 37.1251C26.9991 36.23 27.3547 35.3716 27.9876 34.7386C28.6206 34.1057 29.479 33.7501 30.3741 33.7501H39.3741C40.2692 33.7501 41.1277 34.1057 41.7606 34.7386C42.3935 35.3716 42.7491 36.23 42.7491 37.1251Z" fill="white"/>
</svg>
