<svg width="45" height="45" viewBox="0 0 45 45" fill="none" xmlns="http://www.w3.org/2000/svg">
<path d="M35.1562 32.3438H35.1267C34.8263 32.3368 34.536 32.2339 34.2982 32.0502C34.0604 31.8666 33.8875 31.6117 33.8048 31.3228L29.3484 15.7359L26.6273 22.9922C26.5272 23.2602 26.3477 23.4913 26.1127 23.6547C25.8778 23.818 25.5986 23.9057 25.3125 23.9062H19.6875V21.0938H24.338L28.215 10.7564C28.3188 10.4792 28.5074 10.2419 28.754 10.0782C29.0005 9.91442 29.2925 9.83265 29.5882 9.84449C29.8839 9.85633 30.1684 9.96118 30.4011 10.1441C30.6337 10.327 30.8028 10.5787 30.8841 10.8633L35.2589 26.1802L38.0419 17.8369C38.1349 17.5569 38.3138 17.3132 38.5531 17.1406C38.7923 16.9679 39.0799 16.875 39.375 16.875H45V19.6875H40.3875L36.4894 31.3819C36.3965 31.662 36.2177 31.9057 35.9784 32.0784C35.7391 32.2511 35.4514 32.344 35.1562 32.3438ZM21.0938 42.1875H18.2812V32.3438C18.2801 31.2252 17.8353 30.1528 17.0444 29.3619C16.2534 28.5709 15.181 28.1261 14.0625 28.125H8.4375C7.31896 28.1261 6.24655 28.5709 5.45563 29.3619C4.6647 30.1528 4.21987 31.2252 4.21875 32.3438V42.1875H1.40625V32.3438C1.40848 30.4796 2.14999 28.6925 3.46812 27.3744C4.78625 26.0562 6.57338 25.3147 8.4375 25.3125H14.0625C15.9266 25.3147 17.7137 26.0562 19.0319 27.3744C20.35 28.6925 21.0915 30.4796 21.0938 32.3438V42.1875ZM11.25 11.25C12.0844 11.25 12.9 11.4974 13.5938 11.961C14.2876 12.4246 14.8283 13.0834 15.1476 13.8543C15.4669 14.6252 15.5505 15.4734 15.3877 16.2918C15.2249 17.1101 14.8231 17.8619 14.2331 18.4519C13.6431 19.0419 12.8914 19.4437 12.073 19.6064C11.2547 19.7692 10.4064 19.6857 9.63555 19.3664C8.86468 19.0471 8.2058 18.5063 7.74224 17.8126C7.27868 17.1188 7.03125 16.3031 7.03125 15.4688C7.03125 14.3499 7.47572 13.2768 8.26689 12.4856C9.05806 11.6945 10.1311 11.25 11.25 11.25ZM11.25 8.4375C9.85935 8.4375 8.49993 8.84988 7.34365 9.62248C6.18736 10.3951 5.28615 11.4932 4.75397 12.778C4.22179 14.0628 4.08255 15.4765 4.35385 16.8405C4.62516 18.2044 5.29482 19.4573 6.27816 20.4406C7.26149 21.4239 8.51434 22.0936 9.87827 22.3649C11.2422 22.6362 12.6559 22.497 13.9407 21.9648C15.2255 21.4326 16.3237 20.5314 17.0963 19.3751C17.8689 18.2188 18.2812 16.8594 18.2812 15.4688C18.2812 13.6039 17.5405 11.8155 16.2218 10.4969C14.9032 9.17829 13.1148 8.4375 11.25 8.4375Z" fill="white"/>
</svg>
