<svg width="45" height="45" viewBox="0 0 45 45" fill="none" xmlns="http://www.w3.org/2000/svg">
<path d="M42.1875 40.2188L38.25 36.2812C38.9531 35.1562 39.375 33.75 39.375 32.3438C39.375 28.4062 36.2812 25.3125 32.3438 25.3125C28.4062 25.3125 25.3125 28.4062 25.3125 32.3438C25.3125 36.2812 28.4062 39.375 32.3438 39.375C33.75 39.375 35.1562 38.9531 36.2812 38.25L40.2188 42.1875L42.1875 40.2188ZM28.125 32.3438C28.125 29.9531 29.9531 28.125 32.3438 28.125C34.7344 28.125 36.5625 29.9531 36.5625 32.3438C36.5625 34.7344 34.7344 36.5625 32.3438 36.5625C29.9531 36.5625 28.125 34.7344 28.125 32.3438ZM11.25 22.5H25.3125V25.3125H11.25V22.5ZM11.25 14.0625H28.125V16.875H11.25V14.0625Z" fill="white"/>
<path d="M19.6875 38.9531L12.375 35.0156C8.15625 32.9062 5.625 28.5469 5.625 23.9062V5.625H33.75V21.0938H36.5625V5.625C36.5625 4.07812 35.2969 2.8125 33.75 2.8125H5.625C4.07812 2.8125 2.8125 4.07812 2.8125 5.625V23.9062C2.8125 29.6719 5.90625 34.875 10.9688 37.5469L19.6875 42.1875V38.9531Z" fill="white"/>
</svg>
