<svg width="45" height="45" viewBox="0 0 45 45" fill="none" xmlns="http://www.w3.org/2000/svg">
<g clip-path="url(#clip0_1098_2754)">
<path d="M36.3125 14.2369C35.6981 11.0239 33.9827 8.12559 31.4616 6.04099C28.9406 3.95639 25.7716 2.81592 22.5003 2.81592C19.2291 2.81592 16.0601 3.95639 13.5391 6.04099C11.018 8.12559 9.30263 11.0239 8.68816 14.2369C6.09274 14.6989 3.76461 16.1166 2.16291 18.2105C0.561203 20.3043 -0.197813 22.9223 0.0355423 25.5482C0.268898 28.174 1.47769 30.6172 3.42353 32.3958C5.36936 34.1743 7.91101 35.1593 10.5472 35.1563H11.2503V32.3438H10.5472C8.53988 32.349 6.60926 31.5731 5.16389 30.1801C3.71852 28.7871 2.87181 26.8865 2.80293 24.8803C2.73404 22.8741 3.4484 20.9199 4.79482 19.4311C6.14124 17.9422 8.0141 17.0357 10.0171 16.9032L11.1927 16.823L11.3193 15.6516C11.6193 12.8958 12.9266 10.3479 14.9902 8.49679C17.0537 6.64574 19.7282 5.62197 22.5003 5.62197C25.2725 5.62197 27.947 6.64574 30.0105 8.49679C32.0741 10.3479 33.3814 12.8958 33.6814 15.6516L33.808 16.823L34.9836 16.9046C36.9826 17.0423 38.8499 17.951 40.1918 19.4389C41.5337 20.9269 42.2453 22.8778 42.1766 24.8803C42.1078 26.8828 41.264 28.7803 39.8232 30.1727C38.3824 31.5651 36.4571 32.3435 34.4535 32.3438H33.7504V35.1563H34.4535C37.0897 35.1593 39.6313 34.1743 41.5772 32.3958C43.523 30.6172 44.7318 28.174 44.9652 25.5482C45.1985 22.9223 44.4395 20.3043 42.8378 18.2105C41.2361 16.1166 38.908 14.6989 36.3125 14.2369Z" fill="white"/>
<path d="M32.3438 30.9375V28.125H29.3892C29.2079 27.2447 28.8583 26.4077 28.3598 25.6598L30.4552 23.5645L28.4667 21.5761L26.3714 23.6714C25.6236 23.1729 24.7865 22.8234 23.9062 22.642V19.6875H21.0938V22.642C20.2135 22.8234 19.3764 23.1729 18.6286 23.6714L16.5333 21.5761L14.5448 23.5645L16.6402 25.6598C16.1417 26.4077 15.7921 27.2447 15.6108 28.125H12.6562V30.9375H15.6108C15.7921 31.8178 16.1417 32.6548 16.6402 33.4027L14.5448 35.498L16.5333 37.4864L18.6286 35.3911C19.3764 35.8896 20.2135 36.2391 21.0938 36.4205V39.375H23.9062V36.4205C24.7865 36.2391 25.6236 35.8896 26.3714 35.3911L28.4667 37.4864L30.4552 35.498L28.3598 33.4027C28.8583 32.6548 29.2079 31.8178 29.3892 30.9375H32.3438ZM22.5 33.75C21.6656 33.75 20.85 33.5026 20.1562 33.039C19.4624 32.5755 18.9217 31.9166 18.6024 31.1457C18.2831 30.3748 18.1995 29.5266 18.3623 28.7082C18.5251 27.8899 18.9269 27.1381 19.5169 26.5481C20.1069 25.9581 20.8586 25.5563 21.677 25.3936C22.4953 25.2308 23.3436 25.3143 24.1144 25.6336C24.8853 25.9529 25.5442 26.4937 26.0078 27.1874C26.4713 27.8812 26.7188 28.6969 26.7188 29.5312C26.7176 30.6498 26.2728 31.7222 25.4819 32.5131C24.6909 33.3041 23.6185 33.7489 22.5 33.75Z" fill="white"/>
</g>
<defs>
<clipPath id="clip0_1098_2754">
<rect width="45" height="45" fill="white"/>
</clipPath>
</defs>
</svg>
