<svg width="45" height="45" viewBox="0 0 45 45" fill="none" xmlns="http://www.w3.org/2000/svg">
<g clip-path="url(#clip0_1098_2757)">
<path d="M23.9062 11.2501C21.5393 11.2498 19.2325 11.9956 17.3138 13.3816C15.3951 14.7676 13.9622 16.7232 13.2187 18.9704C13.1663 19.1521 13.0778 19.3214 12.9584 19.4682C12.8391 19.6149 12.6913 19.736 12.5241 19.8243C12.3568 19.9126 12.1734 19.9663 11.9849 19.9821C11.7965 19.9979 11.6067 19.9755 11.4271 19.9162C11.2475 19.857 11.0816 19.7621 10.9395 19.6373C10.7974 19.5124 10.6819 19.3602 10.6 19.1897C10.5181 19.0192 10.4714 18.834 10.4628 18.645C10.4541 18.4561 10.4837 18.2673 10.5497 18.0901C11.5259 15.142 13.4502 12.5998 16.0224 10.8599C18.5947 9.1199 21.6704 8.27995 24.77 8.47099C27.8696 8.66203 30.8189 9.8733 33.1581 11.916C35.4972 13.9586 37.0947 16.7179 37.7016 19.7635C39.8229 20.05 41.7561 21.1322 43.1094 22.7907C44.4628 24.4492 45.1351 26.5602 44.9903 28.6959C44.8455 30.8316 43.8943 32.8324 42.3295 34.2931C40.7646 35.7537 38.7031 36.565 36.5625 36.5626H1.40625C1.03329 36.5626 0.675604 36.4144 0.411881 36.1507C0.148158 35.887 0 35.5293 0 35.1563C0 34.7834 0.148158 34.4257 0.411881 34.1619C0.675604 33.8982 1.03329 33.7501 1.40625 33.7501H36.5625C38.0543 33.7504 39.4852 33.1582 40.5404 32.1035C41.5955 31.0489 42.1885 29.6183 42.1889 28.1265C42.1893 26.6346 41.597 25.2037 40.5424 24.1486C39.4877 23.0934 38.0572 22.5004 36.5653 22.5001H36.4922C36.1445 22.5022 35.8084 22.3754 35.5487 22.1443C35.289 21.9132 35.1242 21.594 35.0859 21.2485C34.7781 18.4988 33.4678 15.9589 31.4054 14.1144C29.343 12.27 26.6731 11.2502 23.9062 11.2501ZM0 23.9063C0 23.5334 0.148158 23.1757 0.411881 22.912C0.675604 22.6482 1.03329 22.5001 1.40625 22.5001H21.0938C21.4667 22.5001 21.8244 22.6482 22.0881 22.912C22.3518 23.1757 22.5 23.5334 22.5 23.9063C22.5 24.2793 22.3518 24.637 22.0881 24.9007C21.8244 25.1644 21.4667 25.3126 21.0938 25.3126H1.40625C1.03329 25.3126 0.675604 25.1644 0.411881 24.9007C0.148158 24.637 0 24.2793 0 23.9063ZM0 29.5313C0 29.1584 0.148158 28.8007 0.411881 28.5369C0.675604 28.2732 1.03329 28.1251 1.40625 28.1251H26.7188C27.0917 28.1251 27.4494 28.2732 27.7131 28.5369C27.9768 28.8007 28.125 29.1584 28.125 29.5313C28.125 29.9043 27.9768 30.262 27.7131 30.5257C27.4494 30.7894 27.0917 30.9376 26.7188 30.9376H1.40625C1.03329 30.9376 0.675604 30.7894 0.411881 30.5257C0.148158 30.262 0 29.9043 0 29.5313Z" fill="white"/>
</g>
<defs>
<clipPath id="clip0_1098_2757">
<rect width="45" height="45" fill="white"/>
</clipPath>
</defs>
</svg>
