<svg width="45" height="45" viewBox="0 0 45 45" fill="none" xmlns="http://www.w3.org/2000/svg">
<path d="M42.1875 25.3125V33.0469C42.1875 35.1562 40.9219 36.9844 38.9531 37.9688L36.5625 39.0937L34.1719 37.9688C32.2031 37.125 30.9375 35.1562 30.9375 33.0469V25.3125H42.1875ZM45 22.5H28.125V33.0469C28.125 36.1406 29.9531 39.0937 32.9062 40.5L36.5625 42.1875L40.2188 40.5C43.1719 39.0937 45 36.2812 45 33.0469V22.5Z" fill="white"/>
<path d="M22.5 35.1562H10.5469C4.78125 35.1562 0 30.375 0 24.6094C0 19.4062 3.79687 15.1875 8.71875 14.2031C9.98438 7.59375 15.75 2.8125 22.5 2.8125C30.2344 2.8125 36.5625 9.14062 36.5625 16.875H33.75C33.75 10.6875 28.6875 5.625 22.5 5.625C16.7344 5.625 11.9531 9.98438 11.25 15.6094V16.875H9.98438C5.90625 17.1562 2.8125 20.5312 2.8125 24.6094C2.8125 28.8281 6.32812 32.3438 10.5469 32.3438H22.5V35.1562Z" fill="white"/>
</svg>
