<svg width="35" height="35" viewBox="0 0 35 35" fill="none" xmlns="http://www.w3.org/2000/svg">
<path fill-rule="evenodd" clip-rule="evenodd" d="M5.83398 11.6667C5.02857 11.6667 4.37565 12.3196 4.37565 13.125V27.7083C4.37565 28.5137 5.02857 29.1667 5.83398 29.1667H29.1673C29.9727 29.1667 30.6257 28.5137 30.6257 27.7083V13.125C30.6257 12.3196 29.9727 11.6667 29.1673 11.6667H5.83398ZM1.45898 13.125C1.45898 10.7088 3.41774 8.75 5.83398 8.75H29.1673C31.5836 8.75 33.5423 10.7088 33.5423 13.125V27.7083C33.5423 30.1246 31.5836 32.0833 29.1673 32.0833H5.83398C3.41774 32.0833 1.45898 30.1246 1.45898 27.7083V13.125Z" fill="#4361EE"/>
<path fill-rule="evenodd" clip-rule="evenodd" d="M10.209 7.29166C10.209 4.87541 12.1677 2.91666 14.584 2.91666H20.4173C22.8336 2.91666 24.7923 4.87541 24.7923 7.29166V11.6667H10.209V7.29166ZM14.584 5.83332C13.7786 5.83332 13.1257 6.48624 13.1257 7.29166V8.74999H21.8757V7.29166C21.8757 6.48624 21.2227 5.83332 20.4173 5.83332H14.584Z" fill="#4361EE"/>
<path fill-rule="evenodd" clip-rule="evenodd" d="M2.19336 17.3079L3.64043 14.7755L13.5125 20.4167H21.4879L31.36 14.7755L32.8071 17.3079L22.2625 23.3333H12.7379L2.19336 17.3079Z" fill="#4361EE"/>
</svg>
