<svg width="35" height="35" viewBox="0 0 35 35" fill="none" xmlns="http://www.w3.org/2000/svg">
<g clip-path="url(#clip0_1589_2982)">
<path d="M17.5 21.875C19.9162 21.875 21.875 19.9162 21.875 17.5C21.875 15.0838 19.9162 13.125 17.5 13.125C15.0838 13.125 13.125 15.0838 13.125 17.5C13.125 19.9162 15.0838 21.875 17.5 21.875Z" stroke="#3D67B1" stroke-width="3" stroke-linecap="round" stroke-linejoin="round"/>
<path d="M28.2923 21.8752C28.0982 22.315 28.0403 22.8029 28.1261 23.276C28.2118 23.7491 28.4374 24.1856 28.7736 24.5293L28.8611 24.6168C29.1323 24.8877 29.3474 25.2094 29.4942 25.5635C29.6409 25.9175 29.7165 26.2971 29.7165 26.6804C29.7165 27.0637 29.6409 27.4432 29.4942 27.7973C29.3474 28.1514 29.1323 28.473 28.8611 28.7439C28.5902 29.0151 28.2685 29.2302 27.9144 29.377C27.5604 29.5238 27.1808 29.5993 26.7975 29.5993C26.4142 29.5993 26.0347 29.5238 25.6806 29.377C25.3265 29.2302 25.0049 29.0151 24.734 28.7439L24.6465 28.6564C24.3028 28.3202 23.8663 28.0947 23.3932 28.0089C22.9201 27.9231 22.4322 27.981 21.9923 28.1752C21.561 28.36 21.1931 28.667 20.934 29.0582C20.6749 29.4495 20.5359 29.908 20.534 30.3772V30.6252C20.534 31.3987 20.2267 32.1406 19.6797 32.6876C19.1327 33.2345 18.3909 33.5418 17.6173 33.5418C16.8438 33.5418 16.1019 33.2345 15.5549 32.6876C15.0079 32.1406 14.7007 31.3987 14.7007 30.6252V30.4939C14.6894 30.0112 14.5331 29.5431 14.2522 29.1504C13.9713 28.7576 13.5788 28.4585 13.1257 28.2918C12.6858 28.0977 12.1979 28.0398 11.7248 28.1256C11.2517 28.2114 10.8152 28.4369 10.4715 28.7731L10.384 28.8606C10.1131 29.1318 9.79143 29.3469 9.43735 29.4937C9.08327 29.6405 8.70374 29.716 8.32044 29.716C7.93715 29.716 7.55761 29.6405 7.20353 29.4937C6.84946 29.3469 6.52778 29.1318 6.2569 28.8606C5.98572 28.5897 5.77059 28.268 5.62381 27.9139C5.47703 27.5599 5.40148 27.1803 5.40148 26.797C5.40148 26.4137 5.47703 26.0342 5.62381 25.6801C5.77059 25.3261 5.98572 25.0044 6.2569 24.7335L6.3444 24.646C6.6806 24.3023 6.90613 23.8658 6.99191 23.3927C7.07769 22.9196 7.01978 22.4317 6.82565 21.9918C6.64079 21.5605 6.33384 21.1926 5.94258 20.9335C5.55132 20.6744 5.09284 20.5354 4.62357 20.5335H4.37565C3.6021 20.5335 2.86024 20.2262 2.31326 19.6792C1.76628 19.1322 1.45898 18.3904 1.45898 17.6168C1.45898 16.8433 1.76628 16.1014 2.31326 15.5544C2.86024 15.0075 3.6021 14.7002 4.37565 14.7002H4.5069C4.9896 14.6889 5.45774 14.5326 5.85046 14.2517C6.24318 13.9709 6.54232 13.5783 6.70898 13.1252C6.90311 12.6853 6.96102 12.1974 6.87524 11.7243C6.78946 11.2512 6.56393 10.8147 6.22773 10.471L6.14023 10.3835C5.86905 10.1126 5.65392 9.79094 5.50714 9.43686C5.36036 9.08279 5.28482 8.70325 5.28482 8.31996C5.28482 7.93666 5.36036 7.55712 5.50714 7.20305C5.65392 6.84897 5.86905 6.52729 6.14023 6.25641C6.41111 5.98523 6.73279 5.7701 7.08687 5.62332C7.44095 5.47654 7.82048 5.40099 8.20378 5.40099C8.58707 5.40099 8.96661 5.47654 9.32069 5.62332C9.67476 5.7701 9.99644 5.98523 10.2673 6.25641L10.3548 6.34391C10.6985 6.68011 11.1351 6.90564 11.6081 6.99142C12.0812 7.0772 12.5691 7.01929 13.009 6.82516H13.1257C13.557 6.6403 13.9248 6.33335 14.184 5.94209C14.4431 5.55084 14.5821 5.09235 14.584 4.62308V4.37516C14.584 3.60161 14.8913 2.85975 15.4383 2.31277C15.9852 1.76579 16.7271 1.4585 17.5007 1.4585C18.2742 1.4585 19.0161 1.76579 19.563 2.31277C20.11 2.85975 20.4173 3.60161 20.4173 4.37516V4.50641C20.4192 4.97569 20.5582 5.43417 20.8174 5.82543C21.0765 6.21668 21.4443 6.52363 21.8757 6.7085C22.3155 6.90262 22.8034 6.96053 23.2765 6.87475C23.7496 6.78898 24.1861 6.56345 24.5298 6.22725L24.6173 6.13975C24.8882 5.86857 25.2099 5.65343 25.564 5.50666C25.918 5.35988 26.2976 5.28433 26.6809 5.28433C27.0642 5.28433 27.4437 5.35988 27.7978 5.50666C28.1518 5.65343 28.4735 5.86857 28.7444 6.13975C29.0156 6.41063 29.2307 6.7323 29.3775 7.08638C29.5243 7.44046 29.5998 7.81999 29.5998 8.20329C29.5998 8.58658 29.5243 8.96612 29.3775 9.3202C29.2307 9.67428 29.0156 9.99595 28.7444 10.2668L28.6569 10.3543C28.3207 10.698 28.0952 11.1346 28.0094 11.6076C27.9236 12.0807 27.9815 12.5686 28.1757 13.0085V13.1252C28.3605 13.5565 28.6675 13.9244 29.0587 14.1835C29.45 14.4426 29.9085 14.5816 30.3777 14.5835H30.6257C31.3992 14.5835 32.1411 14.8908 32.688 15.4378C33.235 15.9848 33.5423 16.7266 33.5423 17.5002C33.5423 18.2737 33.235 19.0156 32.688 19.5626C32.1411 20.1095 31.3992 20.4168 30.6257 20.4168H30.4944C30.0251 20.4187 29.5666 20.5578 29.1754 20.8169C28.7841 21.076 28.4772 21.4438 28.2923 21.8752V21.8752Z" stroke="#3D67B1" stroke-width="3" stroke-linecap="round" stroke-linejoin="round"/>
</g>
<defs>
<clipPath id="clip0_1589_2982">
<rect width="35" height="35" fill="white"/>
</clipPath>
</defs>
</svg>
