<svg width="35" height="35" viewBox="0 0 35 35" fill="none" xmlns="http://www.w3.org/2000/svg">
<g clip-path="url(#clip0_970_1604)">
<path d="M17.5 21.875C19.9162 21.875 21.875 19.9162 21.875 17.5C21.875 15.0838 19.9162 13.125 17.5 13.125C15.0838 13.125 13.125 15.0838 13.125 17.5C13.125 19.9162 15.0838 21.875 17.5 21.875Z" stroke="#4361EE" stroke-width="3" stroke-linecap="round" stroke-linejoin="round"/>
<path d="M28.2923 21.875C28.0982 22.3149 28.0403 22.8028 28.1261 23.2759C28.2118 23.7489 28.4374 24.1855 28.7736 24.5292L28.8611 24.6167C29.1323 24.8876 29.3474 25.2092 29.4942 25.5633C29.6409 25.9174 29.7165 26.2969 29.7165 26.6802C29.7165 27.0635 29.6409 27.4431 29.4942 27.7971C29.3474 28.1512 29.1323 28.4729 28.8611 28.7438C28.5902 29.0149 28.2685 29.2301 27.9144 29.3769C27.5604 29.5236 27.1808 29.5992 26.7975 29.5992C26.4142 29.5992 26.0347 29.5236 25.6806 29.3769C25.3265 29.2301 25.0049 29.0149 24.734 28.7438L24.6465 28.6563C24.3028 28.3201 23.8663 28.0945 23.3932 28.0088C22.9201 27.923 22.4322 27.9809 21.9923 28.175C21.561 28.3599 21.1931 28.6668 20.934 29.0581C20.6749 29.4493 20.5359 29.9078 20.534 30.3771V30.625C20.534 31.3986 20.2267 32.1404 19.6797 32.6874C19.1327 33.2344 18.3909 33.5417 17.6173 33.5417C16.8438 33.5417 16.1019 33.2344 15.5549 32.6874C15.0079 32.1404 14.7007 31.3986 14.7007 30.625V30.4938C14.6894 30.0111 14.5331 29.5429 14.2522 29.1502C13.9713 28.7575 13.5788 28.4583 13.1257 28.2917C12.6858 28.0976 12.1979 28.0396 11.7248 28.1254C11.2517 28.2112 10.8152 28.4367 10.4715 28.7729L10.384 28.8604C10.1131 29.1316 9.79143 29.3467 9.43735 29.4935C9.08327 29.6403 8.70374 29.7158 8.32044 29.7158C7.93715 29.7158 7.55761 29.6403 7.20353 29.4935C6.84946 29.3467 6.52778 29.1316 6.2569 28.8604C5.98572 28.5896 5.77059 28.2679 5.62381 27.9138C5.47703 27.5597 5.40148 27.1802 5.40148 26.7969C5.40148 26.4136 5.47703 26.0341 5.62381 25.68C5.77059 25.3259 5.98572 25.0042 6.2569 24.7333L6.3444 24.6458C6.6806 24.3021 6.90613 23.8656 6.99191 23.3925C7.07769 22.9195 7.01978 22.4315 6.82565 21.9917C6.64079 21.5603 6.33384 21.1925 5.94258 20.9334C5.55132 20.6743 5.09284 20.5352 4.62357 20.5333H4.37565C3.6021 20.5333 2.86024 20.2261 2.31326 19.6791C1.76628 19.1321 1.45898 18.3902 1.45898 17.6167C1.45898 16.8431 1.76628 16.1013 2.31326 15.5543C2.86024 15.0073 3.6021 14.7 4.37565 14.7H4.5069C4.9896 14.6887 5.45774 14.5325 5.85046 14.2516C6.24318 13.9707 6.54232 13.5782 6.70898 13.125C6.90311 12.6852 6.96102 12.1972 6.87524 11.7242C6.78946 11.2511 6.56393 10.8145 6.22773 10.4708L6.14023 10.3833C5.86905 10.1125 5.65392 9.79079 5.50714 9.43671C5.36036 9.08263 5.28482 8.7031 5.28482 8.3198C5.28482 7.93651 5.36036 7.55697 5.50714 7.20289C5.65392 6.84882 5.86905 6.52714 6.14023 6.25626C6.41111 5.98508 6.73279 5.76995 7.08687 5.62317C7.44095 5.47639 7.82048 5.40084 8.20378 5.40084C8.58707 5.40084 8.96661 5.47639 9.32069 5.62317C9.67476 5.76995 9.99644 5.98508 10.2673 6.25626L10.3548 6.34376C10.6985 6.67996 11.1351 6.90549 11.6081 6.99127C12.0812 7.07704 12.5691 7.01914 13.009 6.82501H13.1257C13.557 6.64015 13.9248 6.3332 14.184 5.94194C14.4431 5.55068 14.5821 5.0922 14.584 4.62293V4.37501C14.584 3.60146 14.8913 2.8596 15.4383 2.31262C15.9852 1.76563 16.7271 1.45834 17.5007 1.45834C18.2742 1.45834 19.0161 1.76563 19.563 2.31262C20.11 2.8596 20.4173 3.60146 20.4173 4.37501V4.50626C20.4192 4.97553 20.5582 5.43402 20.8174 5.82527C21.0765 6.21653 21.4443 6.52348 21.8757 6.70834C22.3155 6.90247 22.8034 6.96038 23.2765 6.8746C23.7496 6.78882 24.1861 6.56329 24.5298 6.22709L24.6173 6.13959C24.8882 5.86841 25.2099 5.65328 25.564 5.5065C25.918 5.35972 26.2976 5.28417 26.6809 5.28417C27.0642 5.28417 27.4437 5.35972 27.7978 5.5065C28.1518 5.65328 28.4735 5.86841 28.7444 6.13959C29.0156 6.41047 29.2307 6.73215 29.3775 7.08623C29.5243 7.4403 29.5998 7.81984 29.5998 8.20314C29.5998 8.58643 29.5243 8.96597 29.3775 9.32005C29.2307 9.67412 29.0156 9.9958 28.7444 10.2667L28.6569 10.3542C28.3207 10.6979 28.0952 11.1344 28.0094 11.6075C27.9236 12.0806 27.9815 12.5685 28.1757 13.0083V13.125C28.3605 13.5563 28.6675 13.9242 29.0587 14.1833C29.45 14.4424 29.9085 14.5815 30.3777 14.5833H30.6257C31.3992 14.5833 32.1411 14.8906 32.688 15.4376C33.235 15.9846 33.5423 16.7265 33.5423 17.5C33.5423 18.2736 33.235 19.0154 32.688 19.5624C32.1411 20.1094 31.3992 20.4167 30.6257 20.4167H30.4944C30.0251 20.4186 29.5666 20.5576 29.1754 20.8167C28.7841 21.0758 28.4772 21.4437 28.2923 21.875V21.875Z" stroke="#4361EE" stroke-width="3" stroke-linecap="round" stroke-linejoin="round"/>
</g>
<defs>
<clipPath id="clip0_970_1604">
<rect width="35" height="35" fill="white"/>
</clipPath>
</defs>
</svg>
