<svg width="35" height="35" viewBox="0 0 35 35" fill="none" xmlns="http://www.w3.org/2000/svg">
<path fill-rule="evenodd" clip-rule="evenodd" d="M6.51068 22.5522C7.87813 21.1847 9.7328 20.4165 11.6667 20.4165H23.3333C25.2672 20.4165 27.1219 21.1847 28.4893 22.5522C29.8568 23.9196 30.625 25.7743 30.625 27.7082V30.6248C30.625 31.4303 29.9721 32.0832 29.1667 32.0832C28.3613 32.0832 27.7083 31.4303 27.7083 30.6248V27.7082C27.7083 26.5478 27.2474 25.4351 26.4269 24.6146C25.6065 23.7941 24.4937 23.3332 23.3333 23.3332H11.6667C10.5063 23.3332 9.39355 23.7941 8.57307 24.6146C7.7526 25.4351 7.29167 26.5478 7.29167 27.7082V30.6248C7.29167 31.4303 6.63875 32.0832 5.83333 32.0832C5.02792 32.0832 4.375 31.4303 4.375 30.6248V27.7082C4.375 25.7743 5.14323 23.9196 6.51068 22.5522Z" fill="#3D67B1"/>
<path fill-rule="evenodd" clip-rule="evenodd" d="M17.5007 5.83317C15.0844 5.83317 13.1257 7.79192 13.1257 10.2082C13.1257 12.6244 15.0844 14.5832 17.5007 14.5832C19.9169 14.5832 21.8757 12.6244 21.8757 10.2082C21.8757 7.79192 19.9169 5.83317 17.5007 5.83317ZM10.209 10.2082C10.209 6.18109 13.4736 2.9165 17.5007 2.9165C21.5277 2.9165 24.7923 6.18109 24.7923 10.2082C24.7923 14.2352 21.5277 17.4998 17.5007 17.4998C13.4736 17.4998 10.209 14.2352 10.209 10.2082Z" fill="#3D67B1"/>
</svg>
