<svg width="35" height="35" viewBox="0 0 35 35" fill="none" xmlns="http://www.w3.org/2000/svg">
<path fill-rule="evenodd" clip-rule="evenodd" d="M6.51068 22.5523C7.87813 21.1849 9.7328 20.4167 11.6667 20.4167H23.3333C25.2672 20.4167 27.1219 21.1849 28.4893 22.5523C29.8568 23.9198 30.625 25.7745 30.625 27.7083V30.625C30.625 31.4304 29.9721 32.0833 29.1667 32.0833C28.3613 32.0833 27.7083 31.4304 27.7083 30.625V27.7083C27.7083 26.548 27.2474 25.4352 26.4269 24.6147C25.6065 23.7943 24.4937 23.3333 23.3333 23.3333H11.6667C10.5063 23.3333 9.39355 23.7943 8.57307 24.6147C7.7526 25.4352 7.29167 26.548 7.29167 27.7083V30.625C7.29167 31.4304 6.63875 32.0833 5.83333 32.0833C5.02792 32.0833 4.375 31.4304 4.375 30.625V27.7083C4.375 25.7745 5.14323 23.9198 6.51068 22.5523Z" fill="#4361EE"/>
<path fill-rule="evenodd" clip-rule="evenodd" d="M17.5007 5.83332C15.0844 5.83332 13.1257 7.79208 13.1257 10.2083C13.1257 12.6246 15.0844 14.5833 17.5007 14.5833C19.9169 14.5833 21.8757 12.6246 21.8757 10.2083C21.8757 7.79208 19.9169 5.83332 17.5007 5.83332ZM10.209 10.2083C10.209 6.18125 13.4736 2.91666 17.5007 2.91666C21.5277 2.91666 24.7923 6.18125 24.7923 10.2083C24.7923 14.2354 21.5277 17.5 17.5007 17.5C13.4736 17.5 10.209 14.2354 10.209 10.2083Z" fill="#4361EE"/>
</svg>
