<svg width="45" height="45" viewBox="0 0 45 45" fill="none" xmlns="http://www.w3.org/2000/svg">
<path d="M15.7837 33.75H7.03125C6.65829 33.75 6.3006 33.6018 6.03688 33.3381C5.77316 33.0744 5.625 32.7167 5.625 32.3438V8.4375H2.8125C2.43954 8.4375 2.08185 8.28934 1.81813 8.02562C1.55441 7.7619 1.40625 7.40421 1.40625 7.03125C1.40625 6.65829 1.55441 6.3006 1.81813 6.03688C2.08185 5.77316 2.43954 5.625 2.8125 5.625H42.1875C42.5605 5.625 42.9181 5.77316 43.1819 6.03688C43.4456 6.3006 43.5938 6.65829 43.5938 7.03125C43.5938 7.40421 43.4456 7.7619 43.1819 8.02562C42.9181 8.28934 42.5605 8.4375 42.1875 8.4375H39.375V32.3438C39.375 32.7167 39.2268 33.0744 38.9631 33.3381C38.6994 33.6018 38.3417 33.75 37.9688 33.75H29.2331L34.1044 42.1875H30.8587L25.9875 33.75H19.0294L14.1581 42.1875H10.9125L15.7837 33.75ZM36.5625 8.4375H8.4375V30.9375H36.5625V8.4375ZM15.0581 23.4956C14.9274 23.6264 14.7722 23.7301 14.6013 23.8008C14.4305 23.8716 14.2474 23.908 14.0625 23.908C13.8776 23.908 13.6945 23.8716 13.5237 23.8008C13.3528 23.7301 13.1976 23.6264 13.0669 23.4956C12.9361 23.3649 12.8324 23.2097 12.7617 23.0388C12.6909 22.868 12.6545 22.6849 12.6545 22.5C12.6545 22.3151 12.6909 22.132 12.7617 21.9612C12.8324 21.7903 12.9361 21.6351 13.0669 21.5044L19.5553 15.0188L25.0678 19.1531L29.8406 13.185C29.9523 13.031 30.0941 12.9013 30.2574 12.8037C30.4208 12.706 30.6022 12.6426 30.7907 12.6171C30.9793 12.5917 31.171 12.6047 31.3544 12.6555C31.5377 12.7063 31.7088 12.7938 31.8574 12.9126C32.006 13.0315 32.1289 13.1792 32.2187 13.347C32.3085 13.5147 32.3633 13.6989 32.3799 13.8884C32.3964 14.078 32.3743 14.2689 32.3149 14.4496C32.2555 14.6304 32.1601 14.7972 32.0344 14.94L25.56 23.0372L19.8197 18.7312L15.0581 23.4928V23.4956Z" fill="white"/>
</svg>
