<svg width="45" height="45" viewBox="0 0 45 45" fill="none" xmlns="http://www.w3.org/2000/svg">
<path d="M34.5938 34.3125L38.25 37.9688L34.5938 41.625L36.5625 43.5938L42.1875 37.9688L36.5625 32.3438L34.5938 34.3125ZM31.5 34.3125L27.8437 37.9688L31.5 41.625L29.5312 43.5938L23.9062 37.9688L29.5312 32.3438L31.5 34.3125Z" fill="white"/>
<path d="M15.4688 12.6562C16.2454 12.6562 16.875 12.0267 16.875 11.25C16.875 10.4733 16.2454 9.84375 15.4688 9.84375C14.6921 9.84375 14.0625 10.4733 14.0625 11.25C14.0625 12.0267 14.6921 12.6562 15.4688 12.6562Z" fill="white"/>
<path d="M15.4688 23.9062C16.2454 23.9062 16.875 23.2767 16.875 22.5C16.875 21.7233 16.2454 21.0938 15.4688 21.0938C14.6921 21.0938 14.0625 21.7233 14.0625 22.5C14.0625 23.2767 14.6921 23.9062 15.4688 23.9062Z" fill="white"/>
<path d="M15.4688 35.1562C16.2454 35.1562 16.875 34.5267 16.875 33.75C16.875 32.9733 16.2454 32.3438 15.4688 32.3438C14.6921 32.3438 14.0625 32.9733 14.0625 33.75C14.0625 34.5267 14.6921 35.1562 15.4688 35.1562Z" fill="white"/>
<path d="M33.75 4.21875H11.25C9.70312 4.21875 8.4375 5.48438 8.4375 7.03125V37.9688C8.4375 39.5156 9.70312 40.7812 11.25 40.7812H21.0938V37.9688H11.25V29.5312H36.5625V7.03125C36.5625 5.48438 35.2969 4.21875 33.75 4.21875ZM33.75 26.7188H11.25V18.2812H33.75V26.7188ZM33.75 15.4688H11.25V7.03125H33.75V15.4688Z" fill="white"/>
</svg>
