<svg width="28" height="28" viewBox="0 0 28 28" fill="none" xmlns="http://www.w3.org/2000/svg">
<path d="M18.2499 16.5C18.051 16.5 17.8602 16.579 17.7196 16.7197C17.5789 16.8603 17.4999 17.0511 17.4999 17.25C17.4999 17.4489 17.5789 17.6397 17.7196 17.7803C17.8602 17.921 18.051 18 18.2499 18H21.7499C21.9488 18 22.1396 17.921 22.2802 17.7803C22.4209 17.6397 22.4999 17.4489 22.4999 17.25C22.4999 17.0511 22.4209 16.8603 22.2802 16.7197C22.1396 16.579 21.9488 16.5 21.7499 16.5H18.2499ZM2.00391 8.75C2.00391 7.75544 2.39899 6.80161 3.10226 6.09835C3.80552 5.39509 4.75934 5 5.75391 5H22.2499C23.2445 5 24.1983 5.39509 24.9016 6.09835C25.6048 6.80161 25.9999 7.75544 25.9999 8.75V19.25C25.9999 20.2446 25.6048 21.1984 24.9016 21.9017C24.1983 22.6049 23.2445 23 22.2499 23H5.75491C4.76034 23 3.80652 22.6049 3.10326 21.9017C2.39999 21.1984 2.00491 20.2446 2.00491 19.25V8.75H2.00391ZM5.75391 6.5C5.15717 6.5 4.58487 6.73705 4.16292 7.15901C3.74096 7.58097 3.50391 8.15326 3.50391 8.75V9.5H24.4999V8.75C24.4999 8.15326 24.2629 7.58097 23.8409 7.15901C23.4189 6.73705 22.8466 6.5 22.2499 6.5H5.75491H5.75391ZM3.50391 19.25C3.50391 19.8467 3.74096 20.419 4.16292 20.841C4.58487 21.2629 5.15717 21.5 5.75391 21.5H22.2499C22.8466 21.5 23.4189 21.2629 23.8409 20.841C24.2629 20.419 24.4999 19.8467 24.4999 19.25V11H3.50491V19.25H3.50391Z" fill="#010B39"/>
</svg>
