<svg width="26" height="26" viewBox="0 0 26 26" fill="none" xmlns="http://www.w3.org/2000/svg">
<path d="M25.15 13.3787L25.15 13.3787V13.375C25.15 13.3435 25.1443 13.3172 25.1399 13.3C25.1379 13.2919 25.1365 13.2868 25.1356 13.2834C25.1368 13.2484 25.1393 13.2132 25.142 13.175L25.143 13.1607C25.1465 13.1109 25.15 13.0564 25.15 13C25.15 6.30066 19.6993 0.85 13 0.85C6.30066 0.85 0.85 6.30066 0.85 13C0.85 13.0564 0.853549 13.1109 0.857019 13.1607C0.857355 13.1655 0.857689 13.1703 0.85802 13.175C0.8607 13.2132 0.863171 13.2485 0.864445 13.2834C0.863482 13.2868 0.862132 13.2919 0.860075 13.3C0.855735 13.3172 0.85 13.3435 0.85 13.375C0.85 13.4342 0.862597 13.4863 0.876557 13.5291C1.15644 19.9818 6.47851 25.15 13 25.15C19.5211 25.15 24.8429 19.9825 25.1234 13.5303C25.1397 13.4814 25.1487 13.4304 25.15 13.3787ZM10.3385 9.20358C11.2196 9.33312 12.109 9.39877 12.9998 9.4L13.0002 9.4C13.891 9.39877 14.7804 9.33312 15.6615 9.20358C15.7758 10.3277 15.8448 11.5457 15.8497 12.85H10.1503C10.1552 11.5457 10.2242 10.3277 10.3385 9.20358ZM10.1633 13.9H15.8359C15.8158 14.8674 15.7573 15.8336 15.6606 16.7964C14.7798 16.6668 13.8906 16.6012 13.0002 16.6L12.9998 16.6C12.1091 16.6012 11.2197 16.6668 10.3386 16.7964C10.2416 15.8336 10.1832 14.8674 10.1633 13.9ZM20.317 13.9007C20.2414 15.3106 19.9919 16.6443 19.5988 17.8568C18.659 17.4773 17.6864 17.1848 16.6932 16.9829C16.7984 15.978 16.8626 14.9397 16.8864 13.9007H20.317ZM20.5564 18.2772C21.006 16.9354 21.2875 15.4588 21.3669 13.9H24.0506C23.8992 15.8076 23.2533 17.6431 22.1766 19.2252C21.66 18.8706 21.1186 18.5538 20.5564 18.2772ZM10.4598 17.8405C11.3008 17.715 12.1498 17.6514 13.0002 17.65C13.8598 17.65 14.7097 17.7177 15.5395 17.8406C15.2794 19.7666 14.8761 21.3345 14.4142 22.4242C14.1772 22.9833 13.9278 23.4092 13.6799 23.6928C13.4299 23.9787 13.1996 24.1 13 24.1C12.8004 24.1 12.5701 23.9787 12.3201 23.6928C12.0722 23.4092 11.8228 22.9833 11.5857 22.4242C11.1237 21.3344 10.7202 19.7665 10.4598 17.8405ZM9.43463 18.0263C9.75049 20.3418 10.2925 22.4037 11.0596 23.7017C9.26802 22.9571 7.73794 21.1999 6.76461 18.8418C7.62829 18.4902 8.52192 18.2173 9.43463 18.0263ZM19.2363 18.8415C18.2629 21.1999 16.7327 22.9572 14.9409 23.7018C15.7075 22.4038 16.2495 20.3421 16.566 18.0266C17.5015 18.224 18.3965 18.498 19.2363 18.8415ZM16.8997 12.85C16.8945 11.5634 16.8233 10.2638 16.6931 9.01757C17.7084 8.80905 18.6833 8.51555 19.5989 8.14425C20.062 9.57011 20.3341 11.1627 20.3493 12.85H16.8997ZM16.5661 7.97375C16.2497 5.65849 15.7083 3.59616 14.9408 2.29845C16.7322 3.04318 18.2622 4.80025 19.2354 7.1583C18.3721 7.51013 17.4786 7.78306 16.5661 7.97375ZM15.5402 8.15934C14.7097 8.28231 13.8596 8.35 13 8.35C12.1404 8.35 11.2903 8.28231 10.4598 8.15934C10.7203 6.23342 11.1237 4.66554 11.5857 3.57583C11.8228 3.01668 12.0722 2.59077 12.3201 2.30723C12.5701 2.02126 12.8004 1.9 13 1.9C13.1996 1.9 13.4299 2.02126 13.6799 2.30723C13.9278 2.59077 14.1772 3.01668 14.4143 3.57583C14.8763 4.66554 15.2797 6.23342 15.5402 8.15934ZM6.76386 7.15823C7.73724 4.79994 9.26741 3.04277 11.0591 2.29819C10.2925 3.59621 9.75043 5.65808 9.43392 7.97369C8.52122 7.78263 7.62759 7.50971 6.76386 7.15823ZM6.40106 8.14359C7.31685 8.5155 8.29178 8.80843 9.30698 9.0175C9.17465 10.2908 9.10568 11.5699 9.10034 12.85H5.65068C5.66593 11.1627 5.93798 9.57012 6.40106 8.14359ZM5.68302 13.9H9.11363C9.13742 14.9391 9.20162 15.9776 9.30684 16.9832C8.29161 17.1917 7.31675 17.4852 6.40111 17.8565C6.00804 16.644 5.75861 15.3104 5.68302 13.9ZM5.44294 18.2772C4.8811 18.5541 4.33988 18.8709 3.82345 19.2252C2.74661 17.6431 2.10072 15.8077 1.94943 13.9H4.63311C4.71248 15.4589 4.994 16.9354 5.44294 18.2772ZM8.25652 23.0216C6.79112 22.3268 5.49227 21.3189 4.45352 20.0657C4.88828 19.7682 5.34225 19.4998 5.81245 19.2623C6.43299 20.7495 7.26586 22.0352 8.25652 23.0216ZM21.5463 20.0653C20.508 21.3186 19.2093 22.3264 17.744 23.0208C18.7349 22.0346 19.5672 20.7485 20.1876 19.2613C20.6677 19.5033 21.119 19.7742 21.5463 20.0653ZM21.3994 12.85C21.3836 11.0136 21.0785 9.2785 20.5571 7.72281C21.1322 7.43973 21.6718 7.12115 22.1775 6.77454C23.4016 8.56657 24.07 10.68 24.099 12.85H21.3994ZM21.5469 5.93397C21.1197 6.22511 20.6684 6.49601 20.1884 6.73795C19.568 5.25105 18.7355 3.96517 17.7451 2.97902C19.2098 3.67396 20.5082 4.68151 21.5469 5.93397ZM4.4535 5.93429C5.492 4.68132 6.7907 3.67365 8.25595 2.9792C7.26516 3.96538 6.43289 5.25137 5.81248 6.73839C5.34229 6.50054 4.88831 6.23192 4.4535 5.93429ZM1.90101 12.85C1.93119 10.6004 2.63931 8.51378 3.82342 6.77479C4.3399 7.12936 4.88127 7.44626 5.44333 7.72301C4.89516 9.37725 4.61065 11.1074 4.60022 12.85H1.90101Z" fill="#010B39" stroke="#010B39" stroke-width="0.3"/>
</svg>
