<svg width="23" height="23" viewBox="0 0 23 23" fill="none" xmlns="http://www.w3.org/2000/svg">
<path d="M9.10352 9.58329C9.54399 9.58329 9.98015 9.49654 10.3871 9.32797C10.794 9.15941 11.1638 8.91234 11.4753 8.60088C11.7867 8.28942 12.0338 7.91966 12.2024 7.51271C12.3709 7.10576 12.4577 6.6696 12.4577 6.22913C12.4577 5.78865 12.3709 5.35249 12.2024 4.94554C12.0338 4.5386 11.7867 4.16884 11.4753 3.85737C11.1638 3.54591 10.794 3.29884 10.3871 3.13028C9.98015 2.96172 9.54399 2.87496 9.10352 2.87496C8.21394 2.87496 7.36079 3.22834 6.73176 3.85737C6.10273 4.4864 5.74935 5.33955 5.74935 6.22913C5.74935 7.11871 6.10273 7.97185 6.73176 8.60088C7.36079 9.22991 8.21394 9.58329 9.10352 9.58329V9.58329ZM15.8118 3.83329C15.8118 3.83329 16.89 5.98954 15.8118 8.62496V3.83329ZM19.166 1.91663C19.166 1.91663 21.3223 5.79788 19.166 10.5416V1.91663ZM1.91602 19.55V20.125H16.291V19.55C16.291 17.4033 16.291 16.33 15.8732 15.5096C15.5057 14.7884 14.9193 14.202 14.198 13.8345C13.3777 13.4166 12.3043 13.4166 10.1577 13.4166H8.04935C5.90268 13.4166 4.82935 13.4166 4.00902 13.8345C3.28776 14.202 2.70136 14.7884 2.33385 15.5096C1.91602 16.33 1.91602 17.4033 1.91602 19.55Z" stroke="#010B39" stroke-width="1.7" stroke-linecap="round" stroke-linejoin="round"/>
</svg>
