<svg width="26" height="26" viewBox="0 0 26 26" fill="none" xmlns="http://www.w3.org/2000/svg">
<path d="M13.3038 11.7795C12.4915 11.7709 11.6999 11.5223 11.0286 11.0647C10.3574 10.6072 9.83648 9.96135 9.53154 9.20841C9.22659 8.45548 9.15122 7.62915 9.31492 6.83347C9.47863 6.03779 9.87408 5.30833 10.4515 4.73693C11.0289 4.16553 11.7625 3.77774 12.5598 3.62238C13.3572 3.46702 14.1827 3.55103 14.9324 3.86384C15.6821 4.17666 16.3225 4.70429 16.7729 5.3803C17.2234 6.05631 17.4638 6.85048 17.4638 7.66283C17.4562 8.75979 17.0141 9.809 16.2343 10.5806C15.4546 11.3522 14.4008 11.7833 13.3038 11.7795ZM13.3038 4.9906C12.7772 4.99915 12.2649 5.1631 11.8312 5.46187C11.3975 5.76064 11.0617 6.18091 10.8661 6.66988C10.6705 7.15886 10.6237 7.69474 10.7317 8.21021C10.8396 8.72568 11.0975 9.19776 11.4728 9.56716C11.8482 9.93655 12.3244 10.1868 12.8415 10.2864C13.3587 10.3861 13.8937 10.3307 14.3795 10.1272C14.8653 9.92376 15.2801 9.58129 15.5718 9.14283C15.8636 8.70437 16.0193 8.18948 16.0194 7.66283C16.0117 6.94896 15.7218 6.26714 15.213 5.7664C14.7041 5.26567 14.0177 4.98675 13.3038 4.9906Z" fill="#010B39"/>
<path d="M13.3035 11.7795C12.4912 11.7709 11.6995 11.5223 11.0283 11.0647C10.357 10.6072 9.83614 9.96135 9.53119 9.20841C9.22625 8.45548 9.15088 7.62915 9.31458 6.83347C9.47829 6.03779 9.87374 5.30833 10.4512 4.73693C11.0286 4.16553 11.7621 3.77774 12.5595 3.62238C13.3568 3.46702 14.1823 3.55103 14.932 3.86384C15.6817 4.17666 16.3221 4.70429 16.7726 5.3803C17.223 6.05631 17.4634 6.85048 17.4635 7.66283C17.4558 8.75979 17.0137 9.809 16.234 10.5806C15.4542 11.3522 14.4004 11.7833 13.3035 11.7795ZM13.3035 4.9906C12.7769 4.99915 12.2646 5.1631 11.8308 5.46187C11.3971 5.76064 11.0614 6.18091 10.8658 6.66988C10.6701 7.15886 10.6234 7.69474 10.7313 8.21021C10.8393 8.72568 11.0971 9.19776 11.4725 9.56716C11.8479 9.93655 12.3241 10.1868 12.8412 10.2864C13.3583 10.3861 13.8934 10.3307 14.3792 10.1272C14.8649 9.92376 15.2797 9.58129 15.5715 9.14283C15.8633 8.70437 16.0189 8.18948 16.019 7.66283C16.0114 6.94896 15.7215 6.26714 15.2126 5.7664C14.7038 5.26567 14.0174 4.98675 13.3035 4.9906ZM15.824 12.7473C12.6206 12.1899 9.32283 12.6972 6.43513 14.1917C6.23014 14.3055 6.06041 14.4735 5.94449 14.6773C5.82858 14.8811 5.77095 15.1129 5.77791 15.3473V17.9184C5.77791 18.1099 5.854 18.2936 5.98944 18.4291C6.12488 18.5645 6.30858 18.6406 6.50013 18.6406C6.69167 18.6406 6.87537 18.5645 7.01082 18.4291C7.14626 18.2936 7.22235 18.1099 7.22235 17.9184V15.4412C9.90011 14.0976 12.9452 13.6712 15.889 14.2278L15.824 12.7473Z" fill="#010B39"/>
<path d="M23.8325 15.8889H18.9936V14.82C18.9936 14.6285 18.9175 14.4448 18.782 14.3093C18.6466 14.1739 18.4629 14.0978 18.2714 14.0978C18.0798 14.0978 17.8961 14.1739 17.7607 14.3093C17.6252 14.4448 17.5491 14.6285 17.5491 14.82V15.8889H12.2769C12.0854 15.8889 11.9017 15.965 11.7662 16.1004C11.6308 16.2359 11.5547 16.4196 11.5547 16.6111V23.8333C11.5547 24.0249 11.6308 24.2086 11.7662 24.344C11.9017 24.4795 12.0854 24.5556 12.2769 24.5556H23.8325C24.024 24.5556 24.2077 24.4795 24.3432 24.344C24.4786 24.2086 24.5547 24.0249 24.5547 23.8333V16.6111C24.5547 16.4196 24.4786 16.2359 24.3432 16.1004C24.2077 15.965 24.024 15.8889 23.8325 15.8889ZM23.1102 23.1111H12.9991V17.3333H17.5491V17.6294C17.5491 17.821 17.6252 18.0047 17.7607 18.1401C17.8961 18.2756 18.0798 18.3517 18.2714 18.3517C18.4629 18.3517 18.6466 18.2756 18.782 18.1401C18.9175 18.0047 18.9936 17.821 18.9936 17.6294V17.3333H23.1102V23.1111Z" fill="#010B39"/>
<path d="M15.7525 19.8034H20.057V20.8145H15.7525V19.8034ZM7.82976 8.84002C5.83024 8.87347 3.8654 9.36777 2.08809 10.2845C1.8948 10.3866 1.73289 10.5393 1.61967 10.7263C1.50645 10.9133 1.44618 11.1275 1.44531 11.3461V13.585C1.44531 13.7766 1.5214 13.9603 1.65685 14.0957C1.79229 14.2311 1.97599 14.3072 2.16753 14.3072C2.35908 14.3072 2.54278 14.2311 2.67822 14.0957C2.81367 13.9603 2.88976 13.7766 2.88976 13.585V11.4906C4.58792 10.6453 6.46805 10.2311 8.3642 10.2845C8.11612 9.83182 7.93604 9.34512 7.82976 8.84002ZM23.9136 10.2772C22.3196 9.44106 20.5677 8.94896 18.7714 8.8328C18.6656 9.33701 18.4881 9.82344 18.2442 10.2772C19.9364 10.3177 21.5987 10.7321 23.112 11.4906V13.585C23.112 13.7766 23.1881 13.9603 23.3235 14.0957C23.459 14.2311 23.6427 14.3072 23.8342 14.3072C24.0257 14.3072 24.2094 14.2311 24.3449 14.0957C24.4803 13.9603 24.5564 13.7766 24.5564 13.585V11.3461C24.5569 11.1263 24.4972 10.9105 24.3839 10.7221C24.2706 10.5338 24.108 10.3799 23.9136 10.2772ZM7.69976 7.6628V7.17891C7.13398 7.10319 6.6192 6.81219 6.26259 6.36648C5.90597 5.92076 5.73499 5.35468 5.78524 4.78608C5.8355 4.21748 6.10311 3.69016 6.53237 3.3139C6.96163 2.93765 7.51947 2.74144 8.08976 2.76613C8.68293 2.76505 9.25307 2.9957 9.67865 3.40891C10.0541 3.0992 10.4665 2.83721 10.9064 2.62891C10.415 2.06388 9.76396 1.66101 9.03903 1.4734C8.3141 1.28579 7.54934 1.32224 6.84554 1.57796C6.14175 1.83367 5.53195 2.29664 5.09653 2.90585C4.66111 3.51505 4.4205 4.24189 4.40642 4.99057C4.42158 5.9069 4.77779 6.78466 5.40547 7.45241C6.03316 8.12016 6.88723 8.52993 7.80087 8.60168C7.7396 8.29231 7.70577 7.97812 7.69976 7.6628ZM17.8903 1.32168C17.394 1.32179 16.9027 1.42085 16.4451 1.61306C15.9875 1.80527 15.5728 2.08678 15.2253 2.44113C15.7136 2.61805 16.1753 2.86105 16.5975 3.16335C16.9347 2.9293 17.3291 2.79114 17.7386 2.76361C18.1481 2.73607 18.5574 2.8202 18.9229 3.00701C19.2883 3.19381 19.5963 3.47631 19.8138 3.82436C20.0313 4.17242 20.1503 4.57298 20.1581 4.98335C20.1535 5.40487 20.0297 5.81647 19.8009 6.17052C19.5721 6.52457 19.2477 6.80658 18.8653 6.98391C18.8944 7.20661 18.9088 7.43098 18.9086 7.65557C18.9067 7.94588 18.8826 8.23562 18.8364 8.52224C19.6232 8.31997 20.3211 7.86327 20.8213 7.22322C21.3216 6.58317 21.5963 5.79569 21.6025 4.98335C21.593 4.0064 21.1972 3.07293 20.5017 2.38684C19.8061 1.70076 18.8673 1.31782 17.8903 1.32168Z" fill="#010B39"/>
</svg>
