<svg width="36" height="32" viewBox="0 0 36 32" fill="none" xmlns="http://www.w3.org/2000/svg">
<path d="M30.2029 9.05H30.2529V9V5V4.95H30.2029H19.0165H18.9665V5V9V9.05H19.0165H30.2029ZM16.7792 27.05H16.8292V27V23V22.95H16.7792H12.3046H12.2546V23V27V27.05H12.3046H16.7792ZM16.7792 21.05H16.8292V21V17V16.95H16.7792H12.3046H12.2546V17V21V21.05H12.3046H16.7792ZM10.0673 21.05H10.1173V21V17V16.95H10.0673H5.59276H5.54276V17V21V21.05H5.59276H10.0673ZM12.2546 15V15.05H12.3046H23.4911H23.5411V15V11V10.95H23.4911H12.3046H12.2546V11V15ZM12.2546 9V9.05H12.3046H16.7792H16.8292V9V5V4.95H16.7792H12.3046H12.2546V5V9ZM25.7284 10.95H25.6784V11V15V15.05H25.7284H30.2029H30.2529V15V11V10.95H30.2029H25.7284ZM10.1173 5V4.95H10.0673H5.59276H5.54276V5V15V15.05H5.59276H10.0673H10.1173V15V5ZM5.59276 22.95H5.54276V23V27V27.05H5.59276H10.0673H10.1173V27V23V22.95H10.0673H5.59276ZM18.9665 27V27.05H19.0165H30.2052H30.2552L30.2552 27L30.254 17L30.254 16.95H30.204H19.0165H18.9665V17V27ZM4.04473 3.62365C4.45449 3.25735 5.01117 3.05052 5.5928 3.05L30.2029 3.05C30.7845 3.05052 31.3412 3.25735 31.751 3.62365C32.1605 3.98979 32.3896 4.48495 32.3902 5.00006V26.9999C32.3894 27.515 32.1601 28.01 31.7506 28.3761C31.3409 28.7423 30.7844 28.9492 30.2029 28.95H5.5928C5.01117 28.9495 4.45449 28.7427 4.04473 28.3764C3.63515 28.0102 3.40604 27.515 3.40547 26.9999L3.40547 5.00003C3.40605 4.48493 3.63516 3.98978 4.04473 3.62365Z" fill="url(#paint0_linear_1020_2255)" stroke="white" stroke-width="0.1"/>
<defs>
<linearGradient id="paint0_linear_1020_2255" x1="17.8978" y1="3" x2="17.8978" y2="29" gradientUnits="userSpaceOnUse">
<stop stop-color="#00A8FF"/>
<stop offset="1" stop-color="#4361EE"/>
</linearGradient>
</defs>
</svg>
