<svg width="36" height="28" viewBox="0 0 36 28" fill="none" xmlns="http://www.w3.org/2000/svg">
<g clip-path="url(#clip0_1020_2247)">
<mask id="path-1-outside-1_1020_2247" maskUnits="userSpaceOnUse" x="-1" y="4.25" width="24" height="25" fill="black">
<rect fill="white" x="-1" y="4.25" width="24" height="25"/>
<path d="M3.16457 19.005C3.31543 19.0418 3.52029 19.2316 3.57943 19.4049L3.87943 20.1434C3.94714 20.2851 3.93429 20.566 3.85371 20.7008L2.65629 22.6993C2.4 23.128 2.45314 23.7353 2.79771 24.129L3.81171 25.1633C4.16486 25.4835 4.788 25.5413 5.19429 25.2901L7.152 24.0678C7.27457 23.9908 7.53771 23.9636 7.722 24.052L8.44457 24.3565C8.59029 24.4081 8.77629 24.6164 8.81229 24.7704L9.34971 27.0489C9.46371 27.5319 9.91543 27.9291 10.4006 27.9746C10.4006 27.9746 10.698 28.0026 11.1437 28.0026C11.5894 28.0026 11.8869 27.9746 11.8877 27.9746C12.1333 27.9451 12.3646 27.8411 12.5517 27.6761C12.7389 27.5111 12.8733 27.2926 12.9377 27.0489L13.476 24.7704C13.512 24.6173 13.6971 24.4081 13.8669 24.3478L14.5903 24.0415C14.718 23.9776 15.0137 23.9908 15.1363 24.0678L17.094 25.2901C17.2663 25.3978 17.472 25.4546 17.6906 25.4546C17.9863 25.4546 18.2726 25.3488 18.4946 25.1466L19.5077 24.1115C19.6683 23.918 19.7665 23.6785 19.7887 23.4259C19.811 23.1733 19.7562 22.9198 19.632 22.7001L18.4346 20.7016C18.354 20.5669 18.3411 20.286 18.4191 20.1198L18.7174 19.3821C18.768 19.2334 18.972 19.0435 19.1229 19.0068L21.3549 18.4581C21.5936 18.3921 21.8076 18.2547 21.9692 18.0635C22.1308 17.8723 22.2327 17.6362 22.2617 17.3854C22.2617 17.3854 22.2891 17.0818 22.2891 16.6268C22.2891 16.1718 22.2617 15.8681 22.2617 15.8673C22.2326 15.6165 22.1307 15.3804 21.9691 15.1892C21.8075 14.9981 21.5936 14.8606 21.3549 14.7945L19.1237 14.2468C18.9729 14.21 18.768 14.0201 18.7089 13.8469L18.4089 13.1084C18.3411 12.9666 18.354 12.6858 18.4346 12.551L19.632 10.5525C19.8883 10.1238 19.8351 9.5165 19.4906 9.12275L18.4766 8.0885C18.1226 7.76738 17.4986 7.70963 17.094 7.96163L15.1363 9.184C15.0137 9.26013 14.7497 9.289 14.5663 9.19975L13.8437 8.89525C13.698 8.84363 13.5129 8.63538 13.4769 8.48138L12.9386 6.20288C12.8739 5.95914 12.7393 5.74072 12.552 5.57574C12.3647 5.41076 12.1334 5.30676 11.8877 5.27713C11.886 5.278 11.5886 5.25 11.1429 5.25C10.6971 5.25 10.3997 5.278 10.3989 5.278C10.1532 5.30775 9.92194 5.41179 9.73469 5.57676C9.54743 5.74172 9.41277 5.96007 9.348 6.20375L8.81143 8.4805C8.77543 8.6345 8.58943 8.84362 8.41971 8.904L7.69629 9.21025C7.56771 9.27413 7.27286 9.26013 7.15029 9.184L5.19343 7.96163C4.788 7.70963 4.17771 7.75337 3.79286 8.10512L2.77971 9.14025C2.6191 9.33378 2.52096 9.57323 2.49871 9.82585C2.47646 10.0785 2.5312 10.332 2.65543 10.5516L3.85286 12.5501C3.93343 12.6849 3.94629 12.9658 3.86829 13.132L3.57 13.8696C3.51943 14.0184 3.31543 14.2083 3.16457 14.245L0.932571 14.7936C0.693806 14.8596 0.479851 14.9971 0.318238 15.1883C0.156626 15.3794 0.0547479 15.6156 0.0257143 15.8664C0.0274286 15.8664 0 16.17 0 16.625C0 17.08 0.0274286 17.3836 0.0274286 17.3845C0.0565739 17.6352 0.158491 17.8713 0.320087 18.0625C0.481683 18.2537 0.695575 18.3911 0.934286 18.4573L3.16457 19.005ZM0.857143 16.625C0.857143 16.2243 0.880286 15.9539 0.881143 15.9451C0.894799 15.877 0.925277 15.8136 0.969682 15.761C1.01409 15.7083 1.07094 15.6681 1.13486 15.6441L3.36686 15.0955C3.79971 14.9888 4.236 14.5845 4.37143 14.1794L4.64914 13.4908C4.84457 13.0821 4.81714 12.4819 4.58486 12.0934L3.38743 10.0958C3.33 9.99863 3.34629 9.80613 3.40286 9.7405L4.38086 8.74125C4.45886 8.67038 4.65771 8.65287 4.74686 8.708L6.70457 9.93038C7.07571 10.1623 7.71171 10.178 8.04857 10.0074L8.724 9.72213C9.14486 9.57425 9.54086 9.12888 9.64543 8.68613L10.182 6.4085C10.2053 6.34305 10.2446 6.28479 10.2962 6.23928C10.3478 6.19378 10.41 6.16257 10.4769 6.14863C10.4854 6.14863 10.7503 6.125 11.1429 6.125C11.5354 6.125 11.8003 6.14862 11.8089 6.1495C11.8756 6.16344 11.9377 6.19455 11.9893 6.23988C12.0409 6.28521 12.0803 6.34326 12.1037 6.4085L12.6411 8.68613C12.7457 9.128 13.1409 9.57425 13.5386 9.7125L14.2131 9.996C14.6049 10.192 15.2117 10.1614 15.582 9.93038L17.5389 8.708C17.628 8.65287 17.8389 8.68175 17.8869 8.72375L18.8657 9.72213C18.9394 9.807 18.9557 9.99863 18.8983 10.0958L17.7009 12.0943C17.4686 12.4819 17.4411 13.083 17.6254 13.4663L17.9049 14.1558C18.0497 14.5854 18.486 14.9896 18.9197 15.0964L21.1509 15.6441C21.215 15.6679 21.272 15.708 21.3166 15.7607C21.3612 15.8134 21.3918 15.8769 21.4054 15.9451C21.4054 15.9539 21.4286 16.2243 21.4286 16.625C21.4286 17.0258 21.4054 17.2961 21.4046 17.3049C21.3909 17.373 21.3604 17.4364 21.316 17.489C21.2716 17.5417 21.2148 17.5819 21.1509 17.6059L18.9189 18.1545C18.486 18.2613 18.0497 18.6655 17.9143 19.0706L17.6366 19.7593C17.4411 20.1679 17.4686 20.7681 17.7009 21.1566L18.8983 23.1543C18.9557 23.2514 18.9394 23.4439 18.8829 23.5095L17.9049 24.5088C17.8429 24.556 17.767 24.5804 17.6897 24.5779C17.6375 24.5796 17.5857 24.5672 17.5397 24.542L15.582 23.3196C15.2117 23.0886 14.5757 23.072 14.238 23.2426L13.5626 23.5279C13.1417 23.6758 12.7457 24.122 12.642 24.5639L12.1046 26.8415C12.0813 26.907 12.042 26.9652 11.9904 27.0107C11.9387 27.0562 11.8765 27.0874 11.8097 27.1014C11.8003 27.1014 11.5354 27.125 11.1429 27.125C10.7503 27.125 10.4854 27.1014 10.4769 27.1005C10.4102 27.0866 10.3481 27.0554 10.2965 27.0101C10.2449 26.9648 10.2055 26.9067 10.182 26.8415L9.64457 24.563C9.54 24.1211 9.144 23.6758 8.74714 23.5375L8.07257 23.254C7.88076 23.163 7.67122 23.1175 7.45971 23.121C7.17771 23.121 6.90943 23.1919 6.70371 23.3205L4.74686 24.5429C4.65771 24.598 4.446 24.5683 4.39886 24.5271L3.42 23.5279C3.34629 23.443 3.33 23.2514 3.38743 23.1543L4.58486 21.1558C4.81714 20.7681 4.84457 20.167 4.66029 19.7838L4.38086 19.0943C4.236 18.6646 3.79971 18.2604 3.366 18.1536L1.13486 17.6059C1.07074 17.5821 1.01367 17.542 0.969095 17.4893C0.924523 17.4366 0.893945 17.3731 0.880286 17.3049C0.880286 17.2961 0.857143 17.0258 0.857143 16.625V16.625Z"/>
</mask>
<path d="M3.16457 19.005C3.31543 19.0418 3.52029 19.2316 3.57943 19.4049L3.87943 20.1434C3.94714 20.2851 3.93429 20.566 3.85371 20.7008L2.65629 22.6993C2.4 23.128 2.45314 23.7353 2.79771 24.129L3.81171 25.1633C4.16486 25.4835 4.788 25.5413 5.19429 25.2901L7.152 24.0678C7.27457 23.9908 7.53771 23.9636 7.722 24.052L8.44457 24.3565C8.59029 24.4081 8.77629 24.6164 8.81229 24.7704L9.34971 27.0489C9.46371 27.5319 9.91543 27.9291 10.4006 27.9746C10.4006 27.9746 10.698 28.0026 11.1437 28.0026C11.5894 28.0026 11.8869 27.9746 11.8877 27.9746C12.1333 27.9451 12.3646 27.8411 12.5517 27.6761C12.7389 27.5111 12.8733 27.2926 12.9377 27.0489L13.476 24.7704C13.512 24.6173 13.6971 24.4081 13.8669 24.3478L14.5903 24.0415C14.718 23.9776 15.0137 23.9908 15.1363 24.0678L17.094 25.2901C17.2663 25.3978 17.472 25.4546 17.6906 25.4546C17.9863 25.4546 18.2726 25.3488 18.4946 25.1466L19.5077 24.1115C19.6683 23.918 19.7665 23.6785 19.7887 23.4259C19.811 23.1733 19.7562 22.9198 19.632 22.7001L18.4346 20.7016C18.354 20.5669 18.3411 20.286 18.4191 20.1198L18.7174 19.3821C18.768 19.2334 18.972 19.0435 19.1229 19.0068L21.3549 18.4581C21.5936 18.3921 21.8076 18.2547 21.9692 18.0635C22.1308 17.8723 22.2327 17.6362 22.2617 17.3854C22.2617 17.3854 22.2891 17.0818 22.2891 16.6268C22.2891 16.1718 22.2617 15.8681 22.2617 15.8673C22.2326 15.6165 22.1307 15.3804 21.9691 15.1892C21.8075 14.9981 21.5936 14.8606 21.3549 14.7945L19.1237 14.2468C18.9729 14.21 18.768 14.0201 18.7089 13.8469L18.4089 13.1084C18.3411 12.9666 18.354 12.6858 18.4346 12.551L19.632 10.5525C19.8883 10.1238 19.8351 9.5165 19.4906 9.12275L18.4766 8.0885C18.1226 7.76738 17.4986 7.70963 17.094 7.96163L15.1363 9.184C15.0137 9.26013 14.7497 9.289 14.5663 9.19975L13.8437 8.89525C13.698 8.84363 13.5129 8.63538 13.4769 8.48138L12.9386 6.20288C12.8739 5.95914 12.7393 5.74072 12.552 5.57574C12.3647 5.41076 12.1334 5.30676 11.8877 5.27713C11.886 5.278 11.5886 5.25 11.1429 5.25C10.6971 5.25 10.3997 5.278 10.3989 5.278C10.1532 5.30775 9.92194 5.41179 9.73469 5.57676C9.54743 5.74172 9.41277 5.96007 9.348 6.20375L8.81143 8.4805C8.77543 8.6345 8.58943 8.84362 8.41971 8.904L7.69629 9.21025C7.56771 9.27413 7.27286 9.26013 7.15029 9.184L5.19343 7.96163C4.788 7.70963 4.17771 7.75337 3.79286 8.10512L2.77971 9.14025C2.6191 9.33378 2.52096 9.57323 2.49871 9.82585C2.47646 10.0785 2.5312 10.332 2.65543 10.5516L3.85286 12.5501C3.93343 12.6849 3.94629 12.9658 3.86829 13.132L3.57 13.8696C3.51943 14.0184 3.31543 14.2083 3.16457 14.245L0.932571 14.7936C0.693806 14.8596 0.479851 14.9971 0.318238 15.1883C0.156626 15.3794 0.0547479 15.6156 0.0257143 15.8664C0.0274286 15.8664 0 16.17 0 16.625C0 17.08 0.0274286 17.3836 0.0274286 17.3845C0.0565739 17.6352 0.158491 17.8713 0.320087 18.0625C0.481683 18.2537 0.695575 18.3911 0.934286 18.4573L3.16457 19.005ZM0.857143 16.625C0.857143 16.2243 0.880286 15.9539 0.881143 15.9451C0.894799 15.877 0.925277 15.8136 0.969682 15.761C1.01409 15.7083 1.07094 15.6681 1.13486 15.6441L3.36686 15.0955C3.79971 14.9888 4.236 14.5845 4.37143 14.1794L4.64914 13.4908C4.84457 13.0821 4.81714 12.4819 4.58486 12.0934L3.38743 10.0958C3.33 9.99863 3.34629 9.80613 3.40286 9.7405L4.38086 8.74125C4.45886 8.67038 4.65771 8.65287 4.74686 8.708L6.70457 9.93038C7.07571 10.1623 7.71171 10.178 8.04857 10.0074L8.724 9.72213C9.14486 9.57425 9.54086 9.12888 9.64543 8.68613L10.182 6.4085C10.2053 6.34305 10.2446 6.28479 10.2962 6.23928C10.3478 6.19378 10.41 6.16257 10.4769 6.14863C10.4854 6.14863 10.7503 6.125 11.1429 6.125C11.5354 6.125 11.8003 6.14862 11.8089 6.1495C11.8756 6.16344 11.9377 6.19455 11.9893 6.23988C12.0409 6.28521 12.0803 6.34326 12.1037 6.4085L12.6411 8.68613C12.7457 9.128 13.1409 9.57425 13.5386 9.7125L14.2131 9.996C14.6049 10.192 15.2117 10.1614 15.582 9.93038L17.5389 8.708C17.628 8.65287 17.8389 8.68175 17.8869 8.72375L18.8657 9.72213C18.9394 9.807 18.9557 9.99863 18.8983 10.0958L17.7009 12.0943C17.4686 12.4819 17.4411 13.083 17.6254 13.4663L17.9049 14.1558C18.0497 14.5854 18.486 14.9896 18.9197 15.0964L21.1509 15.6441C21.215 15.6679 21.272 15.708 21.3166 15.7607C21.3612 15.8134 21.3918 15.8769 21.4054 15.9451C21.4054 15.9539 21.4286 16.2243 21.4286 16.625C21.4286 17.0258 21.4054 17.2961 21.4046 17.3049C21.3909 17.373 21.3604 17.4364 21.316 17.489C21.2716 17.5417 21.2148 17.5819 21.1509 17.6059L18.9189 18.1545C18.486 18.2613 18.0497 18.6655 17.9143 19.0706L17.6366 19.7593C17.4411 20.1679 17.4686 20.7681 17.7009 21.1566L18.8983 23.1543C18.9557 23.2514 18.9394 23.4439 18.8829 23.5095L17.9049 24.5088C17.8429 24.556 17.767 24.5804 17.6897 24.5779C17.6375 24.5796 17.5857 24.5672 17.5397 24.542L15.582 23.3196C15.2117 23.0886 14.5757 23.072 14.238 23.2426L13.5626 23.5279C13.1417 23.6758 12.7457 24.122 12.642 24.5639L12.1046 26.8415C12.0813 26.907 12.042 26.9652 11.9904 27.0107C11.9387 27.0562 11.8765 27.0874 11.8097 27.1014C11.8003 27.1014 11.5354 27.125 11.1429 27.125C10.7503 27.125 10.4854 27.1014 10.4769 27.1005C10.4102 27.0866 10.3481 27.0554 10.2965 27.0101C10.2449 26.9648 10.2055 26.9067 10.182 26.8415L9.64457 24.563C9.54 24.1211 9.144 23.6758 8.74714 23.5375L8.07257 23.254C7.88076 23.163 7.67122 23.1175 7.45971 23.121C7.17771 23.121 6.90943 23.1919 6.70371 23.3205L4.74686 24.5429C4.65771 24.598 4.446 24.5683 4.39886 24.5271L3.42 23.5279C3.34629 23.443 3.33 23.2514 3.38743 23.1543L4.58486 21.1558C4.81714 20.7681 4.84457 20.167 4.66029 19.7838L4.38086 19.0943C4.236 18.6646 3.79971 18.2604 3.366 18.1536L1.13486 17.6059C1.07074 17.5821 1.01367 17.542 0.969095 17.4893C0.924523 17.4366 0.893945 17.3731 0.880286 17.3049C0.880286 17.2961 0.857143 17.0258 0.857143 16.625V16.625Z" fill="url(#paint0_linear_1020_2247)"/>
<path d="M3.16457 19.005C3.31543 19.0418 3.52029 19.2316 3.57943 19.4049L3.87943 20.1434C3.94714 20.2851 3.93429 20.566 3.85371 20.7008L2.65629 22.6993C2.4 23.128 2.45314 23.7353 2.79771 24.129L3.81171 25.1633C4.16486 25.4835 4.788 25.5413 5.19429 25.2901L7.152 24.0678C7.27457 23.9908 7.53771 23.9636 7.722 24.052L8.44457 24.3565C8.59029 24.4081 8.77629 24.6164 8.81229 24.7704L9.34971 27.0489C9.46371 27.5319 9.91543 27.9291 10.4006 27.9746C10.4006 27.9746 10.698 28.0026 11.1437 28.0026C11.5894 28.0026 11.8869 27.9746 11.8877 27.9746C12.1333 27.9451 12.3646 27.8411 12.5517 27.6761C12.7389 27.5111 12.8733 27.2926 12.9377 27.0489L13.476 24.7704C13.512 24.6173 13.6971 24.4081 13.8669 24.3478L14.5903 24.0415C14.718 23.9776 15.0137 23.9908 15.1363 24.0678L17.094 25.2901C17.2663 25.3978 17.472 25.4546 17.6906 25.4546C17.9863 25.4546 18.2726 25.3488 18.4946 25.1466L19.5077 24.1115C19.6683 23.918 19.7665 23.6785 19.7887 23.4259C19.811 23.1733 19.7562 22.9198 19.632 22.7001L18.4346 20.7016C18.354 20.5669 18.3411 20.286 18.4191 20.1198L18.7174 19.3821C18.768 19.2334 18.972 19.0435 19.1229 19.0068L21.3549 18.4581C21.5936 18.3921 21.8076 18.2547 21.9692 18.0635C22.1308 17.8723 22.2327 17.6362 22.2617 17.3854C22.2617 17.3854 22.2891 17.0818 22.2891 16.6268C22.2891 16.1718 22.2617 15.8681 22.2617 15.8673C22.2326 15.6165 22.1307 15.3804 21.9691 15.1892C21.8075 14.9981 21.5936 14.8606 21.3549 14.7945L19.1237 14.2468C18.9729 14.21 18.768 14.0201 18.7089 13.8469L18.4089 13.1084C18.3411 12.9666 18.354 12.6858 18.4346 12.551L19.632 10.5525C19.8883 10.1238 19.8351 9.5165 19.4906 9.12275L18.4766 8.0885C18.1226 7.76738 17.4986 7.70963 17.094 7.96163L15.1363 9.184C15.0137 9.26013 14.7497 9.289 14.5663 9.19975L13.8437 8.89525C13.698 8.84363 13.5129 8.63538 13.4769 8.48138L12.9386 6.20288C12.8739 5.95914 12.7393 5.74072 12.552 5.57574C12.3647 5.41076 12.1334 5.30676 11.8877 5.27713C11.886 5.278 11.5886 5.25 11.1429 5.25C10.6971 5.25 10.3997 5.278 10.3989 5.278C10.1532 5.30775 9.92194 5.41179 9.73469 5.57676C9.54743 5.74172 9.41277 5.96007 9.348 6.20375L8.81143 8.4805C8.77543 8.6345 8.58943 8.84362 8.41971 8.904L7.69629 9.21025C7.56771 9.27413 7.27286 9.26013 7.15029 9.184L5.19343 7.96163C4.788 7.70963 4.17771 7.75337 3.79286 8.10512L2.77971 9.14025C2.6191 9.33378 2.52096 9.57323 2.49871 9.82585C2.47646 10.0785 2.5312 10.332 2.65543 10.5516L3.85286 12.5501C3.93343 12.6849 3.94629 12.9658 3.86829 13.132L3.57 13.8696C3.51943 14.0184 3.31543 14.2083 3.16457 14.245L0.932571 14.7936C0.693806 14.8596 0.479851 14.9971 0.318238 15.1883C0.156626 15.3794 0.0547479 15.6156 0.0257143 15.8664C0.0274286 15.8664 0 16.17 0 16.625C0 17.08 0.0274286 17.3836 0.0274286 17.3845C0.0565739 17.6352 0.158491 17.8713 0.320087 18.0625C0.481683 18.2537 0.695575 18.3911 0.934286 18.4573L3.16457 19.005ZM0.857143 16.625C0.857143 16.2243 0.880286 15.9539 0.881143 15.9451C0.894799 15.877 0.925277 15.8136 0.969682 15.761C1.01409 15.7083 1.07094 15.6681 1.13486 15.6441L3.36686 15.0955C3.79971 14.9888 4.236 14.5845 4.37143 14.1794L4.64914 13.4908C4.84457 13.0821 4.81714 12.4819 4.58486 12.0934L3.38743 10.0958C3.33 9.99863 3.34629 9.80613 3.40286 9.7405L4.38086 8.74125C4.45886 8.67038 4.65771 8.65287 4.74686 8.708L6.70457 9.93038C7.07571 10.1623 7.71171 10.178 8.04857 10.0074L8.724 9.72213C9.14486 9.57425 9.54086 9.12888 9.64543 8.68613L10.182 6.4085C10.2053 6.34305 10.2446 6.28479 10.2962 6.23928C10.3478 6.19378 10.41 6.16257 10.4769 6.14863C10.4854 6.14863 10.7503 6.125 11.1429 6.125C11.5354 6.125 11.8003 6.14862 11.8089 6.1495C11.8756 6.16344 11.9377 6.19455 11.9893 6.23988C12.0409 6.28521 12.0803 6.34326 12.1037 6.4085L12.6411 8.68613C12.7457 9.128 13.1409 9.57425 13.5386 9.7125L14.2131 9.996C14.6049 10.192 15.2117 10.1614 15.582 9.93038L17.5389 8.708C17.628 8.65287 17.8389 8.68175 17.8869 8.72375L18.8657 9.72213C18.9394 9.807 18.9557 9.99863 18.8983 10.0958L17.7009 12.0943C17.4686 12.4819 17.4411 13.083 17.6254 13.4663L17.9049 14.1558C18.0497 14.5854 18.486 14.9896 18.9197 15.0964L21.1509 15.6441C21.215 15.6679 21.272 15.708 21.3166 15.7607C21.3612 15.8134 21.3918 15.8769 21.4054 15.9451C21.4054 15.9539 21.4286 16.2243 21.4286 16.625C21.4286 17.0258 21.4054 17.2961 21.4046 17.3049C21.3909 17.373 21.3604 17.4364 21.316 17.489C21.2716 17.5417 21.2148 17.5819 21.1509 17.6059L18.9189 18.1545C18.486 18.2613 18.0497 18.6655 17.9143 19.0706L17.6366 19.7593C17.4411 20.1679 17.4686 20.7681 17.7009 21.1566L18.8983 23.1543C18.9557 23.2514 18.9394 23.4439 18.8829 23.5095L17.9049 24.5088C17.8429 24.556 17.767 24.5804 17.6897 24.5779C17.6375 24.5796 17.5857 24.5672 17.5397 24.542L15.582 23.3196C15.2117 23.0886 14.5757 23.072 14.238 23.2426L13.5626 23.5279C13.1417 23.6758 12.7457 24.122 12.642 24.5639L12.1046 26.8415C12.0813 26.907 12.042 26.9652 11.9904 27.0107C11.9387 27.0562 11.8765 27.0874 11.8097 27.1014C11.8003 27.1014 11.5354 27.125 11.1429 27.125C10.7503 27.125 10.4854 27.1014 10.4769 27.1005C10.4102 27.0866 10.3481 27.0554 10.2965 27.0101C10.2449 26.9648 10.2055 26.9067 10.182 26.8415L9.64457 24.563C9.54 24.1211 9.144 23.6758 8.74714 23.5375L8.07257 23.254C7.88076 23.163 7.67122 23.1175 7.45971 23.121C7.17771 23.121 6.90943 23.1919 6.70371 23.3205L4.74686 24.5429C4.65771 24.598 4.446 24.5683 4.39886 24.5271L3.42 23.5279C3.34629 23.443 3.33 23.2514 3.38743 23.1543L4.58486 21.1558C4.81714 20.7681 4.84457 20.167 4.66029 19.7838L4.38086 19.0943C4.236 18.6646 3.79971 18.2604 3.366 18.1536L1.13486 17.6059C1.07074 17.5821 1.01367 17.542 0.969095 17.4893C0.924523 17.4366 0.893945 17.3731 0.880286 17.3049C0.880286 17.2961 0.857143 17.0258 0.857143 16.625V16.625Z" stroke="url(#paint1_linear_1020_2247)" stroke-width="0.6" mask="url(#path-1-outside-1_1020_2247)"/>
<mask id="path-2-outside-2_1020_2247" maskUnits="userSpaceOnUse" x="5.42773" y="-1.00702" width="31" height="23" fill="black">
<rect fill="white" x="5.42773" y="-1.00702" width="31" height="23"/>
<path d="M11.142 21.4375C13.7417 21.4375 15.8563 19.2789 15.8563 16.625C15.8563 13.9711 13.7417 11.8125 11.142 11.8125C8.54231 11.8125 6.42773 13.9711 6.42773 16.625C6.42773 19.2789 8.54231 21.4375 11.142 21.4375ZM11.142 12.6875C13.2686 12.6875 14.9992 14.4541 14.9992 16.625C14.9992 18.7959 13.2686 20.5625 11.142 20.5625C9.01545 20.5625 7.28488 18.7959 7.28488 16.625C7.28488 14.4541 9.01545 12.6875 11.142 12.6875ZM23.5509 4.64973C23.4933 4.71567 23.4146 4.75849 23.3289 4.77048L21.7337 4.75473C21.5369 4.76006 21.346 4.82495 21.1853 4.94116C21.0246 5.05737 20.9014 5.21967 20.8312 5.40748C20.8312 5.40748 20.7609 5.61136 20.6837 5.92373C20.6066 6.23611 20.574 6.44961 20.574 6.44961C20.514 6.84423 20.7292 7.28086 21.0746 7.46548L22.4812 8.21798C22.5566 8.2763 22.6074 8.36169 22.6234 8.45686L22.7032 9.01248C22.7082 9.10026 22.6827 9.18704 22.6312 9.25748L21.498 10.3915C21.2143 10.675 21.1397 11.1597 21.3352 11.5404L21.8486 12.4154C22.0654 12.7409 22.5352 12.9071 22.9037 12.7899L24.4672 12.3016C24.552 12.3016 24.6369 12.3349 24.6849 12.3742L25.1263 12.7067C25.1905 12.7658 25.2324 12.846 25.2446 12.9334L25.2292 14.5539C25.2257 14.9529 25.5 15.3527 25.8686 15.484C25.8686 15.484 26.0683 15.5557 26.3743 15.6345C26.6803 15.7132 26.8894 15.7465 26.8894 15.7465C26.9117 15.75 27.0009 15.757 27.0232 15.757C27.1989 15.7547 27.371 15.7054 27.5222 15.6139C27.6734 15.5223 27.7984 15.3918 27.8846 15.2355L28.6217 13.7996C28.6789 13.7226 28.7625 13.6707 28.8557 13.6544L29.424 13.5704C29.5097 13.5704 29.6109 13.6159 29.6392 13.6456L30.75 14.8024C31.02 15.0841 31.4752 15.1847 31.8754 14.9686L32.7317 14.4445C33.0592 14.217 33.2177 13.7532 33.0994 13.3674L32.6263 11.8212C32.6137 11.7251 32.6376 11.6277 32.6932 11.5491L33.0189 11.0985C33.0764 11.0325 33.1552 10.9897 33.2409 10.9777L34.836 10.9935C35.0329 10.9882 35.2237 10.9233 35.3844 10.8071C35.5451 10.6908 35.6684 10.5285 35.7386 10.3407C35.7386 10.3407 35.8089 10.1369 35.886 9.82448C35.9632 9.51211 35.9957 9.29861 35.9957 9.29861C36.0212 9.09761 35.9871 8.89344 35.8979 8.71239C35.8087 8.53134 35.6684 8.38169 35.4952 8.28273L34.0886 7.53023C34.0132 7.47191 33.9623 7.38652 33.9463 7.29136L33.8674 6.73748C33.8624 6.6497 33.8879 6.56292 33.9394 6.49248L35.0726 5.35848C35.3563 5.07498 35.4309 4.59023 35.2354 4.20961L34.722 3.33461C34.5052 3.00998 34.0363 2.84198 33.6669 2.95923L32.1026 3.44748C32.0243 3.44737 31.9481 3.42194 31.8849 3.37486L31.4435 3.04236C31.3792 2.98331 31.3373 2.9031 31.3252 2.81573L31.3406 1.19523C31.3373 0.992711 31.2746 0.79585 31.1606 0.630055C31.0466 0.46426 30.8866 0.337142 30.7012 0.265106C30.7012 0.265106 30.5014 0.193356 30.1954 0.114606C29.8894 0.035856 29.6803 0.00260596 29.6803 0.00260596C29.6358 -0.0019076 29.5912 -0.00511726 29.5466 -0.00701904C29.3708 -0.00478412 29.1987 0.0445707 29.0475 0.136099C28.8964 0.227627 28.7714 0.358114 28.6852 0.514481L27.948 1.95036C27.8909 2.02732 27.8072 2.07924 27.714 2.09561L27.1457 2.17873C27.0681 2.17701 26.9929 2.15072 26.9306 2.10348L25.8197 0.946731C25.6745 0.799258 25.4867 0.703453 25.284 0.673509C25.0813 0.643565 24.8745 0.681074 24.6943 0.780481L23.8372 1.30373C23.5097 1.53123 23.3512 1.99498 23.4694 2.38086L23.9426 3.92698C23.9552 4.02308 23.9313 4.12047 23.8757 4.19911L23.5509 4.64973V4.64973ZM24.2537 5.15023L24.5477 4.74248C24.7774 4.46511 24.8666 4.01273 24.7603 3.66711L24.288 2.12186C24.2837 2.09736 24.3026 2.04223 24.2983 2.04136L25.1109 1.54436L25.2077 1.55923L26.3194 2.71598C26.5166 2.92073 26.8414 3.05373 27.1466 3.05373C27.2053 3.05467 27.2639 3.0491 27.3214 3.03711L27.8143 2.96273C27.9994 2.93981 28.1767 2.87294 28.332 2.76749C28.4872 2.66204 28.6161 2.52093 28.7083 2.35548L29.4446 0.920481C29.4711 0.890135 29.5078 0.871081 29.5474 0.867106C29.5569 0.867981 29.7317 0.897731 29.9872 0.962481C30.2417 1.02811 30.4097 1.08673 30.4174 1.09023C30.444 1.10161 30.4826 1.15848 30.4843 1.18648L30.4689 2.80698C30.4654 3.16923 30.6789 3.57611 30.9549 3.75986L31.3535 4.05998C31.6183 4.28836 32.0726 4.38461 32.4069 4.27698L33.9274 3.79398C33.9634 3.79398 34.0037 3.81673 33.9986 3.80536L34.4854 4.63486C34.4949 4.65761 34.4854 4.71536 34.4709 4.73373L33.3377 5.86861C33.0849 6.12323 32.9537 6.56423 33.0232 6.89148L33.0952 7.39461C33.126 7.75511 33.3763 8.13923 33.6909 8.30723L35.0966 9.05886C35.1261 9.08612 35.1447 9.12349 35.1489 9.16386C35.1238 9.31472 35.0926 9.46447 35.0554 9.61273C35.0199 9.76091 34.9782 9.90746 34.9303 10.052C34.9192 10.0791 34.8635 10.1185 34.836 10.1202L33.24 10.1045C32.8877 10.1045 32.4934 10.3224 32.3152 10.6006L32.022 11.0075C31.9063 11.1571 31.8267 11.3324 31.7898 11.5192C31.7529 11.7061 31.7596 11.8992 31.8094 12.0829L32.2817 13.6281C32.286 13.6517 32.2672 13.7077 32.2714 13.7086L31.4589 14.2056L31.362 14.1907L30.2503 13.034C30.0532 12.8292 29.7283 12.6962 29.4232 12.6962C29.3645 12.6953 29.3058 12.7009 29.2483 12.7129L28.7554 12.7872C28.5703 12.8102 28.393 12.877 28.2378 12.9825C28.0826 13.0879 27.9537 13.229 27.8614 13.3945L27.1252 14.8295C27.0987 14.8598 27.0619 14.8789 27.0223 14.8829C26.8745 14.8572 26.7278 14.8254 26.5826 14.7875C26.4374 14.7512 26.2939 14.7086 26.1523 14.6597C26.1257 14.6484 26.0872 14.5915 26.0854 14.5635L26.1009 12.943C26.1043 12.5807 25.8909 12.1739 25.6149 11.9901L25.2163 11.69C25.0696 11.5718 24.8978 11.4905 24.7146 11.4528C24.5314 11.4151 24.3421 11.422 24.162 11.473L22.6414 11.956C22.6046 11.956 22.5643 11.9359 22.5703 11.9446L22.0834 11.1151C22.074 11.0924 22.0834 11.0346 22.098 11.0162L23.2312 9.88136C23.484 9.62673 23.6152 9.18573 23.5457 8.85848L23.4737 8.35623C23.4513 8.16716 23.3856 7.9861 23.2822 7.8276C23.1787 7.66911 23.0403 7.53759 22.878 7.44361L21.4723 6.69198C21.4428 6.66472 21.4242 6.62735 21.42 6.58698C21.4209 6.57736 21.45 6.39886 21.5134 6.13811C21.5777 5.87823 21.6352 5.70673 21.6386 5.69886C21.6497 5.67173 21.7054 5.63236 21.7329 5.63061L23.3289 5.64636C23.6812 5.64636 24.0754 5.42848 24.2537 5.15023V5.15023Z"/>
</mask>
<path d="M11.142 21.4375C13.7417 21.4375 15.8563 19.2789 15.8563 16.625C15.8563 13.9711 13.7417 11.8125 11.142 11.8125C8.54231 11.8125 6.42773 13.9711 6.42773 16.625C6.42773 19.2789 8.54231 21.4375 11.142 21.4375ZM11.142 12.6875C13.2686 12.6875 14.9992 14.4541 14.9992 16.625C14.9992 18.7959 13.2686 20.5625 11.142 20.5625C9.01545 20.5625 7.28488 18.7959 7.28488 16.625C7.28488 14.4541 9.01545 12.6875 11.142 12.6875ZM23.5509 4.64973C23.4933 4.71567 23.4146 4.75849 23.3289 4.77048L21.7337 4.75473C21.5369 4.76006 21.346 4.82495 21.1853 4.94116C21.0246 5.05737 20.9014 5.21967 20.8312 5.40748C20.8312 5.40748 20.7609 5.61136 20.6837 5.92373C20.6066 6.23611 20.574 6.44961 20.574 6.44961C20.514 6.84423 20.7292 7.28086 21.0746 7.46548L22.4812 8.21798C22.5566 8.2763 22.6074 8.36169 22.6234 8.45686L22.7032 9.01248C22.7082 9.10026 22.6827 9.18704 22.6312 9.25748L21.498 10.3915C21.2143 10.675 21.1397 11.1597 21.3352 11.5404L21.8486 12.4154C22.0654 12.7409 22.5352 12.9071 22.9037 12.7899L24.4672 12.3016C24.552 12.3016 24.6369 12.3349 24.6849 12.3742L25.1263 12.7067C25.1905 12.7658 25.2324 12.846 25.2446 12.9334L25.2292 14.5539C25.2257 14.9529 25.5 15.3527 25.8686 15.484C25.8686 15.484 26.0683 15.5557 26.3743 15.6345C26.6803 15.7132 26.8894 15.7465 26.8894 15.7465C26.9117 15.75 27.0009 15.757 27.0232 15.757C27.1989 15.7547 27.371 15.7054 27.5222 15.6139C27.6734 15.5223 27.7984 15.3918 27.8846 15.2355L28.6217 13.7996C28.6789 13.7226 28.7625 13.6707 28.8557 13.6544L29.424 13.5704C29.5097 13.5704 29.6109 13.6159 29.6392 13.6456L30.75 14.8024C31.02 15.0841 31.4752 15.1847 31.8754 14.9686L32.7317 14.4445C33.0592 14.217 33.2177 13.7532 33.0994 13.3674L32.6263 11.8212C32.6137 11.7251 32.6376 11.6277 32.6932 11.5491L33.0189 11.0985C33.0764 11.0325 33.1552 10.9897 33.2409 10.9777L34.836 10.9935C35.0329 10.9882 35.2237 10.9233 35.3844 10.8071C35.5451 10.6908 35.6684 10.5285 35.7386 10.3407C35.7386 10.3407 35.8089 10.1369 35.886 9.82448C35.9632 9.51211 35.9957 9.29861 35.9957 9.29861C36.0212 9.09761 35.9871 8.89344 35.8979 8.71239C35.8087 8.53134 35.6684 8.38169 35.4952 8.28273L34.0886 7.53023C34.0132 7.47191 33.9623 7.38652 33.9463 7.29136L33.8674 6.73748C33.8624 6.6497 33.8879 6.56292 33.9394 6.49248L35.0726 5.35848C35.3563 5.07498 35.4309 4.59023 35.2354 4.20961L34.722 3.33461C34.5052 3.00998 34.0363 2.84198 33.6669 2.95923L32.1026 3.44748C32.0243 3.44737 31.9481 3.42194 31.8849 3.37486L31.4435 3.04236C31.3792 2.98331 31.3373 2.9031 31.3252 2.81573L31.3406 1.19523C31.3373 0.992711 31.2746 0.79585 31.1606 0.630055C31.0466 0.46426 30.8866 0.337142 30.7012 0.265106C30.7012 0.265106 30.5014 0.193356 30.1954 0.114606C29.8894 0.035856 29.6803 0.00260596 29.6803 0.00260596C29.6358 -0.0019076 29.5912 -0.00511726 29.5466 -0.00701904C29.3708 -0.00478412 29.1987 0.0445707 29.0475 0.136099C28.8964 0.227627 28.7714 0.358114 28.6852 0.514481L27.948 1.95036C27.8909 2.02732 27.8072 2.07924 27.714 2.09561L27.1457 2.17873C27.0681 2.17701 26.9929 2.15072 26.9306 2.10348L25.8197 0.946731C25.6745 0.799258 25.4867 0.703453 25.284 0.673509C25.0813 0.643565 24.8745 0.681074 24.6943 0.780481L23.8372 1.30373C23.5097 1.53123 23.3512 1.99498 23.4694 2.38086L23.9426 3.92698C23.9552 4.02308 23.9313 4.12047 23.8757 4.19911L23.5509 4.64973V4.64973ZM24.2537 5.15023L24.5477 4.74248C24.7774 4.46511 24.8666 4.01273 24.7603 3.66711L24.288 2.12186C24.2837 2.09736 24.3026 2.04223 24.2983 2.04136L25.1109 1.54436L25.2077 1.55923L26.3194 2.71598C26.5166 2.92073 26.8414 3.05373 27.1466 3.05373C27.2053 3.05467 27.2639 3.0491 27.3214 3.03711L27.8143 2.96273C27.9994 2.93981 28.1767 2.87294 28.332 2.76749C28.4872 2.66204 28.6161 2.52093 28.7083 2.35548L29.4446 0.920481C29.4711 0.890135 29.5078 0.871081 29.5474 0.867106C29.5569 0.867981 29.7317 0.897731 29.9872 0.962481C30.2417 1.02811 30.4097 1.08673 30.4174 1.09023C30.444 1.10161 30.4826 1.15848 30.4843 1.18648L30.4689 2.80698C30.4654 3.16923 30.6789 3.57611 30.9549 3.75986L31.3535 4.05998C31.6183 4.28836 32.0726 4.38461 32.4069 4.27698L33.9274 3.79398C33.9634 3.79398 34.0037 3.81673 33.9986 3.80536L34.4854 4.63486C34.4949 4.65761 34.4854 4.71536 34.4709 4.73373L33.3377 5.86861C33.0849 6.12323 32.9537 6.56423 33.0232 6.89148L33.0952 7.39461C33.126 7.75511 33.3763 8.13923 33.6909 8.30723L35.0966 9.05886C35.1261 9.08612 35.1447 9.12349 35.1489 9.16386C35.1238 9.31472 35.0926 9.46447 35.0554 9.61273C35.0199 9.76091 34.9782 9.90746 34.9303 10.052C34.9192 10.0791 34.8635 10.1185 34.836 10.1202L33.24 10.1045C32.8877 10.1045 32.4934 10.3224 32.3152 10.6006L32.022 11.0075C31.9063 11.1571 31.8267 11.3324 31.7898 11.5192C31.7529 11.7061 31.7596 11.8992 31.8094 12.0829L32.2817 13.6281C32.286 13.6517 32.2672 13.7077 32.2714 13.7086L31.4589 14.2056L31.362 14.1907L30.2503 13.034C30.0532 12.8292 29.7283 12.6962 29.4232 12.6962C29.3645 12.6953 29.3058 12.7009 29.2483 12.7129L28.7554 12.7872C28.5703 12.8102 28.393 12.877 28.2378 12.9825C28.0826 13.0879 27.9537 13.229 27.8614 13.3945L27.1252 14.8295C27.0987 14.8598 27.0619 14.8789 27.0223 14.8829C26.8745 14.8572 26.7278 14.8254 26.5826 14.7875C26.4374 14.7512 26.2939 14.7086 26.1523 14.6597C26.1257 14.6484 26.0872 14.5915 26.0854 14.5635L26.1009 12.943C26.1043 12.5807 25.8909 12.1739 25.6149 11.9901L25.2163 11.69C25.0696 11.5718 24.8978 11.4905 24.7146 11.4528C24.5314 11.4151 24.3421 11.422 24.162 11.473L22.6414 11.956C22.6046 11.956 22.5643 11.9359 22.5703 11.9446L22.0834 11.1151C22.074 11.0924 22.0834 11.0346 22.098 11.0162L23.2312 9.88136C23.484 9.62673 23.6152 9.18573 23.5457 8.85848L23.4737 8.35623C23.4513 8.16716 23.3856 7.9861 23.2822 7.8276C23.1787 7.66911 23.0403 7.53759 22.878 7.44361L21.4723 6.69198C21.4428 6.66472 21.4242 6.62735 21.42 6.58698C21.4209 6.57736 21.45 6.39886 21.5134 6.13811C21.5777 5.87823 21.6352 5.70673 21.6386 5.69886C21.6497 5.67173 21.7054 5.63236 21.7329 5.63061L23.3289 5.64636C23.6812 5.64636 24.0754 5.42848 24.2537 5.15023V5.15023Z" fill="url(#paint2_linear_1020_2247)"/>
<path d="M11.142 21.4375C13.7417 21.4375 15.8563 19.2789 15.8563 16.625C15.8563 13.9711 13.7417 11.8125 11.142 11.8125C8.54231 11.8125 6.42773 13.9711 6.42773 16.625C6.42773 19.2789 8.54231 21.4375 11.142 21.4375ZM11.142 12.6875C13.2686 12.6875 14.9992 14.4541 14.9992 16.625C14.9992 18.7959 13.2686 20.5625 11.142 20.5625C9.01545 20.5625 7.28488 18.7959 7.28488 16.625C7.28488 14.4541 9.01545 12.6875 11.142 12.6875ZM23.5509 4.64973C23.4933 4.71567 23.4146 4.75849 23.3289 4.77048L21.7337 4.75473C21.5369 4.76006 21.346 4.82495 21.1853 4.94116C21.0246 5.05737 20.9014 5.21967 20.8312 5.40748C20.8312 5.40748 20.7609 5.61136 20.6837 5.92373C20.6066 6.23611 20.574 6.44961 20.574 6.44961C20.514 6.84423 20.7292 7.28086 21.0746 7.46548L22.4812 8.21798C22.5566 8.2763 22.6074 8.36169 22.6234 8.45686L22.7032 9.01248C22.7082 9.10026 22.6827 9.18704 22.6312 9.25748L21.498 10.3915C21.2143 10.675 21.1397 11.1597 21.3352 11.5404L21.8486 12.4154C22.0654 12.7409 22.5352 12.9071 22.9037 12.7899L24.4672 12.3016C24.552 12.3016 24.6369 12.3349 24.6849 12.3742L25.1263 12.7067C25.1905 12.7658 25.2324 12.846 25.2446 12.9334L25.2292 14.5539C25.2257 14.9529 25.5 15.3527 25.8686 15.484C25.8686 15.484 26.0683 15.5557 26.3743 15.6345C26.6803 15.7132 26.8894 15.7465 26.8894 15.7465C26.9117 15.75 27.0009 15.757 27.0232 15.757C27.1989 15.7547 27.371 15.7054 27.5222 15.6139C27.6734 15.5223 27.7984 15.3918 27.8846 15.2355L28.6217 13.7996C28.6789 13.7226 28.7625 13.6707 28.8557 13.6544L29.424 13.5704C29.5097 13.5704 29.6109 13.6159 29.6392 13.6456L30.75 14.8024C31.02 15.0841 31.4752 15.1847 31.8754 14.9686L32.7317 14.4445C33.0592 14.217 33.2177 13.7532 33.0994 13.3674L32.6263 11.8212C32.6137 11.7251 32.6376 11.6277 32.6932 11.5491L33.0189 11.0985C33.0764 11.0325 33.1552 10.9897 33.2409 10.9777L34.836 10.9935C35.0329 10.9882 35.2237 10.9233 35.3844 10.8071C35.5451 10.6908 35.6684 10.5285 35.7386 10.3407C35.7386 10.3407 35.8089 10.1369 35.886 9.82448C35.9632 9.51211 35.9957 9.29861 35.9957 9.29861C36.0212 9.09761 35.9871 8.89344 35.8979 8.71239C35.8087 8.53134 35.6684 8.38169 35.4952 8.28273L34.0886 7.53023C34.0132 7.47191 33.9623 7.38652 33.9463 7.29136L33.8674 6.73748C33.8624 6.6497 33.8879 6.56292 33.9394 6.49248L35.0726 5.35848C35.3563 5.07498 35.4309 4.59023 35.2354 4.20961L34.722 3.33461C34.5052 3.00998 34.0363 2.84198 33.6669 2.95923L32.1026 3.44748C32.0243 3.44737 31.9481 3.42194 31.8849 3.37486L31.4435 3.04236C31.3792 2.98331 31.3373 2.9031 31.3252 2.81573L31.3406 1.19523C31.3373 0.992711 31.2746 0.79585 31.1606 0.630055C31.0466 0.46426 30.8866 0.337142 30.7012 0.265106C30.7012 0.265106 30.5014 0.193356 30.1954 0.114606C29.8894 0.035856 29.6803 0.00260596 29.6803 0.00260596C29.6358 -0.0019076 29.5912 -0.00511726 29.5466 -0.00701904C29.3708 -0.00478412 29.1987 0.0445707 29.0475 0.136099C28.8964 0.227627 28.7714 0.358114 28.6852 0.514481L27.948 1.95036C27.8909 2.02732 27.8072 2.07924 27.714 2.09561L27.1457 2.17873C27.0681 2.17701 26.9929 2.15072 26.9306 2.10348L25.8197 0.946731C25.6745 0.799258 25.4867 0.703453 25.284 0.673509C25.0813 0.643565 24.8745 0.681074 24.6943 0.780481L23.8372 1.30373C23.5097 1.53123 23.3512 1.99498 23.4694 2.38086L23.9426 3.92698C23.9552 4.02308 23.9313 4.12047 23.8757 4.19911L23.5509 4.64973V4.64973ZM24.2537 5.15023L24.5477 4.74248C24.7774 4.46511 24.8666 4.01273 24.7603 3.66711L24.288 2.12186C24.2837 2.09736 24.3026 2.04223 24.2983 2.04136L25.1109 1.54436L25.2077 1.55923L26.3194 2.71598C26.5166 2.92073 26.8414 3.05373 27.1466 3.05373C27.2053 3.05467 27.2639 3.0491 27.3214 3.03711L27.8143 2.96273C27.9994 2.93981 28.1767 2.87294 28.332 2.76749C28.4872 2.66204 28.6161 2.52093 28.7083 2.35548L29.4446 0.920481C29.4711 0.890135 29.5078 0.871081 29.5474 0.867106C29.5569 0.867981 29.7317 0.897731 29.9872 0.962481C30.2417 1.02811 30.4097 1.08673 30.4174 1.09023C30.444 1.10161 30.4826 1.15848 30.4843 1.18648L30.4689 2.80698C30.4654 3.16923 30.6789 3.57611 30.9549 3.75986L31.3535 4.05998C31.6183 4.28836 32.0726 4.38461 32.4069 4.27698L33.9274 3.79398C33.9634 3.79398 34.0037 3.81673 33.9986 3.80536L34.4854 4.63486C34.4949 4.65761 34.4854 4.71536 34.4709 4.73373L33.3377 5.86861C33.0849 6.12323 32.9537 6.56423 33.0232 6.89148L33.0952 7.39461C33.126 7.75511 33.3763 8.13923 33.6909 8.30723L35.0966 9.05886C35.1261 9.08612 35.1447 9.12349 35.1489 9.16386C35.1238 9.31472 35.0926 9.46447 35.0554 9.61273C35.0199 9.76091 34.9782 9.90746 34.9303 10.052C34.9192 10.0791 34.8635 10.1185 34.836 10.1202L33.24 10.1045C32.8877 10.1045 32.4934 10.3224 32.3152 10.6006L32.022 11.0075C31.9063 11.1571 31.8267 11.3324 31.7898 11.5192C31.7529 11.7061 31.7596 11.8992 31.8094 12.0829L32.2817 13.6281C32.286 13.6517 32.2672 13.7077 32.2714 13.7086L31.4589 14.2056L31.362 14.1907L30.2503 13.034C30.0532 12.8292 29.7283 12.6962 29.4232 12.6962C29.3645 12.6953 29.3058 12.7009 29.2483 12.7129L28.7554 12.7872C28.5703 12.8102 28.393 12.877 28.2378 12.9825C28.0826 13.0879 27.9537 13.229 27.8614 13.3945L27.1252 14.8295C27.0987 14.8598 27.0619 14.8789 27.0223 14.8829C26.8745 14.8572 26.7278 14.8254 26.5826 14.7875C26.4374 14.7512 26.2939 14.7086 26.1523 14.6597C26.1257 14.6484 26.0872 14.5915 26.0854 14.5635L26.1009 12.943C26.1043 12.5807 25.8909 12.1739 25.6149 11.9901L25.2163 11.69C25.0696 11.5718 24.8978 11.4905 24.7146 11.4528C24.5314 11.4151 24.3421 11.422 24.162 11.473L22.6414 11.956C22.6046 11.956 22.5643 11.9359 22.5703 11.9446L22.0834 11.1151C22.074 11.0924 22.0834 11.0346 22.098 11.0162L23.2312 9.88136C23.484 9.62673 23.6152 9.18573 23.5457 8.85848L23.4737 8.35623C23.4513 8.16716 23.3856 7.9861 23.2822 7.8276C23.1787 7.66911 23.0403 7.53759 22.878 7.44361L21.4723 6.69198C21.4428 6.66472 21.4242 6.62735 21.42 6.58698C21.4209 6.57736 21.45 6.39886 21.5134 6.13811C21.5777 5.87823 21.6352 5.70673 21.6386 5.69886C21.6497 5.67173 21.7054 5.63236 21.7329 5.63061L23.3289 5.64636C23.6812 5.64636 24.0754 5.42848 24.2537 5.15023V5.15023Z" stroke="url(#paint3_linear_1020_2247)" stroke-width="0.6" mask="url(#path-2-outside-2_1020_2247)"/>
<path d="M28.2863 10.65C29.7897 10.65 31.0077 9.40216 31.0077 7.875C31.0077 6.34784 29.7897 5.1 28.2863 5.1C26.7828 5.1 25.5648 6.34784 25.5648 7.875C25.5648 9.40216 26.7828 10.65 28.2863 10.65ZM28.2863 6.275C29.146 6.275 29.8506 6.98979 29.8506 7.875C29.8506 8.76021 29.146 9.475 28.2863 9.475C27.4266 9.475 26.722 8.76021 26.722 7.875C26.722 6.98979 27.4266 6.275 28.2863 6.275Z" fill="url(#paint4_linear_1020_2247)" stroke="url(#paint5_linear_1020_2247)" stroke-width="0.3"/>
</g>
<defs>
<linearGradient id="paint0_linear_1020_2247" x1="11.1446" y1="5.25" x2="11.1446" y2="28.0026" gradientUnits="userSpaceOnUse">
<stop stop-color="#3D67B1"/>
<stop offset="1" stop-color="#4361EE"/>
</linearGradient>
<linearGradient id="paint1_linear_1020_2247" x1="11.1446" y1="5.25" x2="11.1446" y2="28.0026" gradientUnits="userSpaceOnUse">
<stop stop-color="#3D67B1"/>
<stop offset="1" stop-color="#4361EE"/>
</linearGradient>
<linearGradient id="paint2_linear_1020_2247" x1="21.2158" y1="-0.00701904" x2="21.2158" y2="21.4375" gradientUnits="userSpaceOnUse">
<stop stop-color="#3D67B1"/>
<stop offset="1" stop-color="#4361EE"/>
</linearGradient>
<linearGradient id="paint3_linear_1020_2247" x1="21.2158" y1="-0.00701904" x2="21.2158" y2="21.4375" gradientUnits="userSpaceOnUse">
<stop stop-color="#3D67B1"/>
<stop offset="1" stop-color="#4361EE"/>
</linearGradient>
<linearGradient id="paint4_linear_1020_2247" x1="28.2863" y1="5.25" x2="28.2863" y2="10.5" gradientUnits="userSpaceOnUse">
<stop stop-color="#3D67B1"/>
<stop offset="1" stop-color="#4361EE"/>
</linearGradient>
<linearGradient id="paint5_linear_1020_2247" x1="28.2863" y1="5.25" x2="28.2863" y2="10.5" gradientUnits="userSpaceOnUse">
<stop stop-color="#3D67B1"/>
<stop offset="1" stop-color="#4361EE"/>
</linearGradient>
<clipPath id="clip0_1020_2247">
<rect width="36" height="28" fill="white"/>
</clipPath>
</defs>
</svg>
