<svg width="32" height="32" viewBox="0 0 32 32" fill="none" xmlns="http://www.w3.org/2000/svg">
<path d="M27.9998 2H22.9998V4H27.9998V28H22.9998V30H27.9998C28.5297 29.9984 29.0375 29.7872 29.4122 29.4125C29.7869 29.0377 29.9982 28.5299 29.9998 28V4C29.9982 3.47005 29.7869 2.96227 29.4122 2.58753C29.0375 2.2128 28.5297 2.00158 27.9998 2ZM13.9997 17H7.99975C7.86634 16.992 7.73274 17.0124 7.60778 17.0598C7.48282 17.1072 7.36934 17.1806 7.27483 17.2751C7.18032 17.3696 7.10694 17.4831 7.05952 17.608C7.0121 17.733 6.99173 17.8666 6.99975 18V24C6.99173 24.1334 7.0121 24.267 7.05952 24.392C7.10694 24.5169 7.18032 24.6304 7.27483 24.7249C7.36934 24.8194 7.48282 24.8928 7.60778 24.9402C7.73274 24.9876 7.86634 25.008 7.99975 25H13.9997C14.1332 25.008 14.2668 24.9876 14.3917 24.9402C14.5167 24.8928 14.6302 24.8194 14.7247 24.7249C14.8192 24.6304 14.8926 24.5169 14.94 24.392C14.9874 24.267 15.0078 24.1334 14.9997 24V18C15.0078 17.8666 14.9874 17.733 14.94 17.608C14.8926 17.4831 14.8192 17.3696 14.7247 17.2751C14.6302 17.1806 14.5167 17.1072 14.3917 17.0598C14.2668 17.0124 14.1332 16.992 13.9997 17ZM12.9997 23H8.99975V19H12.9997V23Z" fill="url(#paint0_linear_1020_2234)"/>
<path d="M24.9998 24V18C25.0078 17.8666 24.9874 17.733 24.94 17.608C24.8926 17.4831 24.8192 17.3696 24.7247 17.2751C24.6302 17.1806 24.5167 17.1072 24.3917 17.0598C24.2668 17.0123 24.1332 16.992 23.9998 17H17.9997C17.8663 16.992 17.7327 17.0123 17.6078 17.0598C17.4828 17.1072 17.3693 17.1806 17.2748 17.2751C17.1803 17.3696 17.1069 17.4831 17.0595 17.608C17.0121 17.733 16.9917 17.8666 16.9997 18V24C16.9917 24.1334 17.0121 24.267 17.0595 24.392C17.1069 24.5169 17.1803 24.6304 17.2748 24.7249C17.3693 24.8194 17.4828 24.8928 17.6078 24.9402C17.7327 24.9876 17.8663 25.008 17.9997 25H23.9998C24.2648 24.9995 24.5189 24.8939 24.7063 24.7065C24.8937 24.5191 24.9992 24.265 24.9998 24ZM22.9998 23H18.9997V19H22.9998V23ZM13.9997 6.99999H7.99975C7.86634 6.99197 7.73274 7.01235 7.60778 7.05976C7.48282 7.10718 7.36934 7.18057 7.27483 7.27507C7.18032 7.36958 7.10694 7.48306 7.05952 7.60802C7.0121 7.73298 6.99173 7.86658 6.99975 7.99999V14C6.99173 14.1334 7.0121 14.267 7.05952 14.392C7.10694 14.5169 7.18032 14.6304 7.27483 14.7249C7.36934 14.8194 7.48282 14.8928 7.60778 14.9402C7.73274 14.9876 7.86634 15.008 7.99975 15H13.9997C14.1332 15.008 14.2668 14.9876 14.3917 14.9402C14.5167 14.8928 14.6302 14.8194 14.7247 14.7249C14.8192 14.6304 14.8926 14.5169 14.94 14.392C14.9874 14.267 15.0078 14.1334 14.9997 14V7.99999C15.0078 7.86658 14.9874 7.73298 14.94 7.60802C14.8926 7.48306 14.8192 7.36958 14.7247 7.27507C14.6302 7.18057 14.5167 7.10718 14.3917 7.05976C14.2668 7.01235 14.1332 6.99197 13.9997 6.99999ZM12.9997 13H8.99975V8.99999H12.9997V13ZM17.9997 15H23.9998C24.1332 15.008 24.2668 14.9876 24.3917 14.9402C24.5167 14.8928 24.6302 14.8194 24.7247 14.7249C24.8192 14.6304 24.8926 14.5169 24.94 14.392C24.9874 14.267 25.0078 14.1334 24.9998 14V7.99999C25.0078 7.86658 24.9874 7.73298 24.94 7.60802C24.8926 7.48306 24.8192 7.36958 24.7247 7.27507C24.6302 7.18057 24.5167 7.10718 24.3917 7.05976C24.2668 7.01235 24.1332 6.99197 23.9998 6.99999H17.9997C17.8663 6.99197 17.7327 7.01235 17.6078 7.05976C17.4828 7.10718 17.3693 7.18057 17.2748 7.27507C17.1803 7.36958 17.1069 7.48306 17.0595 7.60802C17.0121 7.73298 16.9917 7.86658 16.9997 7.99999V14C17.0003 14.265 17.1058 14.5191 17.2932 14.7065C17.4806 14.8939 17.7347 14.9995 17.9997 15ZM18.9997 8.99999H22.9998V13H18.9997V8.99999Z" fill="url(#paint1_linear_1020_2234)"/>
<path d="M4 4H9V2H4C3.47005 2.00158 2.96227 2.2128 2.58753 2.58753C2.2128 2.96227 2.00158 3.47005 2 4V28C2.00158 28.5299 2.2128 29.0377 2.58753 29.4125C2.96227 29.7872 3.47005 29.9984 4 30H9V28H4V4Z" fill="url(#paint2_linear_1020_2234)"/>
<defs>
<linearGradient id="paint0_linear_1020_2234" x1="18.4989" y1="2" x2="18.4989" y2="30" gradientUnits="userSpaceOnUse">
<stop stop-color="#3D67B1"/>
<stop offset="1" stop-color="#4361EE"/>
</linearGradient>
<linearGradient id="paint1_linear_1020_2234" x1="15.9997" y1="6.99829" x2="15.9997" y2="25.0017" gradientUnits="userSpaceOnUse">
<stop stop-color="#3D67B1"/>
<stop offset="1" stop-color="#4361EE"/>
</linearGradient>
<linearGradient id="paint2_linear_1020_2234" x1="5.5" y1="2" x2="5.5" y2="30" gradientUnits="userSpaceOnUse">
<stop stop-color="#3D67B1"/>
<stop offset="1" stop-color="#4361EE"/>
</linearGradient>
</defs>
</svg>
