<svg width="32" height="32" viewBox="0 0 32 32" fill="none" xmlns="http://www.w3.org/2000/svg">
<path d="M28 10H23V6C22.9995 5.46973 22.7886 4.96133 22.4136 4.58637C22.0387 4.21141 21.5303 4.00053 21 4H11C10.4697 4.00053 9.96133 4.21141 9.58637 4.58637C9.21141 4.96133 9.00053 5.46973 9 6V10H4C3.46973 10.0005 2.96133 10.2114 2.58637 10.5864C2.21141 10.9613 2.00053 11.4697 2 12V28C2.00053 28.5303 2.21141 29.0387 2.58637 29.4136C2.96133 29.7886 3.46973 29.9995 4 30H28C28.5303 29.9995 29.0387 29.7886 29.4136 29.4136C29.7886 29.0387 29.9995 28.5303 30 28V12C29.9995 11.4697 29.7886 10.9613 29.4136 10.5864C29.0387 10.2114 28.5303 10.0005 28 10ZM4 28V12H9V14H7V16H9V18H7V20H9V22H7V24H9V28H4ZM21 28H11V6H21V28ZM28 28H23V24H25V22H23V20H25V18H23V16H25V14H23V12H28V28Z" fill="url(#paint0_linear_1020_2241)"/>
<path d="M14 8H18V10H14V8ZM14 12H18V14H14V12ZM14 16H18V18H14V16Z" fill="url(#paint1_linear_1020_2241)"/>
<defs>
<linearGradient id="paint0_linear_1020_2241" x1="16" y1="4" x2="16" y2="30" gradientUnits="userSpaceOnUse">
<stop stop-color="#3D67B1"/>
<stop offset="1" stop-color="#4361EE"/>
</linearGradient>
<linearGradient id="paint1_linear_1020_2241" x1="16" y1="8" x2="16" y2="18" gradientUnits="userSpaceOnUse">
<stop stop-color="#3D67B1"/>
<stop offset="1" stop-color="#4361EE"/>
</linearGradient>
</defs>
</svg>
