<svg width="45" height="45" viewBox="0 0 45 45" fill="none" xmlns="http://www.w3.org/2000/svg">
<path d="M5.625 28.125V30.9375H12.0741L2.8125 40.1991L4.80094 42.1875L14.0625 32.9259V39.375H16.875V28.125H5.625ZM28.125 30.9375H33.75V33.75H28.125V30.9375ZM22.5 25.3125H28.125V28.125H22.5V25.3125ZM28.125 19.6875H33.75V22.5H28.125V19.6875ZM11.25 19.6875H16.875V22.5H11.25V19.6875Z" fill="white"/>
<path d="M37.9688 4.21875H7.03125C6.28567 4.21987 5.57095 4.51654 5.04374 5.04374C4.51654 5.57095 4.21987 6.28567 4.21875 7.03125V22.5H7.03125V15.4688H37.9688V37.9688H22.5V40.7812H37.9688C38.7143 40.7801 39.4291 40.4835 39.9563 39.9563C40.4835 39.4291 40.7801 38.7143 40.7812 37.9688V7.03125C40.7801 6.28567 40.4835 5.57095 39.9563 5.04374C39.4291 4.51654 38.7143 4.21987 37.9688 4.21875ZM37.9688 12.6562H7.03125V7.03125H37.9688V12.6562Z" fill="white"/>
</svg>
