<svg width="47" height="47" viewBox="0 0 47 47" fill="none" xmlns="http://www.w3.org/2000/svg">
<path d="M16.3137 7.3579C16.3859 7.4943 16.4306 7.64359 16.4451 7.79726C16.4596 7.95092 16.4438 8.10595 16.3984 8.25347C16.353 8.401 16.279 8.53813 16.1806 8.65705C16.0822 8.77596 15.9613 8.87432 15.8249 8.9465C12.894 10.4975 10.4974 12.8941 8.9464 15.825C8.87419 15.9614 8.77582 16.0822 8.6569 16.1806C8.53798 16.279 8.40085 16.353 8.25334 16.3984C8.10582 16.4438 7.95081 16.4596 7.79716 16.4451C7.6435 16.4306 7.49421 16.386 7.3578 16.3138C7.2214 16.2415 7.10055 16.1432 7.00217 16.0242C6.90378 15.9053 6.82978 15.7682 6.78439 15.6207C6.739 15.4732 6.72312 15.3182 6.73763 15.1645C6.75215 15.0108 6.79679 14.8616 6.869 14.7252C8.6411 11.3775 11.3792 8.6402 14.7274 6.8691C15.0026 6.72393 15.3242 6.69386 15.6216 6.7855C15.919 6.87713 16.1679 7.08299 16.3137 7.3579ZM30.6863 7.3579C30.7584 7.22147 30.8568 7.1006 30.9757 7.00219C31.0946 6.90379 31.2318 6.82977 31.3793 6.78438C31.5268 6.73899 31.6818 6.72311 31.8355 6.73764C31.9892 6.75218 32.1385 6.79685 32.2749 6.8691C35.6222 8.64058 38.3594 11.3778 40.1309 14.7252C40.2767 15.0006 40.3072 15.3228 40.2155 15.6207C40.1238 15.9186 39.9176 16.1679 39.6421 16.3138C39.3666 16.4596 39.0445 16.49 38.7466 16.3984C38.4487 16.3067 38.1993 16.1004 38.0535 15.825C36.5032 12.8944 34.1075 10.4978 31.1774 8.9465C31.0408 8.87452 30.9197 8.77631 30.821 8.65749C30.7224 8.53866 30.6481 8.40156 30.6025 8.25402C30.5569 8.10648 30.5408 7.95139 30.5552 7.79763C30.5696 7.64386 30.6141 7.49444 30.6863 7.3579ZM7.36015 30.6864C7.63539 30.5412 7.95698 30.5111 8.25435 30.6027C8.55173 30.6944 8.80062 30.9002 8.9464 31.1752C10.4974 34.106 12.894 36.5026 15.8249 38.0536C16.0934 38.2029 16.2928 38.4515 16.3803 38.746C16.4678 39.0406 16.4364 39.3577 16.2929 39.6294C16.1494 39.9011 15.9051 40.1058 15.6125 40.1996C15.3198 40.2933 15.0021 40.2687 14.7274 40.131C11.3792 38.3599 8.6411 35.6226 6.869 32.275C6.79684 32.1384 6.7523 31.989 6.73793 31.8352C6.72356 31.6815 6.73965 31.5264 6.78526 31.3788C6.83088 31.2313 6.90513 31.0942 7.00378 30.9754C7.10242 30.8565 7.22352 30.7583 7.36015 30.6864ZM39.6421 30.6864C39.7785 30.7585 39.8994 30.8569 39.9978 30.9758C40.0962 31.0947 40.1702 31.2319 40.2156 31.3794C40.261 31.5269 40.2769 31.6819 40.2624 31.8356C40.2478 31.9893 40.2032 32.1386 40.1309 32.275C38.3594 35.6223 35.6222 38.3595 32.2749 40.131C32.1381 40.207 31.9876 40.2549 31.8322 40.272C31.6767 40.2891 31.5194 40.2749 31.3694 40.2304C31.2195 40.1858 31.0799 40.1118 30.959 40.0126C30.838 39.9135 30.7381 39.7912 30.665 39.6529C30.592 39.5146 30.5473 39.3631 30.5335 39.2073C30.5198 39.0514 30.5373 38.8945 30.585 38.7455C30.6327 38.5966 30.7097 38.4586 30.8114 38.3398C30.9132 38.221 31.0376 38.1237 31.1774 38.0536C34.1075 36.5023 36.5032 34.1057 38.0535 31.1752C38.1257 31.0387 38.224 30.9179 38.343 30.8194C38.4619 30.721 38.599 30.647 38.7465 30.6016C38.8941 30.5562 39.0491 30.5404 39.2028 30.5549C39.3564 30.5694 39.5057 30.6141 39.6421 30.6864ZM23.5 12.9251C23.1468 12.9249 22.7939 12.9421 22.4425 12.9768C22.2889 12.9922 22.1339 12.9772 21.9861 12.9327C21.8384 12.8882 21.7008 12.8151 21.5813 12.7174C21.4619 12.6198 21.3628 12.4995 21.2898 12.3636C21.2168 12.2276 21.1713 12.0787 21.1558 11.9251C21.1404 11.7716 21.1554 11.6165 21.1999 11.4688C21.2444 11.321 21.3175 11.1835 21.4152 11.064C21.5128 10.9445 21.6331 10.8455 21.769 10.7725C21.9049 10.6995 22.0539 10.6539 22.2075 10.6385C25.1652 10.3415 28.135 11.0728 30.6167 12.7091C33.0984 14.3455 34.9405 16.787 35.8328 19.6226C35.9262 19.9198 35.8978 20.2421 35.7537 20.5184C35.6096 20.7948 35.3616 21.0025 35.0643 21.096C34.767 21.1895 34.4448 21.1611 34.1684 21.0169C33.8921 20.8728 33.6843 20.6248 33.5909 20.3276C32.915 18.1808 31.5721 16.3055 29.7573 14.9742C27.9426 13.643 25.7506 12.9251 23.5 12.9251ZM17.39 13.3951C17.4825 13.5185 17.5499 13.659 17.5882 13.8084C17.6265 13.9579 17.635 14.1135 17.6131 14.2662C17.5913 14.419 17.5396 14.5659 17.461 14.6987C17.3824 14.8315 17.2784 14.9475 17.155 15.0401C15.8405 16.0241 14.7737 17.3011 14.0394 18.7698C13.3051 20.2384 12.9235 21.8581 12.925 23.5001C12.925 25.4271 13.442 27.2319 14.3397 28.7876C14.493 29.0573 14.5335 29.3767 14.4522 29.6762C14.3709 29.9756 14.1744 30.2307 13.9057 30.3859C13.637 30.541 13.3178 30.5836 13.0179 30.5043C12.7179 30.425 12.4615 30.2302 12.3046 29.9626C11.1685 27.9985 10.5718 25.769 10.575 23.5001C10.575 19.2701 12.6077 15.5148 15.745 13.1601C15.8684 13.0675 16.0089 13.0001 16.1583 12.9618C16.3078 12.9235 16.4634 12.915 16.6161 12.9369C16.7689 12.9587 16.9158 13.0104 17.0486 13.089C17.1814 13.1676 17.2974 13.2716 17.39 13.3951ZM35.0643 25.9041C35.2115 25.9504 35.3482 26.0252 35.4665 26.1243C35.5847 26.2234 35.6824 26.3448 35.7537 26.4817C35.8251 26.6185 35.8688 26.768 35.8823 26.9217C35.8959 27.0755 35.8791 27.2303 35.8328 27.3776C35.2516 29.2242 34.2632 30.9168 32.9405 32.3304C31.6178 33.744 29.9945 34.8426 28.1905 35.545C26.3864 36.2474 24.4477 36.5357 22.5173 36.3886C20.587 36.2416 18.7143 35.663 17.0375 34.6955C16.7698 34.5385 16.575 34.2821 16.4957 33.9821C16.4164 33.6822 16.459 33.363 16.6141 33.0943C16.7693 32.8256 17.0244 32.6291 17.3238 32.5478C17.6233 32.4666 17.9427 32.507 18.2125 32.6604C19.5845 33.4519 21.1167 33.9252 22.6962 34.0455C24.2756 34.1657 25.8618 33.9297 27.3379 33.355C28.8139 32.7803 30.142 31.8815 31.2243 30.7249C32.3066 29.5683 33.1153 28.1835 33.5909 26.6726C33.6371 26.5253 33.712 26.3887 33.8111 26.2704C33.9102 26.1521 34.0316 26.0545 34.1684 25.9831C34.3052 25.9118 34.4548 25.8681 34.6085 25.8545C34.7622 25.841 34.9171 25.8578 35.0643 25.9041ZM18.8023 23.5001C18.8023 22.2535 19.2975 21.0581 20.1789 20.1767C21.0603 19.2952 22.2558 18.8001 23.5023 18.8001C24.7488 18.8001 25.9443 19.2952 26.8257 20.1767C27.7071 21.0581 28.2023 22.2535 28.2023 23.5001C28.2023 24.7466 27.7071 25.942 26.8257 26.8235C25.9443 27.7049 24.7488 28.2001 23.5023 28.2001C22.2558 28.2001 21.0603 27.7049 20.1789 26.8235C19.2975 25.942 18.8023 24.7466 18.8023 23.5001ZM23.5023 16.4501C21.6325 16.4501 19.8393 17.1928 18.5172 18.515C17.1951 19.8371 16.4523 21.6303 16.4523 23.5001C16.4523 25.3698 17.1951 27.163 18.5172 28.4852C19.8393 29.8073 21.6325 30.5501 23.5023 30.5501C25.3721 30.5501 27.1653 29.8073 28.4874 28.4852C29.8095 27.163 30.5523 25.3698 30.5523 23.5001C30.5523 21.6303 29.8095 19.8371 28.4874 18.515C27.1653 17.1928 25.3721 16.4501 23.5023 16.4501Z" fill="white"/>
</svg>
