<svg width="23" height="29" viewBox="0 0 23 29" fill="none" xmlns="http://www.w3.org/2000/svg">
<path d="M2.35266 2.18038H2.20266V2.33038V9.06252V9.21252H2.35266H20.6481H20.7981V9.06252V2.33038V2.18038H20.6481H2.35266ZM20.6481 18.0161H20.7981V17.8661V11.1339V10.9839H20.6481H2.35266H2.20266V11.1339V17.8661V18.0161H2.35266H20.6481ZM20.6481 26.8196H20.7981V26.6696V19.9375V19.7875H20.6481H2.35266H2.20266V19.9375V26.6696V26.8196H2.35266H20.6481ZM1.04584 0.150024H21.9549C22.4517 0.150024 22.8504 0.547022 22.8504 1.03573V27.9643C22.8504 28.453 22.4517 28.85 21.9549 28.85H1.04584C0.549094 28.85 0.150391 28.453 0.150391 27.9643V1.03573C0.150391 0.547022 0.549094 0.150024 1.04584 0.150024ZM5.19326 6.50534C4.97647 6.29057 4.85494 5.99957 4.85494 5.69645C4.85494 5.39333 4.97647 5.10233 5.19326 4.88756C5.4101 4.67274 5.7045 4.55181 6.01175 4.55181C6.31901 4.55181 6.6134 4.67274 6.83024 4.88756C7.04704 5.10233 7.16857 5.39333 7.16857 5.69645C7.16857 5.99957 7.04704 6.29057 6.83024 6.50534C6.6134 6.72016 6.31901 6.84109 6.01175 6.84109C5.7045 6.84109 5.4101 6.72016 5.19326 6.50534ZM5.19326 15.3089C4.97647 15.0941 4.85494 14.8031 4.85494 14.5C4.85494 14.1969 4.97647 13.9059 5.19326 13.6911C5.4101 13.4763 5.7045 13.3554 6.01175 13.3554C6.31901 13.3554 6.6134 13.4763 6.83024 13.6911C7.04704 13.9059 7.16857 14.1969 7.16857 14.5C7.16857 14.8031 7.04704 15.0941 6.83024 15.3089C6.61341 15.5237 6.31901 15.6446 6.01175 15.6446C5.70449 15.6446 5.4101 15.5237 5.19326 15.3089ZM5.19326 24.1125C4.97647 23.8977 4.85494 23.6067 4.85494 23.3036C4.85494 23.0004 4.97647 22.7095 5.19326 22.4947C5.4101 22.2799 5.70449 22.1589 6.01175 22.1589C6.31901 22.1589 6.61341 22.2799 6.83024 22.4947C7.04704 22.7095 7.16857 23.0004 7.16857 23.3036C7.16857 23.6067 7.04704 23.8977 6.83024 24.1125C6.61341 24.3273 6.31901 24.4482 6.01175 24.4482C5.70449 24.4482 5.4101 24.3273 5.19326 24.1125Z" fill="#010B39" stroke="#010B39" stroke-width="0.3"/>
</svg>
