<svg width="26" height="26" viewBox="0 0 26 26" fill="none" xmlns="http://www.w3.org/2000/svg">
<path d="M5.89062 3.30313H5.74063V3.45312V8.73438V8.88438H5.89062H20.1094H20.2594V8.73438V3.45312V3.30313H20.1094H5.89062ZM20.1094 15.7906H20.2594V15.6406V10.3594V10.2094H20.1094H5.89062H5.74063V10.3594V15.6406V15.7906H5.89062H20.1094ZM20.1094 22.6969H20.2594V22.5469V17.2656V17.1156H20.1094H5.89062H5.74063V17.2656V22.5469V22.6969H5.89062H20.1094ZM4.875 1.775H21.125C21.4916 1.775 21.7875 2.07093 21.7875 2.4375V23.5625C21.7875 23.9291 21.4916 24.225 21.125 24.225H4.875C4.50843 24.225 4.2125 23.9291 4.2125 23.5625V2.4375C4.2125 2.07093 4.50843 1.775 4.875 1.775ZM8.12229 6.70584C7.95995 6.5435 7.86875 6.32333 7.86875 6.09375C7.86875 5.86417 7.95995 5.644 8.12229 5.48166C8.28462 5.31932 8.5048 5.22813 8.73438 5.22813C8.96395 5.22813 9.18413 5.31932 9.34646 5.48166C9.5088 5.644 9.6 5.86417 9.6 6.09375C9.6 6.32333 9.5088 6.5435 9.34646 6.70584C9.18413 6.86818 8.96395 6.95937 8.73438 6.95937C8.5048 6.95937 8.28462 6.86818 8.12229 6.70584ZM8.12229 13.6121C7.95995 13.4498 7.86875 13.2296 7.86875 13C7.86875 12.7704 7.95995 12.5502 8.12229 12.3879C8.28462 12.2256 8.5048 12.1344 8.73438 12.1344C8.96395 12.1344 9.18413 12.2256 9.34646 12.3879C9.5088 12.5502 9.6 12.7704 9.6 13C9.6 13.2296 9.5088 13.4498 9.34646 13.6121C9.18413 13.7744 8.96395 13.8656 8.73438 13.8656C8.5048 13.8656 8.28462 13.7744 8.12229 13.6121ZM8.12229 20.5183C7.95995 20.356 7.86875 20.1358 7.86875 19.9062C7.86875 19.6767 7.95995 19.4565 8.12229 19.2942C8.28462 19.1318 8.5048 19.0406 8.73438 19.0406C8.96395 19.0406 9.18413 19.1318 9.34646 19.2942C9.5088 19.4565 9.6 19.6767 9.6 19.9062C9.6 20.1358 9.5088 20.356 9.34646 20.5183C9.18413 20.6807 8.96395 20.7719 8.73438 20.7719C8.5048 20.7719 8.28462 20.6807 8.12229 20.5183Z" fill="#360B98" stroke="white" stroke-width="0.3"/>
</svg>
