<svg width="28" height="28" viewBox="0 0 28 28" fill="none" xmlns="http://www.w3.org/2000/svg">
<path d="M8.39922 4.2C7.28531 4.2 6.21702 4.6425 5.42937 5.43015C4.64172 6.2178 4.19922 7.28609 4.19922 8.4V19.6C4.19922 20.7139 4.64172 21.7822 5.42937 22.5698C6.21702 23.3575 7.28531 23.8 8.39922 23.8H19.5992C20.7131 23.8 21.7814 23.3575 22.5691 22.5698C23.3567 21.7822 23.7992 20.7139 23.7992 19.6V8.4C23.7992 7.28609 23.3567 6.2178 22.5691 5.43015C21.7814 4.6425 20.7131 4.2 19.5992 4.2H8.39922ZM9.79922 5.6V22.4H8.39922C7.65661 22.4 6.94442 22.105 6.41932 21.5799C5.89422 21.0548 5.59922 20.3426 5.59922 19.6V8.4C5.59922 7.65739 5.89422 6.9452 6.41932 6.4201C6.94442 5.895 7.65661 5.6 8.39922 5.6H9.79922ZM11.1992 22.4V18.2H22.3992V19.6C22.3992 20.3426 22.1042 21.0548 21.5791 21.5799C21.054 22.105 20.3418 22.4 19.5992 22.4H11.1992ZM22.3992 16.8H11.1992V5.6H19.5992C20.3418 5.6 21.054 5.895 21.5791 6.4201C22.1042 6.9452 22.3992 7.65739 22.3992 8.4V16.8Z" fill="#F2AC59"/>
</svg>
