<svg width="30" height="30" viewBox="0 0 30 30" fill="none" xmlns="http://www.w3.org/2000/svg">
<path d="M14.1625 18.85H15.8375V22.4H14.1625V18.85ZM18.85 16.975H20.525V22.4H18.85V16.975ZM9.475 13.225H11.15V22.4H9.475V13.225Z" fill="#43C773" stroke="white" stroke-width="0.2"/>
<path d="M20.525 4.6875V4.7875H20.625H23.4375C23.9083 4.7875 24.3597 4.97451 24.6926 5.30739C25.0255 5.64026 25.2125 6.09174 25.2125 6.5625V26.25C25.2125 26.7208 25.0255 27.1722 24.6926 27.5051C24.3597 27.838 23.9083 28.025 23.4375 28.025H6.5625C6.09174 28.025 5.64026 27.838 5.30739 27.5051C4.97451 27.1722 4.7875 26.7208 4.7875 26.25V6.5625C4.7875 6.09174 4.97451 5.64026 5.30739 5.30739C5.64026 4.97451 6.09174 4.7875 6.5625 4.7875H9.375H9.475V4.6875V3.75C9.475 3.27924 9.66201 2.82776 9.99489 2.49489C10.3278 2.16201 10.7792 1.975 11.25 1.975H18.75C19.2208 1.975 19.6722 2.16201 20.0051 2.49489C20.338 2.82776 20.525 3.27924 20.525 3.75V4.6875ZM11.25 3.65H11.15V3.75V7.5V7.6H11.25H18.75H18.85V7.5V3.75V3.65H18.75H11.25ZM23.4375 26.35H23.5375V26.25V6.5625V6.4625H23.4375H20.625H20.525V6.5625V9.275H9.475V6.5625V6.4625H9.375H6.5625H6.4625V6.5625V26.25V26.35H6.5625H23.4375Z" fill="#43C773" stroke="white" stroke-width="0.2"/>
</svg>
