<svg width="29" height="29" viewBox="0 0 29 29" fill="none" xmlns="http://www.w3.org/2000/svg">
<path d="M21.65 5.4375V5.5375H21.75H26.7343C27.0682 5.53789 27.3883 5.67071 27.6244 5.90683C27.8605 6.14294 27.9934 6.46307 27.9937 6.79699V25.828C27.9934 26.1619 27.8605 26.4821 27.6244 26.7182C27.3883 26.9543 27.0682 27.0871 26.7343 27.0875H2.26574C1.93182 27.0871 1.61169 26.9543 1.37558 26.7182C1.13946 26.4821 1.00664 26.1619 1.00625 25.828L1.00625 6.79694C1.00665 6.46304 1.13947 6.14293 1.37558 5.90683C1.61169 5.67071 1.93182 5.53789 2.26574 5.5375H7.25H7.35V5.4375V2.36563H8.9625V5.4375V5.5375H9.0625H19.9375H20.0375V5.4375V2.36563H21.65V5.4375ZM26.2812 25.475H26.3813V25.375V7.25V7.15H26.2812H21.75H21.65V7.25V9.41563H20.0375V7.25V7.15H19.9375H9.0625H8.9625V7.25V9.41563H7.35V7.25V7.15H7.25H2.71875H2.61875V7.25V25.375V25.475H2.71875H26.2812Z" fill="#ffffff" stroke="#DFDFDF" stroke-width="0.2"/>
<path d="M13.7151 17.8203L13.7858 17.891L13.8565 17.8203L19.6191 12.0577L20.7593 13.1979L13.7858 20.1714L9.56525 15.9509L10.7054 14.8106L13.7151 17.8203Z" fill="#ffffff" stroke="#DFDFDF" stroke-width="0.2"/>
</svg>
