<svg width="29" height="29" viewBox="0 0 29 29" fill="none" xmlns="http://www.w3.org/2000/svg">
<path d="M21.65 17.2188V18.025H20.0375V16.3125C20.0375 16.0987 20.1224 15.8936 20.2736 15.7424C20.4248 15.5912 20.6299 15.5063 20.8438 15.5063H26.2812C26.4951 15.5063 26.7002 15.5912 26.8514 15.7424C27.0026 15.8936 27.0875 16.0987 27.0875 16.3125V21.75C27.0875 21.9638 27.0026 22.1689 26.8514 22.3201C26.7002 22.4713 26.4951 22.5563 26.2812 22.5563H24.5687V20.9437H25.375H25.475V20.8438V17.2188V17.1187H25.375H21.75H21.65V17.2188Z" fill="#010B39" stroke="#DFDFDF" stroke-width="0.2"/>
<path d="M17.1187 25.375V25.475H17.2187H20.8437H20.9437V25.375V21.75V21.65H20.8437H17.2187H17.1187V21.75V25.375ZM21.75 27.0875H16.3125C16.0987 27.0875 15.8936 27.0026 15.7424 26.8514C15.5912 26.7002 15.5062 26.4951 15.5062 26.2813V20.8438C15.5062 20.6299 15.5912 20.4249 15.7424 20.2737C15.8936 20.1225 16.0987 20.0375 16.3125 20.0375H21.75C21.9638 20.0375 22.1689 20.1225 22.3201 20.2737C22.4713 20.4249 22.5562 20.6299 22.5562 20.8438V26.2813C22.5562 26.4951 22.4713 26.7002 22.3201 26.8514C22.1689 27.0026 21.9638 27.0875 21.75 27.0875ZM11.807 17.0524C12.2676 17.5384 12.8504 17.8907 13.4937 18.0728V19.7363C12.5345 19.5522 11.6433 19.1081 10.918 18.4515C10.1634 17.7685 9.61984 16.8839 9.35143 15.902C9.08301 14.9202 9.10094 13.8821 9.40308 12.9101C9.70522 11.9381 10.279 11.0728 11.0567 10.4162C11.8345 9.75955 12.7837 9.33899 13.7926 9.20409C14.8015 9.06919 15.8279 9.22558 16.7508 9.65481C17.6738 10.084 18.4547 10.7682 19.0016 11.6267C19.5306 12.457 19.8193 13.4169 19.8367 14.4H18.2238C18.207 13.7395 18.0144 13.0946 17.6651 12.5323C17.2982 11.9416 16.7729 11.4657 16.1491 11.1585C15.5252 10.8513 14.8277 10.7252 14.1358 10.7945C13.4438 10.8638 12.7852 11.1257 12.2347 11.5505C11.6841 11.9753 11.2637 12.546 11.0212 13.1977C10.7787 13.8495 10.7237 14.5561 10.8626 15.2375C11.0016 15.9189 11.3287 16.5476 11.807 17.0524Z" fill="#010B39" stroke="#DFDFDF" stroke-width="0.2"/>
<path d="M22.9477 12.8372L24.0929 13.9824L26.1159 12.2046L26.1815 12.2792L26.116 12.2045C26.4147 11.9426 26.6131 11.585 26.6771 11.1929C26.7412 10.8008 26.6669 10.3987 26.4671 10.0553L26.4669 10.0551L24.3282 6.35757L24.3277 6.35682C24.1795 6.09535 23.9642 5.8782 23.704 5.72779C23.4438 5.57739 23.1481 5.49918 22.8476 5.50125L22.8465 5.50126C22.6604 5.50039 22.4754 5.52927 22.2984 5.58679C22.2982 5.58685 22.298 5.58691 22.2979 5.58697L20.0967 6.32975L20.0503 6.34543L20.0094 6.31831C19.6328 6.06823 19.24 5.84337 18.8337 5.64519L18.7893 5.62355L18.7795 5.57515L18.3173 3.2914L18.3173 3.29106C18.2401 2.90268 18.0306 2.55305 17.7246 2.30171C17.4187 2.05037 17.035 1.91283 16.6391 1.9125L22.9477 12.8372ZM22.9477 12.8372L25.0517 10.9863L25.1133 10.9322L25.0722 10.8612L22.9335 7.16368L22.8925 7.09284L22.815 7.11899L19.7502 8.15245L22.9477 12.8372Z" fill="#010B39" stroke="#DFDFDF" stroke-width="0.2"/>
</svg>
