<svg width="34" height="34" viewBox="0 0 34 34" fill="none" xmlns="http://www.w3.org/2000/svg">
<path d="M5.10039 14.892V8.5C5.09869 8.058 5.18879 7.6177 5.36559 7.2114C5.53921 6.80955 5.78203 6.44129 6.08299 6.1234C6.38166 5.80646 6.74133 5.55318 7.14039 5.3788C7.54839 5.2003 7.98869 5.1068 8.43409 5.1H20.4667C20.9121 5.0966 21.3507 5.1918 21.7553 5.3788C22.1514 5.5624 22.5101 5.814 22.8178 6.1234C23.1255 6.4294 23.3703 6.7966 23.5352 7.1978C23.7052 7.6109 23.7953 8.0529 23.8004 8.5V20.4H28.9004V23.9071C28.9021 24.5616 28.7678 25.2076 28.5026 25.806C27.9753 27.0042 27.0182 27.9613 25.82 28.4886C25.2165 28.7543 24.5652 28.8943 23.9058 28.9H20.2593C20.1327 28.5419 19.9276 28.2167 19.6592 27.948L18.9112 27.2H22.1004V8.5C22.1017 8.27614 22.0565 8.05444 21.9678 7.8489C21.8806 7.64819 21.7592 7.46413 21.6091 7.3049C21.4562 7.1436 21.2708 7.01669 21.0651 6.9326C20.8545 6.84467 20.6286 6.7996 20.4004 6.8H8.50039C8.2784 6.79741 8.05816 6.83958 7.85283 6.92399C7.6475 7.0084 7.46128 7.13333 7.30529 7.2913C7.14942 7.44871 7.02329 7.63301 6.93299 7.8353C6.83709 8.04334 6.79166 8.27109 6.80039 8.5V14.0386C6.20043 14.2512 5.62935 14.5379 5.10039 14.892ZM23.8667 27.2C24.3019 27.2017 24.7303 27.1116 25.1281 26.9348C25.9271 26.5778 26.5646 25.9403 26.9216 25.1413C27.0994 24.7394 27.1942 24.3057 27.2004 23.8663V22.1H23.8004V27.2H23.8667ZM15.7186 17H17.8504C18.0758 17 18.292 16.9105 18.4514 16.751C18.6108 16.5916 18.7004 16.3754 18.7004 16.15C18.7004 15.9246 18.6108 15.7084 18.4514 15.549C18.292 15.3896 18.0758 15.3 17.8504 15.3H14.1682C14.7677 15.7853 15.2905 16.3584 15.7186 17ZM11.0504 11.9C10.825 11.9 10.6088 11.8104 10.4494 11.651C10.2899 11.4916 10.2004 11.2754 10.2004 11.05C10.2004 10.8246 10.2899 10.6084 10.4494 10.449C10.6088 10.2896 10.825 10.2 11.0504 10.2H17.8504C18.0758 10.2 18.292 10.2896 18.4514 10.449C18.6108 10.6084 18.7004 10.8246 18.7004 11.05C18.7004 11.2754 18.6108 11.4916 18.4514 11.651C18.292 11.8104 18.0758 11.9 17.8504 11.9H11.0504ZM12.9204 26.01C11.7164 26.913 10.2149 27.3262 8.71837 27.1663C7.22186 27.0065 5.84154 26.2854 4.85544 25.1485C3.86935 24.0115 3.35076 22.5431 3.40414 21.039C3.45752 19.5349 4.0789 18.1069 5.14311 17.0427C6.20732 15.9785 7.63529 15.3571 9.13937 15.3037C10.6434 15.2504 12.1119 15.769 13.2488 16.7551C14.3858 17.7411 15.1069 19.1215 15.2667 20.618C15.4266 22.1145 15.0134 23.616 14.1104 24.82L18.4573 29.1431C18.5363 29.222 18.599 29.3157 18.6418 29.4189C18.6847 29.522 18.7067 29.6326 18.7068 29.7443C18.7069 29.856 18.685 29.9666 18.6423 30.0698C18.5996 30.173 18.5371 30.2668 18.4581 30.3459C18.3792 30.4249 18.2855 30.4876 18.1824 30.5304C18.0792 30.5732 17.9686 30.5953 17.8569 30.5954C17.7453 30.5955 17.6347 30.5735 17.5314 30.5309C17.4282 30.4882 17.3344 30.4256 17.2554 30.3467L12.9204 26.01ZM6.98909 24.7843C7.45334 25.0945 7.97413 25.3102 8.52175 25.4192C9.06936 25.5281 9.63307 25.5281 10.1807 25.4192C10.7283 25.3103 11.2491 25.0945 11.7133 24.7843C12.1776 24.4741 12.5762 24.0755 12.8864 23.6113C13.1966 23.1471 13.4123 22.6263 13.5213 22.0787C13.6302 21.531 13.6302 20.9673 13.5213 20.4197C13.4123 19.8721 13.1966 19.3513 12.8864 18.8871C12.5762 18.4228 12.1776 18.0242 11.7134 17.714C10.7756 17.0873 9.62723 16.8588 8.52096 17.0788C7.41468 17.2988 6.4411 17.9492 5.81439 18.887C5.18769 19.8248 4.95919 20.9732 5.17917 22.0794C5.39915 23.1857 6.04959 24.1593 6.98739 24.786L6.98909 24.7843Z" fill="#010B39"/>
</svg>
