<svg width="30" height="30" viewBox="0 0 30 30" fill="none" xmlns="http://www.w3.org/2000/svg">
<path d="M15 15C14.8011 15 14.6103 15.079 14.4697 15.2197C14.329 15.3603 14.25 15.5511 14.25 15.75V20.25C14.25 20.4489 14.329 20.6397 14.4697 20.7803C14.6103 20.921 14.8011 21 15 21C15.1989 21 15.3897 20.921 15.5303 20.7803C15.671 20.6397 15.75 20.4489 15.75 20.25V15.75C15.75 15.5511 15.671 15.3603 15.5303 15.2197C15.3897 15.079 15.1989 15 15 15ZM9 12.75C9 12.5511 9.07902 12.3603 9.21967 12.2197C9.36032 12.079 9.55109 12 9.75 12C9.94891 12 10.1397 12.079 10.2803 12.2197C10.421 12.3603 10.5 12.5511 10.5 12.75V20.25C10.5 20.4489 10.421 20.6397 10.2803 20.7803C10.1397 20.921 9.94891 21 9.75 21C9.55109 21 9.36032 20.921 9.21967 20.7803C9.07902 20.6397 9 20.4489 9 20.25V12.75ZM20.25 9C20.0511 9 19.8603 9.07902 19.7197 9.21967C19.579 9.36032 19.5 9.55109 19.5 9.75V20.25C19.5 20.4489 19.579 20.6397 19.7197 20.7803C19.8603 20.921 20.0511 21 20.25 21C20.4489 21 20.6397 20.921 20.7803 20.7803C20.921 20.6397 21 20.4489 21 20.25V9.75C21 9.55109 20.921 9.36032 20.7803 9.21967C20.6397 9.07902 20.4489 9 20.25 9ZM4.5 7.5C4.5 6.70435 4.81607 5.94129 5.37868 5.37868C5.94129 4.81607 6.70435 4.5 7.5 4.5H22.5C23.2956 4.5 24.0587 4.81607 24.6213 5.37868C25.1839 5.94129 25.5 6.70435 25.5 7.5V22.5C25.5 23.2956 25.1839 24.0587 24.6213 24.6213C24.0587 25.1839 23.2956 25.5 22.5 25.5H7.5C6.70435 25.5 5.94129 25.1839 5.37868 24.6213C4.81607 24.0587 4.5 23.2956 4.5 22.5V7.5ZM6 7.5V22.5C6 22.8978 6.15804 23.2794 6.43934 23.5607C6.72064 23.842 7.10218 24 7.5 24H22.5C22.8978 24 23.2794 23.842 23.5607 23.5607C23.842 23.2794 24 22.8978 24 22.5V7.5C24 7.10218 23.842 6.72064 23.5607 6.43934C23.2794 6.15804 22.8978 6 22.5 6H7.5C7.10218 6 6.72064 6.15804 6.43934 6.43934C6.15804 6.72064 6 7.10218 6 7.5Z" fill="white"/>
</svg>
