<svg width="25" height="25" viewBox="0 0 25 25" fill="none" xmlns="http://www.w3.org/2000/svg">
<g clip-path="url(#clip0_974_2417)">
<path d="M21.8741 14.0625H23.4366V21.875H21.8741V14.0625ZM18.7491 10.9375H20.3116V21.875H18.7491V10.9375ZM15.6241 17.1875H17.1866V21.875H15.6241V17.1875ZM17.3233 7.81249L18.5616 6.82343C17.4102 5.38408 15.7849 4.40059 13.9756 4.04843C12.9675 3.8536 11.9307 3.8594 10.9248 4.06549C9.91883 4.27159 8.96335 4.67393 8.11299 5.24952C7.26263 5.82511 6.53405 6.56266 5.96891 7.42001C5.40378 8.27735 5.01316 9.23768 4.8194 10.2461C3.34619 10.5121 2.03054 11.3316 1.14214 12.5365C0.253729 13.7414 -0.140136 15.2405 0.0412738 16.7266C0.248843 18.1707 0.975227 19.4898 2.08465 20.4373C3.19406 21.3848 4.61058 21.8959 6.0694 21.875H12.4991V20.3125H6.01002C4.9868 20.3284 3.99001 19.9872 3.19122 19.3475C2.39242 18.7079 1.84157 17.8098 1.63346 16.8078C1.52927 16.2503 1.53633 15.6778 1.65426 15.1231C1.77218 14.5683 1.99863 14.0424 2.32057 13.5755C2.64252 13.1087 3.05361 12.71 3.53019 12.4026C4.00677 12.0953 4.53943 11.8851 5.09752 11.7844L6.15143 11.593L6.31862 10.7258C6.55333 9.42284 7.18567 8.22453 8.12878 7.29541C9.07188 6.36629 10.2795 5.75193 11.5858 5.53671C12.37 5.42029 13.1692 5.45476 13.9405 5.63827C15.2815 5.95959 16.474 6.72604 17.3233 7.81249Z" fill="#4361EE"/>
</g>
<defs>
<clipPath id="clip0_974_2417">
<rect width="25" height="25" fill="white"/>
</clipPath>
</defs>
</svg>
