<svg width="28" height="28" viewBox="0 0 28 28" fill="none" xmlns="http://www.w3.org/2000/svg">
<path d="M8.39922 4.19995C7.28531 4.19995 6.21702 4.64245 5.42937 5.4301C4.64172 6.21776 4.19922 7.28604 4.19922 8.39995V19.6C4.19922 20.7139 4.64172 21.7821 5.42937 22.5698C6.21702 23.3575 7.28531 23.8 8.39922 23.8H19.5992C20.7131 23.8 21.7814 23.3575 22.5691 22.5698C23.3567 21.7821 23.7992 20.7139 23.7992 19.6V8.39995C23.7992 7.28604 23.3567 6.21776 22.5691 5.4301C21.7814 4.64245 20.7131 4.19995 19.5992 4.19995H8.39922ZM9.79922 5.59995V22.4H8.39922C7.65661 22.4 6.94442 22.105 6.41932 21.5798C5.89422 21.0547 5.59922 20.3426 5.59922 19.6V8.39995C5.59922 7.65734 5.89422 6.94515 6.41932 6.42005C6.94442 5.89495 7.65661 5.59995 8.39922 5.59995H9.79922ZM11.1992 22.4V18.2H22.3992V19.6C22.3992 20.3426 22.1042 21.0547 21.5791 21.5798C21.054 22.105 20.3418 22.4 19.5992 22.4H11.1992ZM22.3992 16.8H11.1992V5.59995H19.5992C20.3418 5.59995 21.054 5.89495 21.5791 6.42005C22.1042 6.94515 22.3992 7.65734 22.3992 8.39995V16.8Z" fill="#4361EE"/>
</svg>
