<svg width="24" height="24" viewBox="0 0 24 24" fill="none" xmlns="http://www.w3.org/2000/svg">
<path d="M5.125 17.5C5.39695 17.5 5.66279 17.5806 5.88891 17.7317C6.11503 17.8828 6.29127 18.0976 6.39534 18.3488C6.49941 18.6001 6.52664 18.8765 6.47358 19.1432C6.42053 19.41 6.28957 19.655 6.09727 19.8473C5.90498 20.0396 5.65997 20.1705 5.39325 20.2236C5.12653 20.2766 4.85006 20.2494 4.59881 20.1453C4.34756 20.0413 4.13282 19.865 3.98173 19.6389C3.83064 19.4128 3.75 19.1469 3.75 18.875C3.75 18.5103 3.89487 18.1606 4.15273 17.9027C4.41059 17.6449 4.76033 17.5 5.125 17.5ZM5.125 16.125C4.5811 16.125 4.04942 16.2863 3.59718 16.5885C3.14495 16.8906 2.79247 17.3201 2.58433 17.8226C2.37619 18.3251 2.32173 18.878 2.42784 19.4115C2.53395 19.9449 2.79586 20.4349 3.18046 20.8195C3.56505 21.2041 4.05506 21.4661 4.5885 21.5722C5.12195 21.6783 5.67488 21.6238 6.17738 21.4157C6.67988 21.2075 7.10937 20.8551 7.41154 20.4028C7.71372 19.9506 7.875 19.4189 7.875 18.875C7.875 18.1457 7.58527 17.4462 7.06955 16.9305C6.55382 16.4147 5.85435 16.125 5.125 16.125ZM12 3.75C12.272 3.75 12.5378 3.83064 12.7639 3.98173C12.99 4.13282 13.1663 4.34756 13.2703 4.59881C13.3744 4.85006 13.4016 5.12653 13.3486 5.39325C13.2955 5.65997 13.1646 5.90497 12.9723 6.09727C12.78 6.28957 12.535 6.42053 12.2683 6.47358C12.0015 6.52663 11.7251 6.4994 11.4738 6.39533C11.2226 6.29126 11.0078 6.11503 10.8567 5.88891C10.7056 5.66279 10.625 5.39695 10.625 5.125C10.625 4.76033 10.7699 4.41059 11.0277 4.15273C11.2856 3.89487 11.6353 3.75 12 3.75ZM12 2.375C11.4561 2.375 10.9244 2.53628 10.4722 2.83846C10.0199 3.14063 9.66747 3.57012 9.45933 4.07262C9.25119 4.57512 9.19673 5.12805 9.30284 5.6615C9.40895 6.19495 9.67086 6.68495 10.0555 7.06954C10.4401 7.45414 10.9301 7.71605 11.4635 7.82216C11.997 7.92827 12.5499 7.87381 13.0524 7.66567C13.5549 7.45753 13.9844 7.10505 14.2865 6.65282C14.5887 6.20058 14.75 5.6689 14.75 5.125C14.75 4.39565 14.4603 3.69618 13.9445 3.18046C13.4288 2.66473 12.7293 2.375 12 2.375ZM18.875 3.75C19.1469 3.75 19.4128 3.83064 19.6389 3.98173C19.865 4.13282 20.0413 4.34756 20.1453 4.59881C20.2494 4.85006 20.2766 5.12653 20.2236 5.39325C20.1705 5.65997 20.0396 5.90497 19.8473 6.09727C19.655 6.28957 19.41 6.42053 19.1432 6.47358C18.8765 6.52663 18.6001 6.4994 18.3488 6.39533C18.0976 6.29126 17.8828 6.11503 17.7317 5.88891C17.5806 5.66279 17.5 5.39695 17.5 5.125C17.5 4.76033 17.6449 4.41059 17.9027 4.15273C18.1606 3.89487 18.5103 3.75 18.875 3.75ZM18.875 2.375C18.3311 2.375 17.7994 2.53628 17.3472 2.83846C16.8949 3.14063 16.5425 3.57012 16.3343 4.07262C16.1262 4.57512 16.0717 5.12805 16.1778 5.6615C16.284 6.19495 16.5459 6.68495 16.9305 7.06954C17.3151 7.45414 17.8051 7.71605 18.3385 7.82216C18.872 7.92827 19.4249 7.87381 19.9274 7.66567C20.4299 7.45753 20.8594 7.10505 21.1615 6.65282C21.4637 6.20058 21.625 5.6689 21.625 5.125C21.625 4.39565 21.3353 3.69618 20.8195 3.18046C20.3038 2.66473 19.6043 2.375 18.875 2.375ZM13.375 17.5V20.25H10.625V17.5H13.375ZM14.75 16.125H9.25V21.625H14.75V16.125Z" fill="#4361EE" stroke="white" stroke-width="0.4"/>
<path d="M19.4625 16.2212V16.2987L19.5375 16.3181C20.162 16.4793 20.7063 16.8628 21.0683 17.3966C21.4303 17.9305 21.5852 18.578 21.5039 19.2178C21.4226 19.8577 21.1108 20.4459 20.6268 20.8723C20.1428 21.2987 19.52 21.5339 18.875 21.5339C18.23 21.5339 17.6072 21.2987 17.1232 20.8723C16.6392 20.4459 16.3274 19.8577 16.2461 19.2178C16.1649 18.578 16.3197 17.9305 16.6817 17.3966C17.0437 16.8628 17.588 16.4793 18.2125 16.3181L18.2875 16.2987V16.2212V12.6875V12.5875H18.1875H5.8125C5.47435 12.5875 5.15005 12.4532 4.91094 12.2141C4.67183 11.975 4.5375 11.6507 4.5375 11.3125V7.875V7.775H4.4375H2.475V2.475H7.775V7.775H5.8125H5.7125V7.875V11.3125V11.4125H5.8125H18.1875C18.5257 11.4125 18.85 11.5468 19.0891 11.7859C19.3282 12.025 19.4625 12.3493 19.4625 12.6875V16.2212ZM3.75 3.65H3.65V3.75V6.5V6.6H3.75H6.5H6.6V6.5V3.75V3.65H6.5H3.75ZM18.0555 20.1014C18.2981 20.2635 18.5833 20.35 18.875 20.35C19.2662 20.35 19.6414 20.1946 19.918 19.918C20.1946 19.6414 20.35 19.2662 20.35 18.875C20.35 18.5833 20.2635 18.2981 20.1014 18.0555C19.9393 17.813 19.709 17.6239 19.4395 17.5123C19.1699 17.4006 18.8734 17.3714 18.5872 17.4283C18.3011 17.4853 18.0383 17.6257 17.832 17.832C17.6257 18.0383 17.4853 18.3011 17.4283 18.5872C17.3714 18.8734 17.4006 19.1699 17.5123 19.4395C17.6239 19.709 17.813 19.9393 18.0555 20.1014Z" fill="#4361EE" stroke="white" stroke-width="0.2"/>
<rect x="0.5" y="0.5" width="23" height="23" stroke="white"/>
</svg>
