<svg width="21" height="21" viewBox="0 0 21 21" fill="none" xmlns="http://www.w3.org/2000/svg">
<g clip-path="url(#clip0_1031_2143)">
<path d="M4.66797 11.0833V6.41663H2.91797C2.45384 6.41663 2.00872 6.601 1.68053 6.92919C1.35234 7.25738 1.16797 7.7025 1.16797 8.16663V18.6666C1.16884 18.775 1.19986 18.8809 1.25755 18.9726C1.31525 19.0643 1.39735 19.1381 1.49464 19.1858C1.58836 19.2284 1.69171 19.2455 1.79416 19.2352C1.89662 19.225 1.99454 19.1878 2.07797 19.1275L5.08214 16.9166H12.9221C13.1432 16.9232 13.3633 16.8842 13.5687 16.8023C13.7742 16.7203 13.9606 16.597 14.1164 16.4401C14.2723 16.2831 14.3943 16.0958 14.4748 15.8898C14.5553 15.6838 14.5927 15.4635 14.5846 15.2425V14.5833H8.16797C7.23971 14.5833 6.34947 14.2145 5.6931 13.5582C5.03672 12.9018 4.66797 12.0115 4.66797 11.0833Z" fill="black"/>
<path d="M17.5013 7.87504C16.8268 7.87666 16.1612 7.7219 15.5566 7.42292C14.9521 7.12394 14.425 6.68888 14.0169 6.1519C13.6088 5.61492 13.3308 4.99065 13.2046 4.3281C13.0784 3.66555 13.1075 2.98277 13.2896 2.33337H8.16797C7.70384 2.33337 7.25872 2.51775 6.93053 2.84594C6.60234 3.17413 6.41797 3.61925 6.41797 4.08337V11.0834C6.41797 11.5475 6.60234 11.9926 6.93053 12.3208C7.25872 12.649 7.70384 12.8334 8.16797 12.8334H16.0721L18.8605 14.9975C18.9434 15.0588 19.041 15.097 19.1435 15.1083C19.2459 15.1196 19.3496 15.1035 19.4438 15.0617C19.5431 15.0144 19.627 14.9401 19.6858 14.8472C19.7446 14.7543 19.776 14.6467 19.7763 14.5367V7.21587C19.0936 7.642 18.306 7.8702 17.5013 7.87504Z" fill="black"/>
<path d="M17.4987 6.41671C19.1095 6.41671 20.4154 5.11087 20.4154 3.50004C20.4154 1.88921 19.1095 0.583374 17.4987 0.583374C15.8879 0.583374 14.582 1.88921 14.582 3.50004C14.582 5.11087 15.8879 6.41671 17.4987 6.41671Z" fill="black"/>
</g>
<defs>
<clipPath id="clip0_1031_2143">
<rect width="21" height="21" fill="white"/>
</clipPath>
</defs>
</svg>
