<svg width="41" height="41" viewBox="0 0 41 41" fill="none" xmlns="http://www.w3.org/2000/svg">
<path d="M20.1875 0C9.03931 0 0 9.03931 0 20.1875C0 31.3357 9.03931 40.375 20.1875 40.375C31.3357 40.375 40.375 31.3357 40.375 20.1875C40.375 9.03931 31.3357 0 20.1875 0ZM26.6808 20.4984L16.8394 27.6587C16.7855 27.6974 16.7219 27.7206 16.6556 27.7256C16.5894 27.7306 16.523 27.7172 16.4639 27.6869C16.4048 27.6566 16.3551 27.6106 16.3204 27.554C16.2857 27.4973 16.2673 27.4322 16.2672 27.3658V13.0543C16.2669 12.9877 16.2852 12.9224 16.3198 12.8655C16.3544 12.8087 16.4041 12.7625 16.4634 12.7322C16.5227 12.7019 16.5892 12.6885 16.6555 12.6937C16.7219 12.6988 16.7856 12.7223 16.8394 12.7614L26.6808 19.9171C26.7273 19.95 26.7653 19.9936 26.7914 20.0441C26.8176 20.0947 26.8313 20.1508 26.8313 20.2078C26.8313 20.2647 26.8176 20.3208 26.7914 20.3714C26.7653 20.422 26.7273 20.4655 26.6808 20.4984Z" fill="#4361EE"/>
</svg>
