<svg width="162" height="26" viewBox="0 0 162 26" fill="none" xmlns="http://www.w3.org/2000/svg">
<path d="M149.098 15.8775L152.124 17.7408L151.301 14.2633L153.994 11.9374L150.46 11.6514L149.098 8.3505V15.8775ZM149.098 18.4168L142.784 22.306L144.501 15.0477L138.883 10.1943L146.257 9.5985L149.098 2.7085L151.939 9.5985L159.314 10.1943L153.696 15.0477L155.412 22.306L149.098 18.4168Z" fill="#435FA9"/>
<path d="M13.7543 18.4168L7.44042 22.306L9.15693 15.0477L3.53906 10.1943L10.9132 9.5985L13.7543 2.7085L16.5955 9.5985L23.9707 10.1943L18.3518 15.0477L20.0683 22.306L13.7543 18.4168Z" fill="#435FA9"/>
<path d="M47.5903 18.4168L41.2764 22.306L42.9929 15.0477L37.375 10.1943L44.7491 9.5985L47.5903 2.7085L50.4314 9.5985L57.8066 10.1943L52.1877 15.0477L53.9042 22.306L47.5903 18.4168Z" fill="#435FA9"/>
<path d="M81.4262 18.4168L75.1123 22.306L76.8288 15.0477L71.2109 10.1943L78.5851 9.5985L81.4262 2.7085L84.2674 9.5985L91.6426 10.1943L86.0236 15.0477L87.7401 22.306L81.4262 18.4168Z" fill="#435FA9"/>
<path d="M115.262 18.4168L108.948 22.306L110.665 15.0477L105.047 10.1943L112.421 9.5985L115.262 2.7085L118.103 9.5985L125.479 10.1943L119.86 15.0477L121.576 22.306L115.262 18.4168Z" fill="#435FA9"/>
</svg>
