<svg width="162" height="26" viewBox="0 0 162 26" fill="none" xmlns="http://www.w3.org/2000/svg">
<path d="M148.629 15.8774L151.647 17.7407L150.826 14.2632L153.512 11.9373L149.987 11.6513L148.629 8.35037V15.8774ZM148.629 18.4167L142.332 22.3059L144.044 15.0475L138.441 10.1942L145.795 9.59837L148.629 2.70837L151.462 9.59837L158.818 10.1942L153.214 15.0475L154.926 22.3059L148.629 18.4167Z" fill="#4361EE"/>
<path d="M13.6524 18.4167L7.3556 22.3059L9.06745 15.0475L3.46484 10.1942L10.8189 9.59837L13.6524 2.70837L16.4858 9.59837L23.841 10.1942L18.2373 15.0475L19.9491 22.3059L13.6524 18.4167Z" fill="#4361EE"/>
<path d="M47.3965 18.4167L41.0997 22.3059L42.8116 15.0475L37.209 10.1942L44.5631 9.59837L47.3965 2.70837L50.2299 9.59837L57.5851 10.1942L51.9814 15.0475L53.6933 22.3059L47.3965 18.4167Z" fill="#4361EE"/>
<path d="M81.1406 18.4167L74.8439 22.3059L76.5557 15.0475L70.9531 10.1942L78.3072 9.59837L81.1406 2.70837L83.9741 9.59837L91.3292 10.1942L85.7256 15.0475L87.4374 22.3059L81.1406 18.4167Z" fill="#4361EE"/>
<path d="M114.885 18.4167L108.588 22.3059L110.3 15.0475L104.697 10.1942L112.051 9.59837L114.885 2.70837L117.718 9.59837L125.073 10.1942L119.47 15.0475L121.182 22.3059L114.885 18.4167Z" fill="#4361EE"/>
</svg>
