<svg width="21" height="21" viewBox="0 0 21 21" fill="none" xmlns="http://www.w3.org/2000/svg">
<path d="M6.60188 11.7337C6.80392 11.7829 7.01083 11.8093 7.21875 11.8125C7.74005 11.8124 8.24951 11.657 8.68219 11.3663L10.7953 13.2497C10.6279 13.5676 10.5297 13.9173 10.5071 14.2758C10.4844 14.6343 10.5379 14.9936 10.6641 15.33C10.7965 15.7111 11.0151 16.0566 11.3028 16.3396C11.5904 16.6226 11.9394 16.8354 12.3227 16.9616C12.706 17.0878 13.1132 17.1239 13.5127 17.0671C13.9122 17.0104 14.2932 16.8623 14.6262 16.6344C14.9592 16.4065 15.2352 16.1049 15.4327 15.753C15.6302 15.4011 15.7439 15.0085 15.765 14.6055C15.7861 14.2025 15.714 13.8001 15.5543 13.4296C15.3947 13.059 15.1517 12.7302 14.8444 12.4688L16.5112 9.12844C16.8366 9.20182 17.1734 9.20884 17.5015 9.14908C17.8297 9.08932 18.1424 8.964 18.4209 8.78062C18.894 8.4919 19.2636 8.06084 19.4767 7.54921C19.6898 7.03757 19.7355 6.47162 19.6072 5.93243C19.4789 5.39323 19.1833 4.90848 18.7626 4.54761C18.342 4.18674 17.8179 3.96827 17.2655 3.92351C16.713 3.87875 16.1606 4.01 15.6874 4.29844C15.2141 4.58688 14.8443 5.01772 14.6309 5.52922C14.4175 6.04073 14.3714 6.60666 14.4994 7.14593C14.6273 7.6852 14.9227 8.17013 15.3431 8.53125L13.6763 11.8716C13.4952 11.8318 13.3104 11.812 13.125 11.8125C12.6037 11.8126 12.0942 11.968 11.6616 12.2587L9.54844 10.3753C9.71583 10.0574 9.81407 9.70774 9.83669 9.3492C9.85931 8.99066 9.80581 8.63139 9.67969 8.295C9.54819 7.91662 9.33185 7.57336 9.04722 7.29149C8.7626 7.00963 8.41724 6.79665 8.03759 6.66885C7.65795 6.54106 7.2541 6.50184 6.85696 6.55421C6.45982 6.60658 6.07994 6.74915 5.7464 6.97099C5.41287 7.19283 5.13453 7.48806 4.9327 7.83407C4.73087 8.18009 4.6109 8.5677 4.58199 8.96723C4.55308 9.36676 4.61599 9.7676 4.7659 10.1391C4.91581 10.5105 5.14875 10.8428 5.44688 11.1103L2.625 16.4062V1.3125H1.3125V18.375C1.3125 18.7231 1.45078 19.0569 1.69692 19.3031C1.94306 19.5492 2.2769 19.6875 2.625 19.6875H19.6875V18.375H3.06469L6.60188 11.7337ZM17.0625 5.25C17.3221 5.25 17.5758 5.32698 17.7917 5.4712C18.0075 5.61542 18.1758 5.8204 18.2751 6.06023C18.3744 6.30006 18.4004 6.56396 18.3498 6.81856C18.2991 7.07316 18.1741 7.30702 17.9906 7.49058C17.807 7.67413 17.5732 7.79914 17.3186 7.84978C17.064 7.90042 16.8001 7.87443 16.5602 7.77509C16.3204 7.67575 16.1154 7.50753 15.9712 7.29169C15.827 7.07585 15.75 6.82209 15.75 6.5625C15.75 6.2144 15.8883 5.88056 16.1344 5.63442C16.3806 5.38828 16.7144 5.25 17.0625 5.25ZM14.4375 14.4375C14.4375 14.6971 14.3605 14.9508 14.2163 15.1667C14.0721 15.3825 13.8671 15.5508 13.6273 15.6501C13.3874 15.7494 13.1235 15.7754 12.8689 15.7248C12.6143 15.6741 12.3805 15.5491 12.1969 15.3656C12.0134 15.182 11.8884 14.9482 11.8377 14.6936C11.7871 14.439 11.8131 14.1751 11.9124 13.9352C12.0117 13.6954 12.18 13.4904 12.3958 13.3462C12.6117 13.202 12.8654 13.125 13.125 13.125C13.4731 13.125 13.8069 13.2633 14.0531 13.5094C14.2992 13.7556 14.4375 14.0894 14.4375 14.4375ZM7.21875 7.875C7.47834 7.875 7.7321 7.95198 7.94794 8.0962C8.16378 8.24042 8.332 8.4454 8.43134 8.68523C8.53068 8.92506 8.55667 9.18896 8.50603 9.44356C8.45539 9.69816 8.33038 9.93202 8.14683 10.1156C7.96327 10.2991 7.72941 10.4241 7.47481 10.4748C7.22021 10.5254 6.95631 10.4994 6.71648 10.4001C6.47665 10.3008 6.27167 10.1325 6.12745 9.91669C5.98323 9.70085 5.90625 9.44709 5.90625 9.1875C5.90625 8.8394 6.04453 8.50556 6.29067 8.25942C6.53681 8.01328 6.87065 7.875 7.21875 7.875Z" fill="url(#paint0_linear_1019_2140)"/>
<defs>
<linearGradient id="paint0_linear_1019_2140" x1="10.5" y1="1.3125" x2="10.5" y2="19.6875" gradientUnits="userSpaceOnUse">
<stop stop-color="#00A8FF"/>
<stop offset="1" stop-color="#4361EE"/>
</linearGradient>
</defs>
</svg>
