<svg width="26" height="26" viewBox="0 0 26 26" fill="none" xmlns="http://www.w3.org/2000/svg">
<path d="M11.6996 15.6C11.3548 15.6 11.0242 15.463 10.7804 15.2192C10.5366 14.9754 10.3996 14.6448 10.3996 14.3V6.6079C8.47552 6.93906 6.7455 7.97953 5.55106 9.52391C4.35662 11.0683 3.78456 13.0043 3.94782 14.9499C4.11108 16.8954 4.99779 18.7091 6.4329 20.0328C7.86801 21.3565 9.74724 22.0941 11.6996 22.1C13.543 22.0998 15.3267 21.4469 16.7347 20.2571C18.1427 19.0673 19.084 17.4175 19.3917 15.6H11.6996ZM10.4035 5.291C11.1146 5.1896 11.6996 5.7824 11.6996 6.5V14.3H19.4996C20.2172 14.3 20.81 14.885 20.7086 15.5961C20.3755 17.8694 19.195 19.9327 17.4041 21.3719C15.6131 22.8111 13.3441 23.5198 11.0523 23.3558C8.76061 23.1918 6.61568 22.1672 5.04792 20.4876C3.48016 18.8079 2.60556 16.5976 2.59961 14.3C2.59972 12.1109 3.38872 9.99522 4.822 8.34061C6.25528 6.686 8.23683 5.60332 10.4035 5.291ZM14.2996 11.7V3.9C16.3683 3.9 18.3523 4.72178 19.815 6.18456C21.2778 7.64735 22.0996 9.63131 22.0996 11.7H14.2996ZM22.1802 13C22.8276 13 23.3853 12.5242 23.3983 11.8768L23.3996 11.7C23.3997 10.4901 23.1584 9.29225 22.69 8.17665C22.2216 7.06106 21.5354 6.05007 20.6716 5.20285C19.8078 4.35562 18.7837 3.68916 17.6592 3.24246C16.5348 2.79576 15.3325 2.57779 14.1228 2.6013C13.4754 2.6143 12.9996 3.1733 12.9996 3.8194V11.7C12.9996 12.0448 13.1366 12.3754 13.3804 12.6192C13.6242 12.863 13.9548 13 14.2996 13H22.1802Z" fill="url(#paint0_linear_1019_2125)"/>
<defs>
<linearGradient id="paint0_linear_1019_2125" x1="12.9996" y1="2.59958" x2="12.9996" y2="23.379" gradientUnits="userSpaceOnUse">
<stop stop-color="#00A8FF"/>
<stop offset="1" stop-color="#4361EE"/>
</linearGradient>
</defs>
</svg>
