<svg width="26" height="26" viewBox="0 0 26 26" fill="none" xmlns="http://www.w3.org/2000/svg">
<path d="M23.5625 13.6879V5.63334C23.5625 5.34602 23.4484 5.07047 23.2452 4.8673C23.042 4.66414 22.7665 4.55 22.4792 4.55H3.52083C3.23352 4.55 2.95797 4.66414 2.7548 4.8673C2.55164 5.07047 2.4375 5.34602 2.4375 5.63334V20.3667C2.4375 20.654 2.55164 20.9295 2.7548 21.1327C2.95797 21.3359 3.23352 21.45 3.52083 21.45H18.2894M2.4375 8.4695H23.5625" stroke="url(#paint0_linear_1019_2132)" stroke-linecap="round" stroke-linejoin="round"/>
<path d="M20.3068 22.5333C21.4356 22.1883 22.4406 21.5245 23.201 20.6218C23.9614 19.7191 24.4448 18.6159 24.593 17.4449C24.6659 16.4045 24.6598 15.3601 24.5746 14.3206C24.5632 14.1568 24.4912 14.0031 24.3726 13.8895C24.254 13.776 24.0974 13.7107 23.9333 13.7063C22.7412 13.7586 21.5753 13.3463 20.6811 12.5564C20.5814 12.4582 20.447 12.4031 20.3071 12.4031C20.1671 12.4031 20.0328 12.4582 19.9331 12.5564C19.0388 13.3463 17.873 13.7586 16.6809 13.7063C16.5168 13.7107 16.3601 13.776 16.2415 13.8895C16.123 14.0031 16.0509 14.1568 16.0396 14.3206C15.9544 15.3601 15.9482 16.4045 16.0211 17.4449C16.1693 18.6158 16.6526 19.719 17.4129 20.6217C18.1732 21.5244 19.1782 22.1882 20.3068 22.5333Z" stroke="url(#paint1_linear_1019_2132)" stroke-linecap="round" stroke-linejoin="round"/>
<defs>
<linearGradient id="paint0_linear_1019_2132" x1="13" y1="4.55" x2="13" y2="21.45" gradientUnits="userSpaceOnUse">
<stop stop-color="#00A8FF"/>
<stop offset="1" stop-color="#4361EE"/>
</linearGradient>
<linearGradient id="paint1_linear_1019_2132" x1="20.3071" y1="12.4031" x2="20.3071" y2="22.5333" gradientUnits="userSpaceOnUse">
<stop stop-color="#00A8FF"/>
<stop offset="1" stop-color="#4361EE"/>
</linearGradient>
</defs>
</svg>
