<svg width="21" height="21" viewBox="0 0 21 21" fill="none" xmlns="http://www.w3.org/2000/svg">
<path d="M19.6875 3.0555L18.8475 3.30159L3.81412 7.875H1.3125V13.125H3.81478L5.10628 13.5148L5.08659 13.5758V13.5968C4.66528 14.9828 5.44556 16.5237 6.89128 16.9595C6.89784 16.9614 6.90572 16.9575 6.91097 16.9595C8.30419 17.3828 9.84637 16.6117 10.2749 15.1548L10.2946 15.0931L18.8475 17.6984L19.6875 17.9438V3.0555ZM18.375 4.8195V16.1805L4.12125 11.8322L4.04053 11.8125H2.625V9.1875H4.03988L4.12191 9.16781L18.375 4.81884V4.8195ZM6.35709 13.904L9.04378 14.7046L9.02409 14.7656V14.7853C8.79834 15.5531 7.98328 15.9285 7.28109 15.7087C6.51328 15.4836 6.11822 14.6888 6.33741 13.986V13.9663L6.35709 13.904Z" fill="url(#paint0_linear_1019_2147)"/>
<defs>
<linearGradient id="paint0_linear_1019_2147" x1="10.5" y1="3.0555" x2="10.5" y2="17.9438" gradientUnits="userSpaceOnUse">
<stop stop-color="#00A8FF"/>
<stop offset="1" stop-color="#4361EE"/>
</linearGradient>
</defs>
</svg>
