<svg width="23" height="23" viewBox="0 0 23 23" fill="none" xmlns="http://www.w3.org/2000/svg">
<path d="M5.75 12.9375H8.625V14.375H5.75V12.9375ZM10.0625 12.9375H12.9375V14.375H10.0625V12.9375ZM5.75 10.0625H8.625V11.5H5.75V10.0625ZM10.0625 15.8125H12.9375V17.25H10.0625V15.8125ZM14.375 10.0625H17.25V11.5H14.375V10.0625ZM14.375 15.8125H17.25V17.25H14.375V15.8125Z" fill="url(#paint0_linear_1019_2116)"/>
<path d="M19.4062 2.15625H3.59375C3.21262 2.15663 2.84721 2.3082 2.5777 2.5777C2.3082 2.84721 2.15663 3.21262 2.15625 3.59375V19.4062C2.15663 19.7874 2.3082 20.1528 2.5777 20.4223C2.84721 20.6918 3.21262 20.8434 3.59375 20.8438H19.4062C19.7874 20.8434 20.1528 20.6918 20.4223 20.4223C20.6918 20.1528 20.8434 19.7874 20.8438 19.4062V3.59375C20.8434 3.21262 20.6918 2.84721 20.4223 2.5777C20.1528 2.3082 19.7874 2.15663 19.4062 2.15625ZM19.4062 3.59375V6.46875H3.59375V3.59375H19.4062ZM3.59375 19.4062V7.90625H19.4062V19.4062H3.59375Z" fill="url(#paint1_linear_1019_2116)"/>
<defs>
<linearGradient id="paint0_linear_1019_2116" x1="11.5" y1="10.0625" x2="11.5" y2="17.25" gradientUnits="userSpaceOnUse">
<stop stop-color="#00A8FF"/>
<stop offset="1" stop-color="#4361EE"/>
</linearGradient>
<linearGradient id="paint1_linear_1019_2116" x1="11.5" y1="2.15625" x2="11.5" y2="20.8438" gradientUnits="userSpaceOnUse">
<stop stop-color="#00A8FF"/>
<stop offset="1" stop-color="#4361EE"/>
</linearGradient>
</defs>
</svg>
