<svg width="24" height="24" viewBox="0 0 24 24" fill="none" xmlns="http://www.w3.org/2000/svg">
<path d="M16.9993 21.9998H6.99925C6.59925 21.9998 6.29925 21.7998 6.09925 21.3998C5.89925 20.9998 5.99925 20.5998 6.19925 20.2998L11.1993 14.2998C11.5993 13.7998 12.3993 13.7998 12.6993 14.2998L17.6993 20.2998C17.8993 20.5998 17.9993 20.9998 17.7993 21.3998C17.6993 21.7998 17.3993 21.9998 16.9993 21.9998ZM9.09925 19.9998H14.7993L11.9993 16.5998L9.09925 19.9998Z" fill="#4361EE"/>
<path d="M20 18H19C18.4 18 18 17.6 18 17C18 16.4 18.4 16 19 16H20C20.3 16 20.5 15.9 20.7 15.7C20.9 15.5 21 15.3 21 15V5C21 4.7 20.9 4.5 20.7 4.3C20.5 4.1 20.3 4 20 4H4C3.7 4 3.5 4.1 3.3 4.3C3.1 4.5 3 4.7 3 5V15C3 15.3 3.1 15.5 3.3 15.7C3.5 15.9 3.7 16 4 16H5C5.6 16 6 16.4 6 17C6 17.6 5.6 18 5 18H4C3.2 18 2.4 17.7 1.9 17.1C1.3 16.6 1 15.8 1 15V5C1 4.2 1.3 3.4 1.9 2.9C2.4 2.3 3.2 2 4 2H20C20.8 2 21.6 2.3 22.1 2.9C22.6 3.5 23 4.2 23 5V15C23 15.8 22.7 16.6 22.1 17.1C21.6 17.7 20.8 18 20 18Z" fill="#4361EE"/>
</svg>
