<svg width="24" height="24" viewBox="0 0 24 24" fill="none" xmlns="http://www.w3.org/2000/svg">
<g clip-path="url(#clip0_1589_3015)">
<path fill-rule="evenodd" clip-rule="evenodd" d="M18.899 14.8801C19.0361 14.3454 19.5777 14.0238 20.1087 14.1619C21.174 14.4388 22.1177 15.0642 22.7917 15.9398C23.4657 16.8153 23.8319 17.8915 23.8327 18.9994L23.8327 21.0001C23.8327 21.5524 23.3881 22.0001 22.8397 22.0001C22.2912 22.0001 21.8466 21.5524 21.8466 21.0001L21.8466 19.0009C21.8466 19.0008 21.8466 19.001 21.8466 19.0009C21.846 18.3363 21.6263 17.6904 21.222 17.1651C20.8176 16.6398 20.2513 16.2645 19.6122 16.0984C19.0812 15.9603 18.7618 15.4149 18.899 14.8801Z" fill="#3D67B1"/>
<path fill-rule="evenodd" clip-rule="evenodd" d="M1.4543 15.4645C2.38547 14.5268 3.6484 14 4.96528 14H12.9097C14.2266 14 15.4895 14.5268 16.4207 15.4645C17.3519 16.4021 17.875 17.6739 17.875 19V21C17.875 21.5523 17.4304 22 16.8819 22C16.3335 22 15.8889 21.5523 15.8889 21V19C15.8889 18.2044 15.575 17.4413 15.0163 16.8787C14.4576 16.3161 13.6998 16 12.9097 16H4.96528C4.17515 16 3.41739 16.3161 2.85869 16.8787C2.29999 17.4413 1.98611 18.2044 1.98611 19V21C1.98611 21.5523 1.54151 22 0.993056 22C0.444606 22 0 21.5523 0 21V19C0 17.6739 0.523126 16.4021 1.4543 15.4645Z" fill="#3D67B1"/>
<path fill-rule="evenodd" clip-rule="evenodd" d="M14.9278 2.88208C15.0638 2.34706 15.6048 2.02439 16.1361 2.16137C17.2041 2.43675 18.1508 3.06225 18.8268 3.93926C19.5029 4.81627 19.8698 5.89491 19.8698 7.00512C19.8698 8.11534 19.5029 9.19397 18.8268 10.071C18.1508 10.948 17.2041 11.5735 16.1361 11.8489C15.6048 11.9859 15.0638 11.6632 14.9278 11.1282C14.7917 10.5931 15.1122 10.0484 15.6435 9.91137C16.2843 9.74615 16.8523 9.37085 17.2579 8.84464C17.6635 8.31843 17.8837 7.67125 17.8837 7.00512C17.8837 6.339 17.6635 5.69181 17.2579 5.16561C16.8523 4.6394 16.2843 4.2641 15.6435 4.09887C15.1122 3.96189 14.7917 3.41711 14.9278 2.88208Z" fill="#3D67B1"/>
<path fill-rule="evenodd" clip-rule="evenodd" d="M8.93793 4C7.29259 4 5.95877 5.34315 5.95877 7C5.95877 8.65685 7.29259 10 8.93793 10C10.5833 10 11.9171 8.65685 11.9171 7C11.9171 5.34315 10.5833 4 8.93793 4ZM3.97266 7C3.97266 4.23858 6.19569 2 8.93793 2C11.6802 2 13.9032 4.23858 13.9032 7C13.9032 9.76142 11.6802 12 8.93793 12C6.19569 12 3.97266 9.76142 3.97266 7Z" fill="#3D67B1"/>
</g>
<defs>
<clipPath id="clip0_1589_3015">
<rect width="23.8333" height="24" fill="white"/>
</clipPath>
</defs>
</svg>
