<svg width="32" height="32" viewBox="0 0 32 32" fill="none" xmlns="http://www.w3.org/2000/svg">
<path d="M8 10H16V12H8V10ZM8 6H20V8H8V6ZM8 2H20V4H8V2Z" fill="url(#paint0_linear_1020_2216)"/>
<path d="M4.711 28L10.342 18.004L17.776 24.494C18.0007 24.694 18.2677 24.8407 18.5569 24.9232C18.8462 25.0057 19.1504 25.0219 19.4467 24.9706C19.7431 24.9192 20.0242 24.8017 20.2688 24.6268C20.5135 24.4518 20.7156 24.2239 20.86 23.96L27.83 13.557L26.169 12.443L19.169 22.891L19.099 22.994L11.664 16.504C11.4393 16.3052 11.1729 16.1594 10.8843 16.0773C10.5958 15.9952 10.2925 15.9791 9.99682 16.0299C9.70117 16.0808 9.42072 16.1974 9.17618 16.3712C8.93165 16.545 8.72927 16.7715 8.584 17.034L4 25.183V2H2V28C2.00053 28.5303 2.21141 29.0387 2.58637 29.4136C2.96133 29.7886 3.46973 29.9995 4 30H30V28H4.711Z" fill="url(#paint1_linear_1020_2216)"/>
<defs>
<linearGradient id="paint0_linear_1020_2216" x1="14" y1="2" x2="14" y2="12" gradientUnits="userSpaceOnUse">
<stop stop-color="#3D67B1"/>
<stop offset="1" stop-color="#4361EE"/>
</linearGradient>
<linearGradient id="paint1_linear_1020_2216" x1="16" y1="2" x2="16" y2="30" gradientUnits="userSpaceOnUse">
<stop stop-color="#3D67B1"/>
<stop offset="1" stop-color="#4361EE"/>
</linearGradient>
</defs>
</svg>
