<svg width="36" height="36" viewBox="0 0 36 36" fill="none" xmlns="http://www.w3.org/2000/svg">
<mask id="path-1-outside-1_1020_2227" maskUnits="userSpaceOnUse" x="4.15625" y="4.15671" width="27" height="27" fill="black">
<rect fill="white" x="4.15625" y="4.15671" width="27" height="27"/>
<path d="M12.4951 5.6358C12.5504 5.74027 12.5846 5.85463 12.5958 5.97233C12.6069 6.09003 12.5947 6.20877 12.56 6.32177C12.5252 6.43476 12.4685 6.53981 12.3931 6.63089C12.3177 6.72197 12.2252 6.79731 12.1207 6.8526C9.87577 8.0406 8.04007 9.87631 6.85207 12.1212C6.79675 12.2257 6.7214 12.3182 6.63032 12.3936C6.53923 12.469 6.4342 12.5256 6.32121 12.5604C6.20822 12.5952 6.08948 12.6073 5.97179 12.5962C5.8541 12.5851 5.73975 12.5509 5.63527 12.4956C5.53079 12.4403 5.43822 12.3649 5.36286 12.2739C5.28751 12.1828 5.23082 12.0777 5.19606 11.9647C5.16129 11.8517 5.14912 11.733 5.16024 11.6153C5.17136 11.4976 5.20555 11.3833 5.26087 11.2788C6.61822 8.71461 8.71547 6.61798 11.2801 5.2614C11.4909 5.1502 11.7372 5.12717 11.965 5.19736C12.1928 5.26755 12.3834 5.42523 12.4951 5.6358ZM23.5039 5.6358C23.5592 5.5313 23.6345 5.43872 23.7256 5.36334C23.8167 5.28797 23.9217 5.23128 24.0347 5.19651C24.1477 5.16174 24.2664 5.14957 24.3841 5.16071C24.5018 5.17184 24.6162 5.20606 24.7207 5.2614C27.2846 6.61827 29.3812 8.71487 30.7381 11.2788C30.8498 11.4898 30.8731 11.7365 30.8029 11.9647C30.7327 12.1929 30.5747 12.3839 30.3637 12.4956C30.1527 12.6073 29.9059 12.6306 29.6777 12.5604C29.4495 12.4902 29.2586 12.3322 29.1469 12.1212C27.9594 9.8765 26.1244 8.0408 23.8801 6.8526C23.7754 6.79746 23.6827 6.72224 23.6071 6.63123C23.5315 6.54021 23.4747 6.4352 23.4397 6.32219C23.4048 6.20917 23.3925 6.09038 23.4035 5.97261C23.4145 5.85483 23.4486 5.74038 23.5039 5.6358ZM5.63707 23.5044C5.84789 23.3932 6.09421 23.3702 6.32199 23.4404C6.54976 23.5105 6.7404 23.6682 6.85207 23.8788C8.04007 26.1237 9.87577 27.9594 12.1207 29.1474C12.3264 29.2618 12.4791 29.4522 12.5461 29.6778C12.6132 29.9034 12.5891 30.1463 12.4792 30.3544C12.3692 30.5625 12.1821 30.7193 11.958 30.7911C11.7338 30.8629 11.4905 30.8441 11.2801 30.7386C8.71547 29.382 6.61822 27.2854 5.26087 24.7212C5.20559 24.6166 5.17148 24.5022 5.16047 24.3844C5.14947 24.2666 5.16178 24.1478 5.19672 24.0348C5.23166 23.9218 5.28854 23.8168 5.3641 23.7258C5.43965 23.6348 5.53241 23.5595 5.63707 23.5044ZM30.3637 23.5044C30.4682 23.5597 30.5607 23.635 30.6361 23.7261C30.7115 23.8172 30.7682 23.9222 30.803 24.0352C30.8377 24.1482 30.8499 24.267 30.8388 24.3847C30.8276 24.5024 30.7934 24.6167 30.7381 24.7212C29.3812 27.2851 27.2846 29.3817 24.7207 30.7386C24.616 30.7968 24.5007 30.8335 24.3816 30.8466C24.2625 30.8597 24.142 30.8488 24.0271 30.8147C23.9123 30.7806 23.8054 30.7239 23.7128 30.6479C23.6201 30.572 23.5436 30.4783 23.4876 30.3724C23.4317 30.2664 23.3974 30.1504 23.3869 30.031C23.3763 29.9117 23.3898 29.7915 23.4263 29.6774C23.4629 29.5633 23.5218 29.4576 23.5997 29.3666C23.6777 29.2756 23.773 29.2011 23.8801 29.1474C26.1244 27.9592 27.9594 26.1235 29.1469 23.8788C29.2022 23.7743 29.2775 23.6817 29.3686 23.6063C29.4597 23.531 29.5647 23.4743 29.6777 23.4395C29.7907 23.4047 29.9094 23.3926 30.0271 23.4037C30.1448 23.4148 30.2592 23.4491 30.3637 23.5044ZM17.9995 9.9C17.729 9.89985 17.4586 9.91306 17.1895 9.9396C17.0719 9.95142 16.9531 9.93996 16.8399 9.90588C16.7268 9.87179 16.6214 9.81575 16.5299 9.74095C16.4384 9.66616 16.3625 9.57407 16.3066 9.46994C16.2507 9.36582 16.2158 9.2517 16.204 9.1341C16.1921 9.0165 16.2036 8.89773 16.2377 8.78456C16.2718 8.67139 16.3278 8.56604 16.4026 8.47453C16.4774 8.38301 16.5695 8.30713 16.6736 8.25121C16.7777 8.19528 16.8919 8.16042 17.0095 8.1486C19.275 7.92111 21.5497 8.48122 23.4506 9.7346C25.3515 10.988 26.7624 12.8581 27.4459 15.03C27.5175 15.2577 27.4957 15.5045 27.3853 15.7162C27.2749 15.9279 27.085 16.087 26.8573 16.1586C26.6296 16.2302 26.3827 16.2084 26.1711 16.098C25.9594 15.9877 25.8003 15.7977 25.7287 15.57C25.211 13.9257 24.1824 12.4893 22.7923 11.4696C21.4023 10.4499 19.7234 9.90007 17.9995 9.9ZM13.3195 10.26C13.3904 10.3546 13.442 10.4621 13.4713 10.5766C13.5006 10.6911 13.5071 10.8103 13.4904 10.9273C13.4737 11.0443 13.4341 11.1568 13.3739 11.2585C13.3137 11.3602 13.234 11.4491 13.1395 11.52C12.1326 12.2737 11.3155 13.2519 10.7531 14.3768C10.1906 15.5017 9.89835 16.7423 9.89947 18C9.89947 19.476 10.2955 20.8584 10.9831 22.05C11.1005 22.2566 11.1315 22.5013 11.0692 22.7306C11.007 22.96 10.8565 23.1554 10.6507 23.2742C10.4449 23.3931 10.2004 23.4257 9.97064 23.3649C9.74087 23.3042 9.54446 23.155 9.42427 22.95C8.55408 21.4456 8.09704 19.7379 8.09947 18C8.09947 14.76 9.65647 11.8836 12.0595 10.08C12.154 10.0091 12.2616 9.95749 12.3761 9.92816C12.4906 9.89883 12.6097 9.89233 12.7267 9.90905C12.8437 9.92576 12.9563 9.96536 13.058 10.0256C13.1597 10.0858 13.2486 10.1654 13.3195 10.26ZM26.8573 19.8414C26.97 19.8769 27.0747 19.9342 27.1653 20.0101C27.2559 20.086 27.3307 20.179 27.3853 20.2838C27.44 20.3886 27.4735 20.5031 27.4839 20.6209C27.4942 20.7386 27.4813 20.8572 27.4459 20.97C27.0007 22.3845 26.2437 23.6809 25.2305 24.7637C24.2174 25.8465 22.974 26.6879 21.5922 27.2259C20.2104 27.7639 18.7254 27.9847 17.2468 27.8721C15.7683 27.7595 14.3338 27.3163 13.0495 26.5752C12.8444 26.455 12.6953 26.2586 12.6345 26.0288C12.5738 25.7991 12.6064 25.5546 12.7252 25.3488C12.8441 25.143 13.0395 24.9925 13.2688 24.9302C13.4982 24.868 13.7429 24.8989 13.9495 25.0164C15.0004 25.6227 16.174 25.9852 17.3838 26.0773C18.5935 26.1694 19.8086 25.9887 20.9391 25.5485C22.0697 25.1083 23.087 24.4198 23.916 23.5339C24.745 22.648 25.3644 21.5873 25.7287 20.43C25.7641 20.3172 25.8214 20.2126 25.8973 20.122C25.9732 20.0314 26.0663 19.9566 26.1711 19.9019C26.2759 19.8473 26.3904 19.8138 26.5081 19.8034C26.6259 19.793 26.7445 19.8059 26.8573 19.8414ZM14.4013 18C14.4013 17.0452 14.7806 16.1295 15.4557 15.4544C16.1308 14.7793 17.0465 14.4 18.0013 14.4C18.956 14.4 19.8717 14.7793 20.5469 15.4544C21.222 16.1295 21.6013 17.0452 21.6013 18C21.6013 18.9548 21.222 19.8705 20.5469 20.5456C19.8717 21.2207 18.956 21.6 18.0013 21.6C17.0465 21.6 16.1308 21.2207 15.4557 20.5456C14.7806 19.8705 14.4013 18.9548 14.4013 18ZM18.0013 12.6C16.5691 12.6 15.1956 13.1689 14.1829 14.1816C13.1702 15.1943 12.6013 16.5678 12.6013 18C12.6013 19.4322 13.1702 20.8057 14.1829 21.8184C15.1956 22.8311 16.5691 23.4 18.0013 23.4C19.4334 23.4 20.8069 22.8311 21.8196 21.8184C22.8323 20.8057 23.4013 19.4322 23.4013 18C23.4013 16.5678 22.8323 15.1943 21.8196 14.1816C20.8069 13.1689 19.4334 12.6 18.0013 12.6Z"/>
</mask>
<path d="M12.4951 5.6358C12.5504 5.74027 12.5846 5.85463 12.5958 5.97233C12.6069 6.09003 12.5947 6.20877 12.56 6.32177C12.5252 6.43476 12.4685 6.53981 12.3931 6.63089C12.3177 6.72197 12.2252 6.79731 12.1207 6.8526C9.87577 8.0406 8.04007 9.87631 6.85207 12.1212C6.79675 12.2257 6.7214 12.3182 6.63032 12.3936C6.53923 12.469 6.4342 12.5256 6.32121 12.5604C6.20822 12.5952 6.08948 12.6073 5.97179 12.5962C5.8541 12.5851 5.73975 12.5509 5.63527 12.4956C5.53079 12.4403 5.43822 12.3649 5.36286 12.2739C5.28751 12.1828 5.23082 12.0777 5.19606 11.9647C5.16129 11.8517 5.14912 11.733 5.16024 11.6153C5.17136 11.4976 5.20555 11.3833 5.26087 11.2788C6.61822 8.71461 8.71547 6.61798 11.2801 5.2614C11.4909 5.1502 11.7372 5.12717 11.965 5.19736C12.1928 5.26755 12.3834 5.42523 12.4951 5.6358ZM23.5039 5.6358C23.5592 5.5313 23.6345 5.43872 23.7256 5.36334C23.8167 5.28797 23.9217 5.23128 24.0347 5.19651C24.1477 5.16174 24.2664 5.14957 24.3841 5.16071C24.5018 5.17184 24.6162 5.20606 24.7207 5.2614C27.2846 6.61827 29.3812 8.71487 30.7381 11.2788C30.8498 11.4898 30.8731 11.7365 30.8029 11.9647C30.7327 12.1929 30.5747 12.3839 30.3637 12.4956C30.1527 12.6073 29.9059 12.6306 29.6777 12.5604C29.4495 12.4902 29.2586 12.3322 29.1469 12.1212C27.9594 9.8765 26.1244 8.0408 23.8801 6.8526C23.7754 6.79746 23.6827 6.72224 23.6071 6.63123C23.5315 6.54021 23.4747 6.4352 23.4397 6.32219C23.4048 6.20917 23.3925 6.09038 23.4035 5.97261C23.4145 5.85483 23.4486 5.74038 23.5039 5.6358ZM5.63707 23.5044C5.84789 23.3932 6.09421 23.3702 6.32199 23.4404C6.54976 23.5105 6.7404 23.6682 6.85207 23.8788C8.04007 26.1237 9.87577 27.9594 12.1207 29.1474C12.3264 29.2618 12.4791 29.4522 12.5461 29.6778C12.6132 29.9034 12.5891 30.1463 12.4792 30.3544C12.3692 30.5625 12.1821 30.7193 11.958 30.7911C11.7338 30.8629 11.4905 30.8441 11.2801 30.7386C8.71547 29.382 6.61822 27.2854 5.26087 24.7212C5.20559 24.6166 5.17148 24.5022 5.16047 24.3844C5.14947 24.2666 5.16178 24.1478 5.19672 24.0348C5.23166 23.9218 5.28854 23.8168 5.3641 23.7258C5.43965 23.6348 5.53241 23.5595 5.63707 23.5044ZM30.3637 23.5044C30.4682 23.5597 30.5607 23.635 30.6361 23.7261C30.7115 23.8172 30.7682 23.9222 30.803 24.0352C30.8377 24.1482 30.8499 24.267 30.8388 24.3847C30.8276 24.5024 30.7934 24.6167 30.7381 24.7212C29.3812 27.2851 27.2846 29.3817 24.7207 30.7386C24.616 30.7968 24.5007 30.8335 24.3816 30.8466C24.2625 30.8597 24.142 30.8488 24.0271 30.8147C23.9123 30.7806 23.8054 30.7239 23.7128 30.6479C23.6201 30.572 23.5436 30.4783 23.4876 30.3724C23.4317 30.2664 23.3974 30.1504 23.3869 30.031C23.3763 29.9117 23.3898 29.7915 23.4263 29.6774C23.4629 29.5633 23.5218 29.4576 23.5997 29.3666C23.6777 29.2756 23.773 29.2011 23.8801 29.1474C26.1244 27.9592 27.9594 26.1235 29.1469 23.8788C29.2022 23.7743 29.2775 23.6817 29.3686 23.6063C29.4597 23.531 29.5647 23.4743 29.6777 23.4395C29.7907 23.4047 29.9094 23.3926 30.0271 23.4037C30.1448 23.4148 30.2592 23.4491 30.3637 23.5044ZM17.9995 9.9C17.729 9.89985 17.4586 9.91306 17.1895 9.9396C17.0719 9.95142 16.9531 9.93996 16.8399 9.90588C16.7268 9.87179 16.6214 9.81575 16.5299 9.74095C16.4384 9.66616 16.3625 9.57407 16.3066 9.46994C16.2507 9.36582 16.2158 9.2517 16.204 9.1341C16.1921 9.0165 16.2036 8.89773 16.2377 8.78456C16.2718 8.67139 16.3278 8.56604 16.4026 8.47453C16.4774 8.38301 16.5695 8.30713 16.6736 8.25121C16.7777 8.19528 16.8919 8.16042 17.0095 8.1486C19.275 7.92111 21.5497 8.48122 23.4506 9.7346C25.3515 10.988 26.7624 12.8581 27.4459 15.03C27.5175 15.2577 27.4957 15.5045 27.3853 15.7162C27.2749 15.9279 27.085 16.087 26.8573 16.1586C26.6296 16.2302 26.3827 16.2084 26.1711 16.098C25.9594 15.9877 25.8003 15.7977 25.7287 15.57C25.211 13.9257 24.1824 12.4893 22.7923 11.4696C21.4023 10.4499 19.7234 9.90007 17.9995 9.9ZM13.3195 10.26C13.3904 10.3546 13.442 10.4621 13.4713 10.5766C13.5006 10.6911 13.5071 10.8103 13.4904 10.9273C13.4737 11.0443 13.4341 11.1568 13.3739 11.2585C13.3137 11.3602 13.234 11.4491 13.1395 11.52C12.1326 12.2737 11.3155 13.2519 10.7531 14.3768C10.1906 15.5017 9.89835 16.7423 9.89947 18C9.89947 19.476 10.2955 20.8584 10.9831 22.05C11.1005 22.2566 11.1315 22.5013 11.0692 22.7306C11.007 22.96 10.8565 23.1554 10.6507 23.2742C10.4449 23.3931 10.2004 23.4257 9.97064 23.3649C9.74087 23.3042 9.54446 23.155 9.42427 22.95C8.55408 21.4456 8.09704 19.7379 8.09947 18C8.09947 14.76 9.65647 11.8836 12.0595 10.08C12.154 10.0091 12.2616 9.95749 12.3761 9.92816C12.4906 9.89883 12.6097 9.89233 12.7267 9.90905C12.8437 9.92576 12.9563 9.96536 13.058 10.0256C13.1597 10.0858 13.2486 10.1654 13.3195 10.26ZM26.8573 19.8414C26.97 19.8769 27.0747 19.9342 27.1653 20.0101C27.2559 20.086 27.3307 20.179 27.3853 20.2838C27.44 20.3886 27.4735 20.5031 27.4839 20.6209C27.4942 20.7386 27.4813 20.8572 27.4459 20.97C27.0007 22.3845 26.2437 23.6809 25.2305 24.7637C24.2174 25.8465 22.974 26.6879 21.5922 27.2259C20.2104 27.7639 18.7254 27.9847 17.2468 27.8721C15.7683 27.7595 14.3338 27.3163 13.0495 26.5752C12.8444 26.455 12.6953 26.2586 12.6345 26.0288C12.5738 25.7991 12.6064 25.5546 12.7252 25.3488C12.8441 25.143 13.0395 24.9925 13.2688 24.9302C13.4982 24.868 13.7429 24.8989 13.9495 25.0164C15.0004 25.6227 16.174 25.9852 17.3838 26.0773C18.5935 26.1694 19.8086 25.9887 20.9391 25.5485C22.0697 25.1083 23.087 24.4198 23.916 23.5339C24.745 22.648 25.3644 21.5873 25.7287 20.43C25.7641 20.3172 25.8214 20.2126 25.8973 20.122C25.9732 20.0314 26.0663 19.9566 26.1711 19.9019C26.2759 19.8473 26.3904 19.8138 26.5081 19.8034C26.6259 19.793 26.7445 19.8059 26.8573 19.8414ZM14.4013 18C14.4013 17.0452 14.7806 16.1295 15.4557 15.4544C16.1308 14.7793 17.0465 14.4 18.0013 14.4C18.956 14.4 19.8717 14.7793 20.5469 15.4544C21.222 16.1295 21.6013 17.0452 21.6013 18C21.6013 18.9548 21.222 19.8705 20.5469 20.5456C19.8717 21.2207 18.956 21.6 18.0013 21.6C17.0465 21.6 16.1308 21.2207 15.4557 20.5456C14.7806 19.8705 14.4013 18.9548 14.4013 18ZM18.0013 12.6C16.5691 12.6 15.1956 13.1689 14.1829 14.1816C13.1702 15.1943 12.6013 16.5678 12.6013 18C12.6013 19.4322 13.1702 20.8057 14.1829 21.8184C15.1956 22.8311 16.5691 23.4 18.0013 23.4C19.4334 23.4 20.8069 22.8311 21.8196 21.8184C22.8323 20.8057 23.4013 19.4322 23.4013 18C23.4013 16.5678 22.8323 15.1943 21.8196 14.1816C20.8069 13.1689 19.4334 12.6 18.0013 12.6Z" fill="url(#paint0_linear_1020_2227)"/>
<path d="M12.4951 5.6358C12.5504 5.74027 12.5846 5.85463 12.5958 5.97233C12.6069 6.09003 12.5947 6.20877 12.56 6.32177C12.5252 6.43476 12.4685 6.53981 12.3931 6.63089C12.3177 6.72197 12.2252 6.79731 12.1207 6.8526C9.87577 8.0406 8.04007 9.87631 6.85207 12.1212C6.79675 12.2257 6.7214 12.3182 6.63032 12.3936C6.53923 12.469 6.4342 12.5256 6.32121 12.5604C6.20822 12.5952 6.08948 12.6073 5.97179 12.5962C5.8541 12.5851 5.73975 12.5509 5.63527 12.4956C5.53079 12.4403 5.43822 12.3649 5.36286 12.2739C5.28751 12.1828 5.23082 12.0777 5.19606 11.9647C5.16129 11.8517 5.14912 11.733 5.16024 11.6153C5.17136 11.4976 5.20555 11.3833 5.26087 11.2788C6.61822 8.71461 8.71547 6.61798 11.2801 5.2614C11.4909 5.1502 11.7372 5.12717 11.965 5.19736C12.1928 5.26755 12.3834 5.42523 12.4951 5.6358ZM23.5039 5.6358C23.5592 5.5313 23.6345 5.43872 23.7256 5.36334C23.8167 5.28797 23.9217 5.23128 24.0347 5.19651C24.1477 5.16174 24.2664 5.14957 24.3841 5.16071C24.5018 5.17184 24.6162 5.20606 24.7207 5.2614C27.2846 6.61827 29.3812 8.71487 30.7381 11.2788C30.8498 11.4898 30.8731 11.7365 30.8029 11.9647C30.7327 12.1929 30.5747 12.3839 30.3637 12.4956C30.1527 12.6073 29.9059 12.6306 29.6777 12.5604C29.4495 12.4902 29.2586 12.3322 29.1469 12.1212C27.9594 9.8765 26.1244 8.0408 23.8801 6.8526C23.7754 6.79746 23.6827 6.72224 23.6071 6.63123C23.5315 6.54021 23.4747 6.4352 23.4397 6.32219C23.4048 6.20917 23.3925 6.09038 23.4035 5.97261C23.4145 5.85483 23.4486 5.74038 23.5039 5.6358ZM5.63707 23.5044C5.84789 23.3932 6.09421 23.3702 6.32199 23.4404C6.54976 23.5105 6.7404 23.6682 6.85207 23.8788C8.04007 26.1237 9.87577 27.9594 12.1207 29.1474C12.3264 29.2618 12.4791 29.4522 12.5461 29.6778C12.6132 29.9034 12.5891 30.1463 12.4792 30.3544C12.3692 30.5625 12.1821 30.7193 11.958 30.7911C11.7338 30.8629 11.4905 30.8441 11.2801 30.7386C8.71547 29.382 6.61822 27.2854 5.26087 24.7212C5.20559 24.6166 5.17148 24.5022 5.16047 24.3844C5.14947 24.2666 5.16178 24.1478 5.19672 24.0348C5.23166 23.9218 5.28854 23.8168 5.3641 23.7258C5.43965 23.6348 5.53241 23.5595 5.63707 23.5044ZM30.3637 23.5044C30.4682 23.5597 30.5607 23.635 30.6361 23.7261C30.7115 23.8172 30.7682 23.9222 30.803 24.0352C30.8377 24.1482 30.8499 24.267 30.8388 24.3847C30.8276 24.5024 30.7934 24.6167 30.7381 24.7212C29.3812 27.2851 27.2846 29.3817 24.7207 30.7386C24.616 30.7968 24.5007 30.8335 24.3816 30.8466C24.2625 30.8597 24.142 30.8488 24.0271 30.8147C23.9123 30.7806 23.8054 30.7239 23.7128 30.6479C23.6201 30.572 23.5436 30.4783 23.4876 30.3724C23.4317 30.2664 23.3974 30.1504 23.3869 30.031C23.3763 29.9117 23.3898 29.7915 23.4263 29.6774C23.4629 29.5633 23.5218 29.4576 23.5997 29.3666C23.6777 29.2756 23.773 29.2011 23.8801 29.1474C26.1244 27.9592 27.9594 26.1235 29.1469 23.8788C29.2022 23.7743 29.2775 23.6817 29.3686 23.6063C29.4597 23.531 29.5647 23.4743 29.6777 23.4395C29.7907 23.4047 29.9094 23.3926 30.0271 23.4037C30.1448 23.4148 30.2592 23.4491 30.3637 23.5044ZM17.9995 9.9C17.729 9.89985 17.4586 9.91306 17.1895 9.9396C17.0719 9.95142 16.9531 9.93996 16.8399 9.90588C16.7268 9.87179 16.6214 9.81575 16.5299 9.74095C16.4384 9.66616 16.3625 9.57407 16.3066 9.46994C16.2507 9.36582 16.2158 9.2517 16.204 9.1341C16.1921 9.0165 16.2036 8.89773 16.2377 8.78456C16.2718 8.67139 16.3278 8.56604 16.4026 8.47453C16.4774 8.38301 16.5695 8.30713 16.6736 8.25121C16.7777 8.19528 16.8919 8.16042 17.0095 8.1486C19.275 7.92111 21.5497 8.48122 23.4506 9.7346C25.3515 10.988 26.7624 12.8581 27.4459 15.03C27.5175 15.2577 27.4957 15.5045 27.3853 15.7162C27.2749 15.9279 27.085 16.087 26.8573 16.1586C26.6296 16.2302 26.3827 16.2084 26.1711 16.098C25.9594 15.9877 25.8003 15.7977 25.7287 15.57C25.211 13.9257 24.1824 12.4893 22.7923 11.4696C21.4023 10.4499 19.7234 9.90007 17.9995 9.9ZM13.3195 10.26C13.3904 10.3546 13.442 10.4621 13.4713 10.5766C13.5006 10.6911 13.5071 10.8103 13.4904 10.9273C13.4737 11.0443 13.4341 11.1568 13.3739 11.2585C13.3137 11.3602 13.234 11.4491 13.1395 11.52C12.1326 12.2737 11.3155 13.2519 10.7531 14.3768C10.1906 15.5017 9.89835 16.7423 9.89947 18C9.89947 19.476 10.2955 20.8584 10.9831 22.05C11.1005 22.2566 11.1315 22.5013 11.0692 22.7306C11.007 22.96 10.8565 23.1554 10.6507 23.2742C10.4449 23.3931 10.2004 23.4257 9.97064 23.3649C9.74087 23.3042 9.54446 23.155 9.42427 22.95C8.55408 21.4456 8.09704 19.7379 8.09947 18C8.09947 14.76 9.65647 11.8836 12.0595 10.08C12.154 10.0091 12.2616 9.95749 12.3761 9.92816C12.4906 9.89883 12.6097 9.89233 12.7267 9.90905C12.8437 9.92576 12.9563 9.96536 13.058 10.0256C13.1597 10.0858 13.2486 10.1654 13.3195 10.26ZM26.8573 19.8414C26.97 19.8769 27.0747 19.9342 27.1653 20.0101C27.2559 20.086 27.3307 20.179 27.3853 20.2838C27.44 20.3886 27.4735 20.5031 27.4839 20.6209C27.4942 20.7386 27.4813 20.8572 27.4459 20.97C27.0007 22.3845 26.2437 23.6809 25.2305 24.7637C24.2174 25.8465 22.974 26.6879 21.5922 27.2259C20.2104 27.7639 18.7254 27.9847 17.2468 27.8721C15.7683 27.7595 14.3338 27.3163 13.0495 26.5752C12.8444 26.455 12.6953 26.2586 12.6345 26.0288C12.5738 25.7991 12.6064 25.5546 12.7252 25.3488C12.8441 25.143 13.0395 24.9925 13.2688 24.9302C13.4982 24.868 13.7429 24.8989 13.9495 25.0164C15.0004 25.6227 16.174 25.9852 17.3838 26.0773C18.5935 26.1694 19.8086 25.9887 20.9391 25.5485C22.0697 25.1083 23.087 24.4198 23.916 23.5339C24.745 22.648 25.3644 21.5873 25.7287 20.43C25.7641 20.3172 25.8214 20.2126 25.8973 20.122C25.9732 20.0314 26.0663 19.9566 26.1711 19.9019C26.2759 19.8473 26.3904 19.8138 26.5081 19.8034C26.6259 19.793 26.7445 19.8059 26.8573 19.8414ZM14.4013 18C14.4013 17.0452 14.7806 16.1295 15.4557 15.4544C16.1308 14.7793 17.0465 14.4 18.0013 14.4C18.956 14.4 19.8717 14.7793 20.5469 15.4544C21.222 16.1295 21.6013 17.0452 21.6013 18C21.6013 18.9548 21.222 19.8705 20.5469 20.5456C19.8717 21.2207 18.956 21.6 18.0013 21.6C17.0465 21.6 16.1308 21.2207 15.4557 20.5456C14.7806 19.8705 14.4013 18.9548 14.4013 18ZM18.0013 12.6C16.5691 12.6 15.1956 13.1689 14.1829 14.1816C13.1702 15.1943 12.6013 16.5678 12.6013 18C12.6013 19.4322 13.1702 20.8057 14.1829 21.8184C15.1956 22.8311 16.5691 23.4 18.0013 23.4C19.4334 23.4 20.8069 22.8311 21.8196 21.8184C22.8323 20.8057 23.4013 19.4322 23.4013 18C23.4013 16.5678 22.8323 15.1943 21.8196 14.1816C20.8069 13.1689 19.4334 12.6 18.0013 12.6Z" stroke="url(#paint1_linear_1020_2227)" stroke-width="0.4" mask="url(#path-1-outside-1_1020_2227)"/>
<defs>
<linearGradient id="paint0_linear_1020_2227" x1="17.9995" y1="5.15671" x2="17.9995" y2="30.852" gradientUnits="userSpaceOnUse">
<stop stop-color="#00A8FF"/>
<stop offset="1" stop-color="#4361EE"/>
</linearGradient>
<linearGradient id="paint1_linear_1020_2227" x1="17.9995" y1="5.15671" x2="17.9995" y2="30.852" gradientUnits="userSpaceOnUse">
<stop stop-color="#00A8FF"/>
<stop offset="1" stop-color="#4361EE"/>
</linearGradient>
</defs>
</svg>
