<svg width="32" height="32" viewBox="0 0 32 32" fill="none" xmlns="http://www.w3.org/2000/svg">
<path d="M28 2H17C16.4697 2.00053 15.9613 2.21141 15.5864 2.58637C15.2114 2.96133 15.0005 3.46973 15 4V10H4C3.46973 10.0005 2.96133 10.2114 2.58637 10.5864C2.21141 10.9613 2.00053 11.4697 2 12V28C2.00053 28.5303 2.21141 29.0387 2.58637 29.4136C2.96133 29.7886 3.46973 29.9995 4 30H15C15.5303 29.9995 16.0387 29.7886 16.4136 29.4136C16.7886 29.0387 16.9995 28.5303 17 28V22H28C28.5302 21.9992 29.0384 21.7882 29.4133 21.4133C29.7882 21.0384 29.9992 20.5302 30 20V4C29.9995 3.46973 29.7886 2.96133 29.4136 2.58637C29.0387 2.21141 28.5303 2.00053 28 2ZM28 4V8H17V4H28ZM15 22H4V18H15V22ZM17 10H28L28.001 14H17V10ZM15 12V16H4V12H15ZM4 28V24H15.001V28H4ZM17 20V16H28.002V20H17Z" fill="url(#paint0_linear_1020_2222)"/>
<defs>
<linearGradient id="paint0_linear_1020_2222" x1="16" y1="2" x2="16" y2="30" gradientUnits="userSpaceOnUse">
<stop stop-color="#00A8FF"/>
<stop offset="1" stop-color="#4361EE"/>
</linearGradient>
</defs>
</svg>
