<svg width="40" height="40" viewBox="0 0 40 40" fill="none" xmlns="http://www.w3.org/2000/svg">
<path d="M6.60737 17.619V10.3415C6.60543 9.83831 6.70801 9.33702 6.9093 8.87443C7.10697 8.41691 7.38342 7.99764 7.72608 7.63572C8.06612 7.27487 8.47561 6.98651 8.92995 6.78798C9.39447 6.58475 9.89576 6.4783 10.4029 6.47056H24.1022C24.6093 6.46669 25.1087 6.57508 25.5693 6.78798C26.0203 6.99701 26.4287 7.28346 26.779 7.63572C27.1293 7.98411 27.408 8.40218 27.5958 8.85895C27.7893 9.32927 27.8919 9.8325 27.8977 10.3415V23.8899H33.7042V27.8829C33.7061 28.628 33.5532 29.3635 33.2513 30.0448C32.651 31.409 31.5613 32.4987 30.1971 33.099C29.51 33.4015 28.7684 33.5609 28.0177 33.5674H23.8661C23.7219 33.1597 23.4885 32.7894 23.1829 32.4835L22.3313 31.6319H25.9622V10.3415C25.9637 10.0867 25.9123 9.83425 25.8113 9.60024C25.712 9.37173 25.5738 9.16217 25.4029 8.98089C25.2289 8.79724 25.0177 8.65275 24.7835 8.55701C24.5438 8.45691 24.2865 8.40558 24.0268 8.40605H10.4783C10.2256 8.4031 9.97485 8.45111 9.74108 8.54721C9.5073 8.64332 9.29528 8.78554 9.11769 8.9654C8.94023 9.14462 8.79663 9.35445 8.69382 9.58476C8.58463 9.82162 8.53291 10.0809 8.54285 10.3415V16.6474C7.85978 16.8894 7.20959 17.2158 6.60737 17.619ZM27.9732 31.6319C28.4687 31.6338 28.9564 31.5312 29.4093 31.33C30.319 30.9235 31.0448 30.1977 31.4513 29.288C31.6537 28.8304 31.7617 28.3367 31.7687 27.8364V25.8254H27.8977V31.6319H27.9732ZM18.6964 20.019H21.1235C21.3802 20.019 21.6263 19.917 21.8078 19.7355C21.9893 19.554 22.0913 19.3079 22.0913 19.0512C22.0913 18.7946 21.9893 18.5484 21.8078 18.3669C21.6263 18.1854 21.3802 18.0835 21.1235 18.0835H16.9313C17.6139 18.636 18.209 19.2885 18.6964 20.019ZM13.3816 14.2125C13.1249 14.2125 12.8788 14.1105 12.6973 13.9291C12.5158 13.7476 12.4138 13.5014 12.4138 13.2448C12.4138 12.9881 12.5158 12.742 12.6973 12.5605C12.8788 12.379 13.1249 12.277 13.3816 12.277H21.1235C21.3802 12.277 21.6263 12.379 21.8078 12.5605C21.9893 12.742 22.0913 12.9881 22.0913 13.2448C22.0913 13.5014 21.9893 13.7476 21.8078 13.9291C21.6263 14.1105 21.3802 14.2125 21.1235 14.2125H13.3816ZM15.5106 30.2771C14.1398 31.3052 12.4303 31.7756 10.7265 31.5936C9.02271 31.4116 7.45117 30.5906 6.32848 29.2962C5.20579 28.0017 4.61537 26.3299 4.67614 24.6174C4.73691 22.905 5.44437 21.2792 6.656 20.0676C7.86763 18.856 9.4934 18.1485 11.2058 18.0877C12.9182 18.027 14.5901 18.6174 15.8846 19.7401C17.179 20.8628 18 22.4343 18.182 24.1381C18.364 25.8419 17.8936 27.5514 16.8654 28.9222L21.8145 33.8442C21.9045 33.934 21.9759 34.0407 22.0246 34.1581C22.0734 34.2756 22.0985 34.4015 22.0986 34.5286C22.0987 34.6558 22.0737 34.7817 22.0251 34.8992C21.9766 35.0167 21.9053 35.1235 21.8155 35.2135C21.7256 35.3035 21.6189 35.3749 21.5015 35.4236C21.384 35.4724 21.2581 35.4975 21.131 35.4976C21.0038 35.4977 20.8779 35.4727 20.7604 35.4242C20.6429 35.3756 20.5361 35.3043 20.4461 35.2145L15.5106 30.2771ZM8.75769 28.8816C9.28624 29.2347 9.87918 29.4803 10.5026 29.6044C11.1261 29.7284 11.7679 29.7284 12.3914 29.6044C13.0149 29.4804 13.6078 29.2348 14.1364 28.8816C14.6649 28.5284 15.1187 28.0746 15.4719 27.5461C15.8251 27.0175 16.0707 26.4246 16.1947 25.8011C16.3187 25.1777 16.3187 24.5359 16.1947 23.9124C16.0707 23.2889 15.8251 22.696 15.4719 22.1674C15.1188 21.6389 14.665 21.185 14.1364 20.8319C13.0687 20.1184 11.7613 19.8582 10.5018 20.1087C9.24223 20.3591 8.13379 21.0996 7.42027 22.1674C6.70675 23.2351 6.4466 24.5425 6.69706 25.802C6.94751 27.0615 7.68805 28.17 8.75576 28.8835L8.75769 28.8816Z" fill="#010B39"/>
</svg>
