<svg width="45" height="45" viewBox="0 0 45 45" fill="none" xmlns="http://www.w3.org/2000/svg">
<path d="M22.5 32.3438C22.2188 32.3438 21.9375 32.3438 21.7969 32.2031L14.7656 27.9844C14.3437 27.7031 14.0625 27.2812 14.0625 26.7188V18.2812C14.0625 17.7188 14.3437 17.2969 14.7656 17.0156L21.7969 12.7969C21.9375 12.6563 22.2188 12.6562 22.5 12.6562C22.7812 12.6562 23.0625 12.6563 23.2031 12.7969L30.2344 17.0156C30.6562 17.2969 30.9375 17.7188 30.9375 18.2812V26.7188C30.9375 27.2812 30.6562 27.7031 30.2344 27.9844L23.2031 32.2031C23.0625 32.3438 22.7812 32.3438 22.5 32.3438ZM16.875 25.875L22.5 29.25L28.125 25.875V18.9844L22.5 15.6094L16.875 18.9844V25.875Z" fill="white"/>
<path d="M22.5 43.5938C22.2188 43.5938 22.0781 43.5938 21.7969 43.4531L4.92188 33.6094C4.5 33.3281 4.21875 32.9062 4.21875 32.3438V12.6562C4.21875 12.0938 4.5 11.6719 4.92188 11.3906L21.7969 1.54688C22.0781 1.40625 22.2188 1.40625 22.5 1.40625C22.7812 1.40625 22.9219 1.40625 23.2031 1.54688L40.0781 11.3906L38.6719 13.7812L22.5 4.5L7.03125 13.5V31.6406L22.5 40.6406L37.9688 31.6406V21.0938H40.7812V32.3438C40.7812 32.9062 40.5 33.3281 40.0781 33.6094L23.2031 43.4531C22.9219 43.5938 22.7812 43.5938 22.5 43.5938Z" fill="white"/>
</svg>
