<svg width="45" height="45" viewBox="0 0 45 45" fill="none" xmlns="http://www.w3.org/2000/svg">
<path d="M11.25 7.875C11.25 7.57663 11.3685 7.29048 11.5795 7.07951C11.7905 6.86853 12.0766 6.75 12.375 6.75H19.125C19.4234 6.75 19.7095 6.86853 19.9205 7.07951C20.1315 7.29048 20.25 7.57663 20.25 7.875V14.625C20.25 14.9234 20.1315 15.2095 19.9205 15.4205C19.7095 15.6315 19.4234 15.75 19.125 15.75H12.375C12.0766 15.75 11.7905 15.6315 11.5795 15.4205C11.3685 15.2095 11.25 14.9234 11.25 14.625V7.875ZM25.875 6.75C25.5766 6.75 25.2905 6.86853 25.0795 7.07951C24.8685 7.29048 24.75 7.57663 24.75 7.875V14.625C24.75 14.9234 24.8685 15.2095 25.0795 15.4205C25.2905 15.6315 25.5766 15.75 25.875 15.75H32.625C32.9234 15.75 33.2095 15.6315 33.4205 15.4205C33.6315 15.2095 33.75 14.9234 33.75 14.625V7.875C33.75 7.57663 33.6315 7.29048 33.4205 7.07951C33.2095 6.86853 32.9234 6.75 32.625 6.75H25.875ZM27 13.5V9H31.5V13.5H27ZM13.5 29.25C14.0967 29.25 14.669 29.0129 15.091 28.591C15.5129 28.169 15.75 27.5967 15.75 27C15.75 26.4033 15.5129 25.831 15.091 25.409C14.669 24.9871 14.0967 24.75 13.5 24.75C12.9033 24.75 12.331 24.9871 11.909 25.409C11.4871 25.831 11.25 26.4033 11.25 27C11.25 27.5967 11.4871 28.169 11.909 28.591C12.331 29.0129 12.9033 29.25 13.5 29.25ZM24.75 27C24.75 27.5967 24.5129 28.169 24.091 28.591C23.669 29.0129 23.0967 29.25 22.5 29.25C21.9033 29.25 21.331 29.0129 20.909 28.591C20.4871 28.169 20.25 27.5967 20.25 27C20.25 26.4033 20.4871 25.831 20.909 25.409C21.331 24.9871 21.9033 24.75 22.5 24.75C23.0967 24.75 23.669 24.9871 24.091 25.409C24.5129 25.831 24.75 26.4033 24.75 27ZM31.5 29.25C32.0967 29.25 32.669 29.0129 33.091 28.591C33.5129 28.169 33.75 27.5967 33.75 27C33.75 26.4033 33.5129 25.831 33.091 25.409C32.669 24.9871 32.0967 24.75 31.5 24.75C30.9033 24.75 30.331 24.9871 29.909 25.409C29.4871 25.831 29.25 26.4033 29.25 27C29.25 27.5967 29.4871 28.169 29.909 28.591C30.331 29.0129 30.9033 29.25 31.5 29.25ZM4.5 27C4.5 24.6131 5.44821 22.3239 7.13604 20.636C8.82387 18.9482 11.1131 18 13.5 18H31.5C33.8869 18 36.1761 18.9482 37.864 20.636C39.5518 22.3239 40.5 24.6131 40.5 27C40.5 29.3869 39.5518 31.6761 37.864 33.364C36.1761 35.0518 33.8869 36 31.5 36H13.5C11.1131 36 8.82387 35.0518 7.13604 33.364C5.44821 31.6761 4.5 29.3869 4.5 27ZM13.5 20.25C11.7098 20.25 9.9929 20.9612 8.72703 22.227C7.46116 23.4929 6.75 25.2098 6.75 27C6.75 28.7902 7.46116 30.5071 8.72703 31.773C9.9929 33.0388 11.7098 33.75 13.5 33.75H31.5C33.2902 33.75 35.0071 33.0388 36.273 31.773C37.5388 30.5071 38.25 28.7902 38.25 27C38.25 25.2098 37.5388 23.4929 36.273 22.227C35.0071 20.9612 33.2902 20.25 31.5 20.25H13.5Z" fill="white"/>
</svg>
