<svg width="45" height="45" viewBox="0 0 45 45" fill="none" xmlns="http://www.w3.org/2000/svg">
<path d="M11.25 25.3125H19.6875V28.125H11.25V25.3125ZM11.25 30.9375H25.3125V33.75H11.25V30.9375Z" fill="white"/>
<path d="M36.5625 5.625H8.4375C7.69181 5.62574 6.97687 5.9223 6.44958 6.44958C5.9223 6.97687 5.62574 7.69181 5.625 8.4375V36.5625C5.62574 37.3082 5.9223 38.0231 6.44958 38.5504C6.97687 39.0777 7.69181 39.3743 8.4375 39.375H36.5625C37.3082 39.3743 38.0231 39.0777 38.5504 38.5504C39.0777 38.0231 39.3743 37.3082 39.375 36.5625V8.4375C39.3743 7.69181 39.0777 6.97687 38.5504 6.44958C38.0231 5.9223 37.3082 5.62574 36.5625 5.625ZM25.3125 8.4375V14.0625H19.6875V8.4375H25.3125ZM8.4375 36.5625V8.4375H16.875V16.875H28.125V8.4375H36.5625L36.5639 36.5625H8.4375Z" fill="white"/>
</svg>
