<svg width="34" height="32" viewBox="0 0 34 32" fill="none" xmlns="http://www.w3.org/2000/svg">
<path d="M4.23778 2H2.11914V28C2.11914 28.5304 2.34235 29.0391 2.73968 29.4142C3.137 29.7893 3.67589 30 4.23778 30H31.7802V28H4.23778V2Z" fill="url(#paint0_linear_1020_2280)"/>
<path d="M31.7792 9H24.3639V11H28.1669L20.1267 18.59L15.5822 14.29C15.4837 14.1963 15.3665 14.1219 15.2374 14.0711C15.1083 14.0203 14.9699 13.9942 14.83 13.9942C14.6902 13.9942 14.5517 14.0203 14.4227 14.0711C14.2936 14.1219 14.1764 14.1963 14.0779 14.29L6.35547 21.59L7.84911 23L14.83 16.41L19.3745 20.71C19.473 20.8037 19.5902 20.8781 19.7193 20.9289C19.8484 20.9797 19.9868 21.0058 20.1267 21.0058C20.2665 21.0058 20.405 20.9797 20.534 20.9289C20.6631 20.8781 20.7803 20.8037 20.8788 20.71L29.6606 12.41V16H31.7792V9Z" fill="url(#paint1_linear_1020_2280)"/>
<defs>
<linearGradient id="paint0_linear_1020_2280" x1="16.9496" y1="2" x2="16.9496" y2="30" gradientUnits="userSpaceOnUse">
<stop stop-color="#00A8FF"/>
<stop offset="1" stop-color="#4361EE"/>
</linearGradient>
<linearGradient id="paint1_linear_1020_2280" x1="19.0673" y1="9" x2="19.0673" y2="23" gradientUnits="userSpaceOnUse">
<stop stop-color="#00A8FF"/>
<stop offset="1" stop-color="#4361EE"/>
</linearGradient>
</defs>
</svg>
