<svg width="32" height="32" viewBox="0 0 32 32" fill="none" xmlns="http://www.w3.org/2000/svg">
<path d="M5.59922 6.40002C4.9627 6.40002 4.35225 6.65288 3.90216 7.10297C3.45208 7.55306 3.19922 8.1635 3.19922 8.80002V12C3.19922 12.6365 3.45208 13.247 3.90216 13.6971C4.35225 14.1472 4.9627 14.4 5.59922 14.4H8.79922C9.43574 14.4 10.0462 14.1472 10.4963 13.6971C10.9464 13.247 11.1992 12.6365 11.1992 12V8.80002C11.1992 8.1635 10.9464 7.55306 10.4963 7.10297C10.0462 6.65288 9.43574 6.40002 8.79922 6.40002H5.59922ZM4.79922 8.80002C4.79922 8.58785 4.8835 8.38437 5.03353 8.23434C5.18356 8.08431 5.38705 8.00002 5.59922 8.00002H8.79922C9.01139 8.00002 9.21488 8.08431 9.3649 8.23434C9.51493 8.38437 9.59922 8.58785 9.59922 8.80002V12C9.59922 12.2122 9.51493 12.4157 9.3649 12.5657C9.21488 12.7157 9.01139 12.8 8.79922 12.8H5.59922C5.38705 12.8 5.18356 12.7157 5.03353 12.5657C4.8835 12.4157 4.79922 12.2122 4.79922 12V8.80002ZM15.1992 8.00002C14.987 8.00002 14.7836 8.08431 14.6335 8.23434C14.4835 8.38437 14.3992 8.58785 14.3992 8.80002C14.3992 9.0122 14.4835 9.21568 14.6335 9.36571C14.7836 9.51574 14.987 9.60002 15.1992 9.60002H27.9992C28.2114 9.60002 28.4149 9.51574 28.5649 9.36571C28.7149 9.21568 28.7992 9.0122 28.7992 8.80002C28.7992 8.58785 28.7149 8.38437 28.5649 8.23434C28.4149 8.08431 28.2114 8.00002 27.9992 8.00002H15.1992ZM15.1992 11.2C14.987 11.2 14.7836 11.2843 14.6335 11.4343C14.4835 11.5844 14.3992 11.7879 14.3992 12C14.3992 12.2122 14.4835 12.4157 14.6335 12.5657C14.7836 12.7157 14.987 12.8 15.1992 12.8H24.7992C25.0114 12.8 25.2149 12.7157 25.3649 12.5657C25.5149 12.4157 25.5992 12.2122 25.5992 12C25.5992 11.7879 25.5149 11.5844 25.3649 11.4343C25.2149 11.2843 25.0114 11.2 24.7992 11.2H15.1992ZM5.59922 17.6C4.9627 17.6 4.35225 17.8529 3.90216 18.303C3.45208 18.7531 3.19922 19.3635 3.19922 20V23.2C3.19922 23.8365 3.45208 24.447 3.90216 24.8971C4.35225 25.3472 4.9627 25.6 5.59922 25.6H8.79922C9.43574 25.6 10.0462 25.3472 10.4963 24.8971C10.9464 24.447 11.1992 23.8365 11.1992 23.2V20C11.1992 19.3635 10.9464 18.7531 10.4963 18.303C10.0462 17.8529 9.43574 17.6 8.79922 17.6H5.59922ZM4.79922 20C4.79922 19.7879 4.8835 19.5844 5.03353 19.4343C5.18356 19.2843 5.38705 19.2 5.59922 19.2H8.79922C9.01139 19.2 9.21488 19.2843 9.3649 19.4343C9.51493 19.5844 9.59922 19.7879 9.59922 20V23.2C9.59922 23.4122 9.51493 23.6157 9.3649 23.7657C9.21488 23.9157 9.01139 24 8.79922 24H5.59922C5.38705 24 5.18356 23.9157 5.03353 23.7657C4.8835 23.6157 4.79922 23.4122 4.79922 23.2V20ZM15.1992 19.2C14.987 19.2 14.7836 19.2843 14.6335 19.4343C14.4835 19.5844 14.3992 19.7879 14.3992 20C14.3992 20.2122 14.4835 20.4157 14.6335 20.5657C14.7836 20.7157 14.987 20.8 15.1992 20.8H27.9992C28.2114 20.8 28.4149 20.7157 28.5649 20.5657C28.7149 20.4157 28.7992 20.2122 28.7992 20C28.7992 19.7879 28.7149 19.5844 28.5649 19.4343C28.4149 19.2843 28.2114 19.2 27.9992 19.2H15.1992ZM15.1992 22.4C14.987 22.4 14.7836 22.4843 14.6335 22.6343C14.4835 22.7844 14.3992 22.9879 14.3992 23.2C14.3992 23.4122 14.4835 23.6157 14.6335 23.7657C14.7836 23.9157 14.987 24 15.1992 24H24.7992C25.0114 24 25.2149 23.9157 25.3649 23.7657C25.5149 23.6157 25.5992 23.4122 25.5992 23.2C25.5992 22.9879 25.5149 22.7844 25.3649 22.6343C25.2149 22.4843 25.0114 22.4 24.7992 22.4H15.1992Z" fill="url(#paint0_linear_1020_2275)"/>
<defs>
<linearGradient id="paint0_linear_1020_2275" x1="15.9992" y1="6.40002" x2="15.9992" y2="25.6" gradientUnits="userSpaceOnUse">
<stop stop-color="#00A8FF"/>
<stop offset="1" stop-color="#4361EE"/>
</linearGradient>
</defs>
</svg>
